999
dxfrw 0.6.3
  0
SECTION
  2
HEADER
  9
$ACADVER
  1
AC1021
  9
$DWGCODEPAGE
  3
ANSI_1252
  9
$INSBASE
 10
0
 20
0
 30
0
  9
$EXTMIN
 10
100.0000000000045
 20
-169.4301256218526
 30
0
  9
$EXTMAX
 10
699.9999999999914
 20
359.8076211353319
 30
0
  9
$LIMMIN
 10
0
 20
0
  9
$LIMMAX
 10
420
 20
297
  9
$ORTHOMODE
 70
    0
  9
$REGENMODE
 70
    1
  9
$FILLMODE
 70
    1
  9
$QTEXTMODE
 70
    0
  9
$MIRRTEXT
 70
    0
  9
$LTSCALE
 40
1
  9
$ATTMODE
 70
    0
  9
$TEXTSIZE
 40
2.5
  9
$TRACEWID
 40
15.68
  9
$TEXTSTYLE
  7
STANDARD
  9
$CLAYER
  8
tile
  9
$CELTYPE
  6
BYLAYER
  9
$CECOLOR
 62
  256
  9
$CELTSCALE
 40
1
  9
$DISPSILH
 70
    0
  9
$DIMSCALE
 40
2.5
  9
$DIMASZ
 40
2.5
  9
$DIMEXO
 40
0.625
  9
$DIMDLI
 40
3.75
  9
$DIMRND
 40
0
  9
$DIMDLE
 40
0
  9
$DIMEXE
 40
1.25
  9
$DIMTP
 40
0
  9
$DIMTM
 40
0
  9
$DIMTXT
 40
2.5
  9
$DIMCEN
 40
2.5
  9
$DIMTSZ
 40
0
  9
$DIMTOL
 70
    0
  9
$DIMLIM
 70
    0
  9
$DIMTIH
 70
    0
  9
$DIMTOH
 70
    0
  9
$DIMSE1
 70
    0
  9
$DIMSE2
 70
    0
  9
$DIMTAD
 70
    1
  9
$DIMZIN
 70
    8
  9
$DIMBLK
  1

  9
$DIMASO
 70
    1
  9
$DIMSHO
 70
    1
  9
$DIMPOST
  1

  9
$DIMAPOST
  1

  9
$DIMALT
 70
    0
  9
$DIMALTD
 70
    3
  9
$DIMALTF
 40
0.03937
  9
$DIMLFAC
 40
1
  9
$DIMTOFL
 70
    1
  9
$DIMTVP
 40
0
  9
$DIMTIX
 70
    0
  9
$DIMSOXD
 70
    0
  9
$DIMSAH
 70
    0
  9
$DIMBLK1
  1

  9
$DIMBLK2
  1

  9
$DIMSTYLE
  2
STANDARD
  9
$DIMCLRD
 70
    0
  9
$DIMCLRE
 70
    0
  9
$DIMCLRT
 70
    0
  9
$DIMTFAC
 40
1
  9
$DIMGAP
 40
0.625
  9
$DIMJUST
 70
    0
  9
$DIMSD1
 70
    0
  9
$DIMSD2
 70
    0
  9
$DIMTOLJ
 70
    0
  9
$DIMTZIN
 70
    8
  9
$DIMALTZ
 70
    0
  9
$DIMALTTZ
 70
    0
  9
$DIMUPT
 70
    0
  9
$DIMDEC
 70
    2
  9
$DIMTDEC
 70
    2
  9
$DIMALTU
 70
    2
  9
$DIMALTTD
 70
    3
  9
$DIMTXSTY
  7
STANDARD
  9
$DIMAUNIT
 70
    0
  9
$DIMADEC
 70
    0
  9
$DIMALTRND
 40
0
  9
$DIMAZIN
 70
    0
  9
$DIMDSEP
 70
   44
  9
$DIMATFIT
 70
    3
  9
$DIMFRAC
 70
    0
  9
$DIMLDRBLK
  1
STANDARD
  9
$DIMLUNIT
 70
    2
  9
$DIMLWD
 70
   -2
  9
$DIMLWE
 70
   -2
  9
$DIMTMOVE
 70
    0
  9
$DIMFXL
 40
1
  9
$DIMFXLON
 70
    0
  9
$DIMJOGANG
 40
0.7854
  9
$DIMTFILL
 70
    0
  9
$DIMTFILLCLR
 70
    0
  9
$DIMARCSYM
 70
    0
  9
$DIMLTYPE
  6

  9
$DIMLTEX1
  6

  9
$DIMLTEX2
  6

  9
$LUNITS
 70
    2
  9
$LUPREC
 70
    4
  9
$SKETCHINC
 40
1
  9
$FILLETRAD
 40
0
  9
$AUNITS
 70
    0
  9
$AUPREC
 70
    2
  9
$MENU
  1
.
  9
$ELEVATION
 40
0
  9
$PELEVATION
 40
0
  9
$THICKNESS
 40
0
  9
$LIMCHECK
 70
    0
  9
$CHAMFERA
 40
0
  9
$CHAMFERB
 40
0
  9
$CHAMFERC
 40
0
  9
$CHAMFERD
 40
0
  9
$SKPOLY
 70
    0
  9
$USRTIMER
 70
    1
  9
$ANGBASE
 50
0
  9
$ANGDIR
 70
    0
  9
$PDMODE
 70
   34
  9
$PDSIZE
 40
0
  9
$PLINEWID
 40
0
  9
$SPLFRAME
 70
    0
  9
$SPLINETYPE
 70
    2
  9
$SPLINESEGS
 70
    8
  9
$HANDSEED
  5
20000
  9
$SURFTAB1
 70
    6
  9
$SURFTAB2
 70
    6
  9
$SURFTYPE
 70
    6
  9
$SURFU
 70
    6
  9
$SURFV
 70
    6
  9
$UCSBASE
  2

  9
$UCSNAME
  2

  9
$UCSORG
 10
0
 20
0
 30
0
  9
$UCSXDIR
 10
1
 20
0
 30
0
  9
$UCSYDIR
 10
0
 20
1
 30
0
  9
$UCSORTHOREF
  2

  9
$UCSORTHOVIEW
 70
    0
  9
$UCSORGTOP
 10
0
 20
0
 30
0
  9
$UCSORGBOTTOM
 10
0
 20
0
 30
0
  9
$UCSORGLEFT
 10
0
 20
0
 30
0
  9
$UCSORGRIGHT
 10
0
 20
0
 30
0
  9
$UCSORGFRONT
 10
0
 20
0
 30
0
  9
$UCSORGBACK
 10
0
 20
0
 30
0
  9
$PUCSBASE
  2

  9
$PUCSNAME
  2

  9
$PUCSORG
 10
0
 20
0
 30
0
  9
$PUCSXDIR
 10
1
 20
0
 30
0
  9
$PUCSYDIR
 10
0
 20
1
 30
0
  9
$PUCSORTHOREF
  2

  9
$PUCSORTHOVIEW
 70
    0
  9
$PUCSORGTOP
 10
0
 20
0
 30
0
  9
$PUCSORGBOTTOM
 10
0
 20
0
 30
0
  9
$PUCSORGLEFT
 10
0
 20
0
 30
0
  9
$PUCSORGRIGHT
 10
0
 20
0
 30
0
  9
$PUCSORGFRONT
 10
0
 20
0
 30
0
  9
$PUCSORGBACK
 10
0
 20
0
 30
0
  9
$USERI1
 70
    0
  9
$USERI2
 70
    0
  9
$USERI3
 70
    0
  9
$USERI4
 70
    0
  9
$USERI5
 70
    0
  9
$USERR1
 40
0
  9
$USERR2
 40
0
  9
$USERR3
 40
0
  9
$USERR4
 40
0
  9
$USERR5
 40
0
  9
$WORLDVIEW
 70
    1
  9
$SHADEDGE
 70
    3
  9
$SHADEDIF
 70
   70
  9
$TILEMODE
 70
    1
  9
$MAXACTVP
 70
   64
  9
$PINSBASE
 10
0
 20
0
 30
0
  9
$PLIMCHECK
 70
    0
  9
$PEXTMIN
 10
0
 20
0
 30
0
  9
$PEXTMAX
 10
0
 20
0
 30
0
  9
$SNAPSTYLE
 70
    0
  9
$PLIMMIN
 10
0
 20
0
  9
$PLIMMAX
 10
210
 20
297
  9
$UNITMODE
 70
    0
  9
$VISRETAIN
 70
    1
  9
$PLINEGEN
 70
    0
  9
$PSLTSCALE
 70
    1
  9
$TREEDEPTH
 70
 3020
  9
$CMLSTYLE
  2
Standard
  9
$CMLJUST
 70
    0
  9
$CMLSCALE
 40
20
  9
$PROXYGRAPHICS
 70
    1
  9
$MEASUREMENT
 70
    1
  9
$CELWEIGHT
370
   -1
  9
$ENDCAPS
280
    0
  9
$JOINSTYLE
280
    0
  9
$LWDISPLAY
290
    0
  9
$INSUNITS
 70
    4
  9
$HYPERLINKBASE
  1

  9
$STYLESHEET
  1

  9
$XEDIT
290
    1
  9
$CEPSNTYPE
380
    0
  9
$PSTYLEMODE
290
    1
  9
$EXTNAMES
290
    1
  9
$PSVPSCALE
 40
1
  9
$OLESTARTUP
290
    0
  9
$SORTENTS
280
  127
  9
$INDEXCTL
280
    0
  9
$HIDETEXT
280
    1
  9
$XCLIPFRAME
290
    0
  9
$HALOGAP
280
    0
  9
$OBSCOLOR
 70
  257
  9
$OBSLTYPE
280
    0
  9
$INTERSECTIONDISPLAY
280
    0
  9
$INTERSECTIONCOLOR
 70
  257
  9
$DIMASSOC
280
    1
  9
$PROJECTNAME
  1

  9
$CAMERADISPLAY
290
    0
  9
$LENSLENGTH
 40
50
  9
$CAMERAHEIGHT
 40
0
  9
$STEPSPERSEC
 40
2
  9
$STEPSIZE
 40
50
  9
$3DDWFPREC
 40
2
  9
$PSOLWIDTH
 40
5
  9
$PSOLHEIGHT
 40
80
  9
$LOFTANG1
 40
1.570796326794897
  9
$LOFTANG2
 40
1.570796326794897
  9
$LOFTMAG1
 40
0
  9
$LOFTMAG2
 40
0
  9
$LOFTPARAM
 70
    7
  9
$LOFTNORMALS
280
    1
  9
$LATITUDE
 40
1
  9
$LONGITUDE
 40
1
  9
$NORTHDIRECTION
 40
0
  9
$TIMEZONE
 70
-8000
  9
$LIGHTGLYPHDISPLAY
280
    1
  9
$TILEMODELIGHTSYNCH
280
    1
  9
$SOLIDHIST
280
    1
  9
$SHOWHIST
280
    1
  9
$DWFFRAME
280
    2
  9
$DGNFRAME
280
    0
  9
$REALWORLDSCALE
290
    1
  9
$INTERFERECOLOR
 62
    1
  9
$CSHADOW
280
    0
  9
$SHADOWPLANELOCATION
 40
0
  0
ENDSEC
  0
SECTION
  2
CLASSES
  0
ENDSEC
  0
SECTION
  2
TABLES
  0
TABLE
  2
VPORT
  5
8
330
0
100
AcDbSymbolTable
 70
    1
  0
VPORT
  5
31
330
2
100
AcDbSymbolTableRecord
100
AcDbViewportTableRecord
  2
*ACTIVE
 70
    0
 10
0
 20
0
 11
1
 21
1
 12
440.4259204516312
 22
182.0642439263846
 13
0
 23
0
 14
10
 24
10
 15
10
 25
10
 16
0
 26
0
 36
1
 17
0
 27
0
 37
0
 40
537.3115491485986
 41
1.788880540946657
 42
50
 43
0
 44
0
 50
0
 51
0
 71
    0
 72
  100
 73
    1
 74
    3
 75
    0
 76
    1
 77
    0
 78
    0
281
    0
 65
    1
110
0
120
0
130
0
111
1
121
0
131
0
112
0
122
1
132
0
 79
    0
146
0
348
10020
 60
    7
 61
    5
292
1
282
    1
141
0
142
0
 63
  250
421
3358443
  0
ENDTAB
  0
TABLE
  2
LTYPE
  5
5
330
0
100
AcDbSymbolTable
 70
    4
  0
LTYPE
  5
14
330
5
100
AcDbSymbolTableRecord
100
AcDbLinetypeTableRecord
  2
ByBlock
 70
    0
  3

 72
   65
 73
    0
 40
0
  0
LTYPE
  5
15
330
5
100
AcDbSymbolTableRecord
100
AcDbLinetypeTableRecord
  2
ByLayer
 70
    0
  3

 72
   65
 73
    0
 40
0
  0
LTYPE
  5
16
330
5
100
AcDbSymbolTableRecord
100
AcDbLinetypeTableRecord
  2
Continuous
 70
    0
  3
Solid line
 72
   65
 73
    0
 40
0
  0
LTYPE
  5
32
330
5
100
AcDbSymbolTableRecord
100
AcDbLinetypeTableRecord
  2
DOT
 70
    0
  3
Dot . . . . . . . . . . . . . . . . . . . . . .
 72
   65
 73
    2
 40
6.35
 49
0
 74
    0
 49
-6.35
 74
    0
  0
LTYPE
  5
33
330
5
100
AcDbSymbolTableRecord
100
AcDbLinetypeTableRecord
  2
DOTTINY
 70
    0
  3
Dot (.15x) .....................................
 72
   65
 73
    2
 40
0.9525
 49
0
 74
    0
 49
-0.9525
 74
    0
  0
LTYPE
  5
34
330
5
100
AcDbSymbolTableRecord
100
AcDbLinetypeTableRecord
  2
DOT2
 70
    0
  3
Dot (.5x) .....................................
 72
   65
 73
    2
 40
3.175
 49
0
 74
    0
 49
-3.175
 74
    0
  0
LTYPE
  5
35
330
5
100
AcDbSymbolTableRecord
100
AcDbLinetypeTableRecord
  2
DOTX2
 70
    0
  3
Dot (2x) .  .  .  .  .  .  .  .  .  .  .  .  .
 72
   65
 73
    2
 40
12.7
 49
0
 74
    0
 49
-12.7
 74
    0
  0
LTYPE
  5
36
330
5
100
AcDbSymbolTableRecord
100
AcDbLinetypeTableRecord
  2
DASHED
 70
    0
  3
Dashed _ _ _ _ _ _ _ _ _ _ _ _ _ _ _ _ _
 72
   65
 73
    2
 40
19.05
 49
12.7
 74
    0
 49
-6.35
 74
    0
  0
LTYPE
  5
37
330
5
100
AcDbSymbolTableRecord
100
AcDbLinetypeTableRecord
  2
DASHEDTINY
 70
    0
  3
Dashed (.15x) _ _ _ _ _ _ _ _ _ _ _ _ _ _ _ _ _
 72
   65
 73
    2
 40
2.8575
 49
1.905
 74
    0
 49
-0.9525
 74
    0
  0
LTYPE
  5
38
330
5
100
AcDbSymbolTableRecord
100
AcDbLinetypeTableRecord
  2
DASHED2
 70
    0
  3
Dashed (.5x) _ _ _ _ _ _ _ _ _ _ _ _ _ _ _ _ _
 72
   65
 73
    2
 40
9.524999999999999
 49
6.35
 74
    0
 49
-3.175
 74
    0
  0
LTYPE
  5
39
330
5
100
AcDbSymbolTableRecord
100
AcDbLinetypeTableRecord
  2
DASHEDX2
 70
    0
  3
Dashed (2x) ____  ____  ____  ____  ____  ___
 72
   65
 73
    2
 40
38.09999999999999
 49
25.4
 74
    0
 49
-12.7
 74
    0
  0
LTYPE
  5
3A
330
5
100
AcDbSymbolTableRecord
100
AcDbLinetypeTableRecord
  2
DASHDOT
 70
    0
  3
Dash dot __ . __ . __ . __ . __ . __ . __ . __
 72
   65
 73
    4
 40
25.4
 49
12.7
 74
    0
 49
-6.35
 74
    0
 49
0
 74
    0
 49
-6.35
 74
    0
  0
LTYPE
  5
3B
330
5
100
AcDbSymbolTableRecord
100
AcDbLinetypeTableRecord
  2
DASHDOTTINY
 70
    0
  3
Dash dot (.15x) _._._._._._._._._._._._._._._.
 72
   65
 73
    4
 40
3.81
 49
1.905
 74
    0
 49
-0.9525
 74
    0
 49
0
 74
    0
 49
-0.9525
 74
    0
  0
LTYPE
  5
3C
330
5
100
AcDbSymbolTableRecord
100
AcDbLinetypeTableRecord
  2
DASHDOT2
 70
    0
  3
Dash dot (.5x) _._._._._._._._._._._._._._._.
 72
   65
 73
    4
 40
12.7
 49
6.35
 74
    0
 49
-3.175
 74
    0
 49
0
 74
    0
 49
-3.175
 74
    0
  0
LTYPE
  5
3D
330
5
100
AcDbSymbolTableRecord
100
AcDbLinetypeTableRecord
  2
DASHDOTX2
 70
    0
  3
Dash dot (2x) ____  .  ____  .  ____  .  ___
 72
   65
 73
    4
 40
50.8
 49
25.4
 74
    0
 49
-12.7
 74
    0
 49
0
 74
    0
 49
-12.7
 74
    0
  0
LTYPE
  5
3E
330
5
100
AcDbSymbolTableRecord
100
AcDbLinetypeTableRecord
  2
DIVIDE
 70
    0
  3
Divide ____ . . ____ . . ____ . . ____ . . ____
 72
   65
 73
    6
 40
31.75
 49
12.7
 74
    0
 49
-6.35
 74
    0
 49
0
 74
    0
 49
-6.35
 74
    0
 49
0
 74
    0
 49
-6.35
 74
    0
  0
LTYPE
  5
3F
330
5
100
AcDbSymbolTableRecord
100
AcDbLinetypeTableRecord
  2
DIVIDETINY
 70
    0
  3
Divide (.15x) __..__..__..__..__..__..__..__.._
 72
   65
 73
    6
 40
4.7625
 49
1.905
 74
    0
 49
-0.9525
 74
    0
 49
0
 74
    0
 49
-0.9525
 74
    0
 49
0
 74
    0
 49
-0.9525
 74
    0
  0
LTYPE
  5
40
330
5
100
AcDbSymbolTableRecord
100
AcDbLinetypeTableRecord
  2
DIVIDE2
 70
    0
  3
Divide (.5x) __..__..__..__..__..__..__..__.._
 72
   65
 73
    6
 40
15.875
 49
6.35
 74
    0
 49
-3.175
 74
    0
 49
0
 74
    0
 49
-3.175
 74
    0
 49
0
 74
    0
 49
-3.175
 74
    0
  0
LTYPE
  5
41
330
5
100
AcDbSymbolTableRecord
100
AcDbLinetypeTableRecord
  2
DIVIDEX2
 70
    0
  3
Divide (2x) ________  .  .  ________  .  .  _
 72
   65
 73
    6
 40
63.5
 49
25.4
 74
    0
 49
-12.7
 74
    0
 49
0
 74
    0
 49
-12.7
 74
    0
 49
0
 74
    0
 49
-12.7
 74
    0
  0
LTYPE
  5
42
330
5
100
AcDbSymbolTableRecord
100
AcDbLinetypeTableRecord
  2
BORDER
 70
    0
  3
Border __ __ . __ __ . __ __ . __ __ . __ __ .
 72
   65
 73
    6
 40
44.45
 49
12.7
 74
    0
 49
-6.35
 74
    0
 49
12.7
 74
    0
 49
-6.35
 74
    0
 49
0
 74
    0
 49
-6.35
 74
    0
  0
LTYPE
  5
43
330
5
100
AcDbSymbolTableRecord
100
AcDbLinetypeTableRecord
  2
BORDERTINY
 70
    0
  3
Border (.15x) __.__.__.__.__.__.__.__.__.__.__.
 72
   65
 73
    6
 40
6.6675
 49
1.905
 74
    0
 49
-0.9525
 74
    0
 49
1.905
 74
    0
 49
-0.9525
 74
    0
 49
0
 74
    0
 49
-0.9525
 74
    0
  0
LTYPE
  5
44
330
5
100
AcDbSymbolTableRecord
100
AcDbLinetypeTableRecord
  2
BORDER2
 70
    0
  3
Border (.5x) __.__.__.__.__.__.__.__.__.__.__.
 72
   65
 73
    6
 40
22.225
 49
6.35
 74
    0
 49
-3.175
 74
    0
 49
6.35
 74
    0
 49
-3.175
 74
    0
 49
0
 74
    0
 49
-3.175
 74
    0
  0
LTYPE
  5
45
330
5
100
AcDbSymbolTableRecord
100
AcDbLinetypeTableRecord
  2
BORDERX2
 70
    0
  3
Border (2x) ____  ____  .  ____  ____  .  ___
 72
   65
 73
    6
 40
88.89999999999999
 49
25.4
 74
    0
 49
-12.7
 74
    0
 49
25.4
 74
    0
 49
-12.7
 74
    0
 49
0
 74
    0
 49
-12.7
 74
    0
  0
LTYPE
  5
46
330
5
100
AcDbSymbolTableRecord
100
AcDbLinetypeTableRecord
  2
CENTER
 70
    0
  3
Center ____ _ ____ _ ____ _ ____ _ ____ _ ____
 72
   65
 73
    4
 40
50.8
 49
31.75
 74
    0
 49
-6.35
 74
    0
 49
6.35
 74
    0
 49
-6.35
 74
    0
  0
LTYPE
  5
47
330
5
100
AcDbSymbolTableRecord
100
AcDbLinetypeTableRecord
  2
CENTERTINY
 70
    0
  3
Center (.15x) ___ _ ___ _ ___ _ ___ _ ___ _ ___
 72
   65
 73
    4
 40
7.619999999999999
 49
4.7625
 74
    0
 49
-0.9525
 74
    0
 49
0.9525
 74
    0
 49
-0.9525
 74
    0
  0
LTYPE
  5
48
330
5
100
AcDbSymbolTableRecord
100
AcDbLinetypeTableRecord
  2
CENTER2
 70
    0
  3
Center (.5x) ___ _ ___ _ ___ _ ___ _ ___ _ ___
 72
   65
 73
    4
 40
28.575
 49
19.05
 74
    0
 49
-3.175
 74
    0
 49
3.175
 74
    0
 49
-3.175
 74
    0
  0
LTYPE
  5
49
330
5
100
AcDbSymbolTableRecord
100
AcDbLinetypeTableRecord
  2
CENTERX2
 70
    0
  3
Center (2x) ________  __  ________  __  _____
 72
   65
 73
    4
 40
101.6
 49
63.5
 74
    0
 49
-12.7
 74
    0
 49
12.7
 74
    0
 49
-12.7
 74
    0
  0
ENDTAB
  0
TABLE
  2
LAYER
  5
2
330
0
100
AcDbSymbolTable
 70
    1
  0
LAYER
  5
10
330
2
100
AcDbSymbolTableRecord
100
AcDbLayerTableRecord
  2
0
 70
    1
 62
    7
  6
CONTINUOUS
370
    0
390
F
  0
LAYER
  5
4A
330
2
100
AcDbSymbolTableRecord
100
AcDbLayerTableRecord
  2
basegrid
 70
    0
 62
    7
  6
CONTINUOUS
370
    0
390
F
  0
LAYER
  5
4B
330
2
100
AcDbSymbolTableRecord
100
AcDbLayerTableRecord
  2
helper
 70
    1
 62
    7
  6
CONTINUOUS
290
0
370
    0
390
F
  0
LAYER
  5
4C
330
2
100
AcDbSymbolTableRecord
100
AcDbLayerTableRecord
  2
helper2
 70
    1
 62
    7
  6
DOTTINY
290
0
370
    0
390
F
  0
LAYER
  5
4D
330
2
100
AcDbSymbolTableRecord
100
AcDbLayerTableRecord
  2
tile
 70
    0
 62
    2
  6
CONTINUOUS
370
   50
390
F
  0
ENDTAB
  0
TABLE
  2
STYLE
  5
3
330
0
100
AcDbSymbolTable
 70
    3
  0
STYLE
  5
4E
330
2
100
AcDbSymbolTableRecord
100
AcDbTextStyleTableRecord
  2
Standard
 70
    0
 40
0
 41
1
 50
0
 71
    0
 42
1
  3
txt
  4

  0
ENDTAB
  0
TABLE
  2
VIEW
  5
6
330
0
100
AcDbSymbolTable
 70
    0
  0
ENDTAB
  0
TABLE
  2
UCS
  5
7
330
0
100
AcDbSymbolTable
 70
    0
  0
ENDTAB
  0
TABLE
  2
APPID
  5
9
330
0
100
AcDbSymbolTable
 70
    1
  0
APPID
  5
12
330
9
100
AcDbSymbolTableRecord
100
AcDbRegAppTableRecord
  2
ACAD
 70
    0
  0
APPID
  5
4F
330
9
100
AcDbSymbolTableRecord
100
AcDbRegAppTableRecord
  2
LibreCad
 70
    0
  0
ENDTAB
  0
TABLE
  2
DIMSTYLE
  5
A
330
0
100
AcDbSymbolTable
 70
    1
100
AcDbDimStyleTable
 71
    1
  0
DIMSTYLE
105
50
330
A
100
AcDbSymbolTableRecord
100
AcDbDimStyleTableRecord
  2
Standard
 70
    0
 40
1
 41
2.5
 42
0.625
 43
0.38
 44
1.25
 45
0
 46
0
 47
0
 48
0
 49
1
140
2.5
141
0.09
142
2.5
143
25.4
144
1
145
0
146
1
147
0.625
148
0
 71
    0
 72
    0
 73
    0
 74
    1
 75
    0
 76
    0
 77
    0
 78
    1
 79
    0
170
    0
171
    2
172
    0
173
    0
174
    0
175
    0
176
    0
177
    0
178
    0
179
    0
271
    2
272
    4
273
    2
274
    2
275
    0
276
    0
277
    2
278
    0
279
    0
280
    0
281
    0
282
    0
283
    1
284
    0
285
    0
286
    0
288
    0
289
    3
340
standard
341

371
   -2
372
   -2
  0
ENDTAB
  0
TABLE
  2
BLOCK_RECORD
  5
1
330
0
100
AcDbSymbolTable
 70
    2
  0
BLOCK_RECORD
  5
1F
330
1
100
AcDbSymbolTableRecord
100
AcDbBlockTableRecord
  2
*Model_Space
 70
    0
280
    1
281
    0
  0
BLOCK_RECORD
  5
1E
330
1
100
AcDbSymbolTableRecord
100
AcDbBlockTableRecord
  2
*Paper_Space
 70
    0
280
    1
281
    0
  0
ENDTAB
  0
ENDSEC
  0
SECTION
  2
BLOCKS
  0
BLOCK
  5
20
330
1F
100
AcDbEntity
  8
0
100
AcDbBlockBegin
  2
*Model_Space
 70
    0
 10
0
 20
0
 30
0
  3
*Model_Space
  1

  0
ENDBLK
  5
21
330
1F
100
AcDbEntity
  8
0
100
AcDbBlockEnd
  0
BLOCK
  5
1C
330
1B
100
AcDbEntity
  8
0
100
AcDbBlockBegin
  2
*Paper_Space
 70
    0
 10
0
 20
0
 30
0
  3
*Paper_Space
  1

  0
ENDBLK
  5
1D
330
1F
100
AcDbEntity
  8
0
100
AcDbBlockEnd
  0
ENDSEC
  0
SECTION
  2
ENTITIES
  0
LINE
  5
51
100
AcDbEntity
  8
0
  6
ByLayer
 62
  256
370
   -1
100
AcDbLine
 10
250
 20
359.8076211353316
 11
100
 21
100
  0
LINE
  5
52
100
AcDbEntity
  8
0
  6
ByLayer
 62
  256
370
   -1
100
AcDbLine
 10
100
 20
100
 11
250
 21
-159.8076211353316
  0
LINE
  5
53
100
AcDbEntity
  8
0
  6
ByLayer
 62
  256
370
   -1
100
AcDbLine
 10
250
 20
-159.8076211353316
 11
550
 21
-159.8076211353316
  0
LINE
  5
54
100
AcDbEntity
  8
0
  6
ByLayer
 62
  256
370
   -1
100
AcDbLine
 10
550
 20
-159.8076211353316
 11
700
 21
99.99999999999993
  0
LINE
  5
55
100
AcDbEntity
  8
0
  6
ByLayer
 62
  256
370
   -1
100
AcDbLine
 10
700
 20
99.99999999999993
 11
550
 21
359.8076211353316
  0
LINE
  5
56
100
AcDbEntity
  8
0
  6
ByLayer
 62
  256
370
   -1
100
AcDbLine
 10
550
 20
359.8076211353316
 11
250
 21
359.8076211353316
  0
LINE
  5
57
100
AcDbEntity
  8
helper
  6
ByLayer
 62
  256
370
   -1
100
AcDbLine
 10
550.0000000000001
 20
359.8076211353316
 11
250
 21
-159.8076211353316
  0
LINE
  5
58
100
AcDbEntity
  8
helper
  6
ByLayer
 62
  256
370
   -1
100
AcDbLine
 10
250
 20
359.8076211353316
 11
550
 21
-159.8076211353316
  0
LINE
  5
59
100
AcDbEntity
  8
helper
  6
ByLayer
 62
  256
370
   -1
100
AcDbLine
 10
400
 20
359.8076211353316
 11
400
 21
-159.8076211353316
  0
LINE
  5
5A
100
AcDbEntity
  8
helper
  6
ByLayer
 62
  256
370
   -1
100
AcDbLine
 10
550
 20
359.8076211353315
 11
550
 21
-159.8076211353316
  0
LINE
  5
5B
100
AcDbEntity
  8
helper
  6
ByLayer
 62
  256
370
   -1
100
AcDbLine
 10
700
 20
359.8076211353315
 11
700
 21
-159.8076211353317
  0
LINE
  5
5C
100
AcDbEntity
  8
helper
  6
ByLayer
 62
  256
370
   -1
100
AcDbLine
 10
850
 20
359.8076211353315
 11
850
 21
-159.8076211353317
  0
LINE
  5
5D
100
AcDbEntity
  8
helper
  6
ByLayer
 62
  256
370
   -1
100
AcDbLine
 10
1000
 20
359.8076211353314
 11
1000
 21
-159.8076211353317
  0
LINE
  5
5E
100
AcDbEntity
  8
helper
  6
ByLayer
 62
  256
370
   -1
100
AcDbLine
 10
1150
 20
359.8076211353314
 11
1150
 21
-159.8076211353318
  0
LINE
  5
5F
100
AcDbEntity
  8
helper
  6
ByLayer
 62
  256
370
   -1
100
AcDbLine
 10
1300
 20
359.8076211353314
 11
1300
 21
-159.8076211353318
  0
LINE
  5
60
100
AcDbEntity
  8
helper
  6
ByLayer
 62
  256
370
   -1
100
AcDbLine
 10
1450
 20
359.8076211353313
 11
1450
 21
-159.8076211353319
  0
LINE
  5
61
100
AcDbEntity
  8
helper
  6
ByLayer
 62
  256
370
   -1
100
AcDbLine
 10
1600
 20
359.8076211353313
 11
1600
 21
-159.8076211353319
  0
LINE
  5
62
100
AcDbEntity
  8
helper
  6
ByLayer
 62
  256
370
   -1
100
AcDbLine
 10
1750
 20
359.8076211353313
 11
1750
 21
-159.8076211353319
  0
LINE
  5
63
100
AcDbEntity
  8
helper
  6
ByLayer
 62
  256
370
   -1
100
AcDbLine
 10
400
 20
359.8076211353315
 11
1750
 21
-159.8076211353319
  0
LINE
  5
64
100
AcDbEntity
  8
helper
  6
ByLayer
 62
  256
370
   -1
100
AcDbLine
 10
550
 20
302.0725942163689
 11
250.0000000000001
 21
302.072594216369
  0
LINE
  5
65
100
AcDbEntity
  8
helper
  6
ByLayer
 62
  256
370
   -1
100
AcDbLine
 10
550
 20
244.3375672974063
 11
250.0000000000001
 21
244.3375672974064
  0
LINE
  5
66
100
AcDbEntity
  8
helper
  6
ByLayer
 62
  256
370
   -1
100
AcDbLine
 10
550
 20
186.6025403784437
 11
250.0000000000001
 21
186.6025403784438
  0
LINE
  5
67
100
AcDbEntity
  8
helper
  6
ByLayer
 62
  256
370
   -1
100
AcDbLine
 10
550
 20
128.8675134594811
 11
250.0000000000001
 21
128.8675134594812
  0
LINE
  5
68
100
AcDbEntity
  8
helper
  6
ByLayer
 62
  256
370
   -1
100
AcDbLine
 10
550
 20
71.13248654051853
 11
250
 21
71.13248654051858
  0
LINE
  5
69
100
AcDbEntity
  8
helper
  6
ByLayer
 62
  256
370
   -1
100
AcDbLine
 10
549.9999999999999
 20
13.39745962155592
 11
250
 21
13.39745962155598
  0
LINE
  5
6A
100
AcDbEntity
  8
helper
  6
ByLayer
 62
  256
370
   -1
100
AcDbLine
 10
549.9999999999999
 20
-44.33756729740668
 11
250
 21
-44.33756729740662
  0
LINE
  5
6B
100
AcDbEntity
  8
helper
  6
ByLayer
 62
  256
370
   -1
100
AcDbLine
 10
549.9999999999999
 20
-102.0725942163693
 11
250
 21
-102.0725942163692
  0
LINE
  5
6C
100
AcDbEntity
  8
helper
  6
ByLayer
 62
  256
370
   -1
100
AcDbLine
 10
549.9999999999999
 20
-159.8076211353319
 11
250
 21
-159.8076211353318
  0
CIRCLE
  5
6D
100
AcDbEntity
  8
helper
  6
ByLayer
 62
  256
370
   -1
100
AcDbCircle
 10
400
 20
100.0000000000001
 40
33.33333333333309
  0
CIRCLE
  5
6E
100
AcDbEntity
  8
helper
  6
ByLayer
 62
  256
370
   -1
100
AcDbCircle
 10
383.3333333333338
 20
128.8675134594806
 40
33.33333333333237
  0
CIRCLE
  5
6F
100
AcDbEntity
  8
helper
  6
ByLayer
 62
  256
370
   -1
100
AcDbCircle
 10
416.6666666666662
 20
71.13248654051961
 40
33.33333333333237
  0
LINE
  5
70
100
AcDbEntity
  8
tile
  6
ByLayer
 62
  256
370
   -1
100
AcDbLine
 10
383.3333333333338
 20
128.8675134594806
 11
416.6666666666632
 21
128.8675134594812
  0
LINE
  5
71
100
AcDbEntity
  8
tile
  6
ByLayer
 62
  256
370
   -1
100
AcDbLine
 10
416.6666666666632
 20
128.8675134594812
 11
433.3333333333331
 21
100.0000000000001
  0
LINE
  5
72
100
AcDbEntity
  8
tile
  6
ByLayer
 62
  256
370
   -1
100
AcDbLine
 10
433.3333333333331
 20
100.0000000000001
 11
416.6666666666662
 21
71.13248654051961
  0
LINE
  5
73
100
AcDbEntity
  8
tile
  6
ByLayer
 62
  256
370
   -1
100
AcDbLine
 10
416.6666666666662
 20
71.13248654051961
 11
383.3333333333339
 21
71.13248654051961
  0
LINE
  5
74
100
AcDbEntity
  8
tile
  6
ByLayer
 62
  256
370
   -1
100
AcDbLine
 10
383.3333333333339
 20
71.13248654051961
 11
366.6666666666669
 21
100.0000000000001
  0
LINE
  5
75
100
AcDbEntity
  8
tile
  6
ByLayer
 62
  256
370
   -1
100
AcDbLine
 10
366.6666666666669
 20
100.0000000000001
 11
383.3333333333338
 21
128.8675134594806
  0
LINE
  5
76
100
AcDbEntity
  8
helper2
  6
ByLayer
 62
  256
370
   -1
100
AcDbLine
 10
433.3333333333305
 20
100.0000000000002
 11
416.6666666666635
 21
128.8675134594807
  0
LINE
  5
77
100
AcDbEntity
  8
helper2
  6
ByLayer
 62
  256
370
   -1
100
AcDbLine
 10
533.3333333333236
 20
157.7350269189615
 11
516.6666666666566
 21
186.602540378442
  0
LINE
  5
78
100
AcDbEntity
  8
helper2
  6
ByLayer
 62
  256
370
   -1
100
AcDbLine
 10
583.3333333333202
 20
186.6025403784421
 11
566.6666666666532
 21
215.4700538379226
  0
LINE
  5
79
100
AcDbEntity
  8
helper2
  6
ByLayer
 62
  256
370
   -1
100
AcDbLine
 10
633.3333333333168
 20
215.4700538379227
 11
616.6666666666498
 21
244.3375672974032
  0
LINE
  5
7A
100
AcDbEntity
  8
helper2
  6
ByLayer
 62
  256
370
   -1
100
AcDbLine
 10
416.6666666666662
 20
128.8675134594812
 11
383.3333333333339
 21
128.8675134594812
  0
LINE
  5
7B
100
AcDbEntity
  8
helper2
  6
ByLayer
 62
  256
370
   -1
100
AcDbLine
 10
416.6666666666663
 20
186.6025403784428
 11
383.3333333333339
 21
186.6025403784428
  0
LINE
  5
7C
100
AcDbEntity
  8
helper2
  6
ByLayer
 62
  256
370
   -1
100
AcDbLine
 10
416.6666666666663
 20
244.3375672974043
 11
383.3333333333339
 21
244.3375672974043
  0
LINE
  5
7D
100
AcDbEntity
  8
helper2
  6
ByLayer
 62
  256
370
   -1
100
AcDbLine
 10
416.6666666666663
 20
302.0725942163659
 11
383.3333333333339
 21
302.0725942163659
  0
LINE
  5
7E
100
AcDbEntity
  8
helper2
  6
ByLayer
 62
  256
370
   -1
100
AcDbLine
 10
416.6666666666663
 20
359.8076211353275
 11
383.333333333334
 21
359.8076211353275
  0
LINE
  5
7F
100
AcDbEntity
  8
helper2
  6
ByLayer
 62
  256
370
   -1
100
AcDbLine
 10
383.3333333333345
 20
128.8675134594818
 11
366.6666666666676
 21
100.0000000000013
  0
LINE
  5
80
100
AcDbEntity
  8
helper2
  6
ByLayer
 62
  256
370
   -1
100
AcDbLine
 10
333.3333333333358
 20
157.7350269189635
 11
316.666666666669
 21
128.867513459483
  0
LINE
  5
81
100
AcDbEntity
  8
helper2
  6
ByLayer
 62
  256
370
   -1
100
AcDbLine
 10
283.3333333333371
 20
186.6025403784451
 11
266.6666666666703
 21
157.7350269189646
  0
LINE
  5
82
100
AcDbEntity
  8
helper2
  6
ByLayer
 62
  256
370
   -1
100
AcDbLine
 10
233.3333333333385
 20
215.4700538379268
 11
216.6666666666717
 21
186.6025403784463
  0
LINE
  5
83
100
AcDbEntity
  8
helper2
  6
ByLayer
 62
  256
370
   -1
100
AcDbLine
 10
183.3333333333399
 20
244.3375672974084
 11
166.666666666673
 21
215.470053837928
  0
LINE
  5
84
100
AcDbEntity
  8
helper2
  6
ByLayer
 62
  256
370
   -1
100
AcDbLine
 10
383.3333333333339
 20
71.13248654051959
 11
366.6666666666669
 21
100.0000000000001
  0
LINE
  5
85
100
AcDbEntity
  8
helper2
  6
ByLayer
 62
  256
370
   -1
100
AcDbLine
 10
333.3333333333373
 20
42.26497308103897
 11
316.6666666666703
 21
71.13248654051947
  0
LINE
  5
86
100
AcDbEntity
  8
helper2
  6
ByLayer
 62
  256
370
   -1
100
AcDbLine
 10
283.3333333333407
 20
13.39745962155834
 11
266.6666666666737
 21
42.26497308103885
  0
LINE
  5
87
100
AcDbEntity
  8
helper2
  6
ByLayer
 62
  256
370
   -1
100
AcDbLine
 10
233.3333333333441
 20
-15.47005383792229
 11
216.6666666666772
 21
13.39745962155821
  0
LINE
  5
88
100
AcDbEntity
  8
helper2
  6
ByLayer
 62
  256
370
   -1
100
AcDbLine
 10
383.3333333333349
 20
71.13248654051898
 11
416.6666666666643
 21
71.13248654051961
  0
LINE
  5
89
100
AcDbEntity
  8
helper2
  6
ByLayer
 62
  256
370
   -1
100
AcDbLine
 10
383.333333333336
 20
13.3974596215574
 11
416.6666666666654
 21
13.39745962155803
  0
LINE
  5
8A
100
AcDbEntity
  8
helper2
  6
ByLayer
 62
  256
370
   -1
100
AcDbLine
 10
383.333333333337
 20
-44.33756729740418
 11
416.6666666666664
 21
-44.33756729740355
  0
LINE
  5
8B
100
AcDbEntity
  8
helper2
  6
ByLayer
 62
  256
370
   -1
100
AcDbLine
 10
383.3333333333381
 20
-102.0725942163658
 11
416.6666666666675
 21
-102.0725942163651
  0
LINE
  5
8C
100
AcDbEntity
  8
helper2
  6
ByLayer
 62
  256
370
   -1
100
AcDbLine
 10
416.6666666666654
 20
71.1324865405184
 11
433.3333333333323
 21
99.99999999999886
  0
LINE
  5
8D
100
AcDbEntity
  8
helper2
  6
ByLayer
 62
  256
370
   -1
100
AcDbLine
 10
516.6666666666624
 20
13.39745962155499
 11
533.3333333333294
 21
42.26497308103545
  0
LINE
  5
8E
100
AcDbEntity
  8
helper2
  6
ByLayer
 62
  256
370
   -1
100
AcDbLine
 10
566.6666666666608
 20
-15.47005383792671
 11
583.3333333333278
 21
13.39745962155375
  0
LINE
  5
8F
100
AcDbEntity
  8
helper2
  6
ByLayer
 62
  256
370
   -1
100
AcDbLine
 10
616.6666666666594
 20
-44.3375672974084
 11
633.3333333333263
 21
-15.47005383792794
  0
LINE
  5
90
100
AcDbEntity
  8
tile
  6
ByLayer
 62
  256
370
   -1
100
AcDbLine
 10
516.6666666666566
 20
186.602540378442
 11
533.3333333333236
 21
157.7350269189615
  0
LINE
  5
91
100
AcDbEntity
  8
tile
  6
ByLayer
 62
  256
370
   -1
100
AcDbLine
 10
383.333333333336
 20
244.3375672974043
 11
416.6666666666663
 21
244.3375672974043
  0
LINE
  5
92
100
AcDbEntity
  8
tile
  6
ByLayer
 62
  256
370
   -1
100
AcDbLine
 10
283.3333333333371
 20
186.6025403784451
 11
266.6666666666703
 21
157.7350269189646
  0
LINE
  5
93
100
AcDbEntity
  8
tile
  6
ByLayer
 62
  256
370
   -1
100
AcDbLine
 10
266.6666666666737
 20
42.26497308103885
 11
283.3333333333407
 21
13.39745962155834
  0
LINE
  5
94
100
AcDbEntity
  8
tile
  6
ByLayer
 62
  256
370
   -1
100
AcDbLine
 10
383.3333333333392
 20
-44.33756729740418
 11
416.6666666666638
 21
-44.33756729740356
  0
LINE
  5
95
100
AcDbEntity
  8
tile
  6
ByLayer
 62
  256
370
   -1
100
AcDbLine
 10
516.6666666666654
 20
13.39745962155991
 11
533.3333333333294
 21
42.26497308103545
  0
LINE
  5
96
100
AcDbEntity
  8
tile
  6
ByLayer
 62
  256
370
   -1
100
AcDbLine
 10
233.3333333333305
 20
330.9401076758454
 11
266.6666666666673
 21
273.2050807568793
  0
LINE
  5
97
100
AcDbEntity
  8
tile
  6
ByLayer
 62
  256
370
   -1
100
AcDbLine
 10
266.6666666666673
 20
273.2050807568793
 11
183.3333333333356
 21
128.8675134594812
  0
LINE
  5
98
100
AcDbEntity
  8
tile
  6
ByLayer
 62
  256
370
   -1
100
AcDbLine
 10
183.3333333333356
 20
128.8675134594812
 11
116.6666666666666
 21
128.8675134594812
  0
LINE
  5
99
100
AcDbEntity
  8
tile
  6
ByLayer
 62
  256
370
   -1
100
AcDbLine
 10
116.6666666666826
 20
71.13248654051398
 11
183.3333333333455
 21
71.13248654051523
  0
LINE
  5
9A
100
AcDbEntity
  8
tile
  6
ByLayer
 62
  256
370
   -1
100
AcDbLine
 10
183.3333333333455
 20
71.13248654051523
 11
266.6666666666717
 21
-73.20508075687233
  0
LINE
  5
9B
100
AcDbEntity
  8
tile
  6
ByLayer
 62
  256
370
   -1
100
AcDbLine
 10
266.6666666666717
 20
-73.20508075687233
 11
233.3333333333308
 21
-130.9401076758459
  0
LINE
  5
9C
100
AcDbEntity
  8
tile
  6
ByLayer
 62
  256
370
   -1
100
AcDbLine
 10
283.3333333333273
 20
-159.8076211353292
 11
316.666666666662
 21
-102.072594216367
  0
LINE
  5
9D
100
AcDbEntity
  8
tile
  6
ByLayer
 62
  256
370
   -1
100
AcDbLine
 10
316.666666666662
 20
-102.072594216367
 11
483.3333333333359
 21
-102.0725942163639
  0
LINE
  5
9E
100
AcDbEntity
  8
tile
  6
ByLayer
 62
  256
370
   -1
100
AcDbLine
 10
483.3333333333359
 20
-102.0725942163639
 11
516.6666666666737
 21
-159.8076211353315
  0
LINE
  5
9F
100
AcDbEntity
  8
tile
  6
ByLayer
 62
  256
370
   -1
100
AcDbLine
 10
566.666666666664
 20
-130.94010767584
 11
533.333333333331
 21
-73.20508075688055
  0
LINE
  5
A0
100
AcDbEntity
  8
tile
  6
ByLayer
 62
  256
370
   -1
100
AcDbLine
 10
533.333333333331
 20
-73.20508075688055
 11
616.6666666666667
 21
71.13248654052336
  0
LINE
  5
A1
100
AcDbEntity
  8
tile
  6
ByLayer
 62
  256
370
   -1
100
AcDbLine
 10
616.6666666666667
 20
71.13248654052336
 11
683.3333333333336
 21
71.13248654052461
  0
LINE
  5
A2
100
AcDbEntity
  8
tile
  6
ByLayer
 62
  256
370
   -1
100
AcDbLine
 10
683.3333333333178
 20
128.8675134594812
 11
616.6666666666541
 21
128.8675134594812
  0
LINE
  5
A3
100
AcDbEntity
  8
tile
  6
ByLayer
 62
  256
370
   -1
100
AcDbLine
 10
616.6666666666541
 20
128.8675134594812
 11
533.3333333333273
 21
273.2050807568698
  0
LINE
  5
A4
100
AcDbEntity
  8
tile
  6
ByLayer
 62
  256
370
   -1
100
AcDbLine
 10
533.3333333333273
 20
273.2050807568698
 11
566.6666666666591
 21
330.940107675827
  0
LINE
  5
A5
100
AcDbEntity
  8
tile
  6
ByLayer
 62
  256
370
   -1
100
AcDbLine
 10
516.6666666666704
 20
359.8076211353275
 11
483.3333333333362
 21
302.0725942163659
  0
LINE
  5
A6
100
AcDbEntity
  8
tile
  6
ByLayer
 62
  256
370
   -1
100
AcDbLine
 10
483.3333333333362
 20
302.0725942163659
 11
316.6666666666604
 21
302.0725942163659
  0
LINE
  5
A7
100
AcDbEntity
  8
tile
  6
ByLayer
 62
  256
370
   -1
100
AcDbLine
 10
316.6666666666604
 20
302.0725942163659
 11
283.3333333333261
 21
359.8076211353275
  0
LINE
  5
A8
100
AcDbEntity
  8
tile
  6
ByLayer
 62
  256
370
   -1
100
AcDbLine
 10
483.3333333333219
 20
244.3375672974043
 11
316.6666666666699
 21
244.3375672974043
  0
LINE
  5
A9
100
AcDbEntity
  8
tile
  6
ByLayer
 62
  256
370
   -1
100
AcDbLine
 10
316.6666666666699
 20
244.3375672974043
 11
233.3333333333371
 21
100.0000000000045
  0
LINE
  5
AA
100
AcDbEntity
  8
tile
  6
ByLayer
 62
  256
370
   -1
100
AcDbLine
 10
233.3333333333371
 20
100.0000000000045
 11
316.6666666666762
 21
-44.33756729740544
  0
LINE
  5
AB
100
AcDbEntity
  8
tile
  6
ByLayer
 62
  256
370
   -1
100
AcDbLine
 10
316.6666666666762
 20
-44.33756729740544
 11
483.3333333333306
 21
-44.3375672974023
  0
LINE
  5
AC
100
AcDbEntity
  8
tile
  6
ByLayer
 62
  256
370
   -1
100
AcDbLine
 10
483.3333333333306
 20
-44.3375672974023
 11
566.6666666666616
 21
99.99999999999338
  0
LINE
  5
AD
100
AcDbEntity
  8
tile
  6
ByLayer
 62
  256
370
   -1
100
AcDbLine
 10
566.6666666666616
 20
99.99999999999338
 11
483.3333333333219
 21
244.3375672974043
  0
LINE
  5
AE
100
AcDbEntity
  8
helper2
  6
ByLayer
 62
  256
370
   -1
100
AcDbLine
 10
266.6666666666673
 20
273.2050807568793
 11
533.3333333333273
 21
273.2050807568698
  0
LINE
  5
AF
100
AcDbEntity
  8
helper2
  6
ByLayer
 62
  256
370
   -1
100
AcDbLine
 10
483.3333333333362
 20
302.0725942163659
 11
616.6666666666667
 21
71.13248654052336
  0
LINE
  5
B0
100
AcDbEntity
  8
helper2
  6
ByLayer
 62
  256
370
   -1
100
AcDbLine
 10
616.6666666666541
 20
128.8675134594812
 11
483.3333333333359
 21
-102.0725942163639
  0
LINE
  5
B1
100
AcDbEntity
  8
helper2
  6
ByLayer
 62
  256
370
   -1
100
AcDbLine
 10
533.333333333331
 20
-73.20508075688055
 11
266.6666666666717
 21
-73.20508075687233
  0
LINE
  5
B2
100
AcDbEntity
  8
helper2
  6
ByLayer
 62
  256
370
   -1
100
AcDbLine
 10
316.6666666666619
 20
-102.072594216367
 11
183.3333333333356
 21
128.8675134594812
  0
LINE
  5
B3
100
AcDbEntity
  8
helper2
  6
ByLayer
 62
  256
370
   -1
100
AcDbLine
 10
183.3333333333455
 20
71.13248654051523
 11
316.6666666666604
 21
302.0725942163659
  0
LINE
  5
B4
100
AcDbEntity
  8
helper2
  6
ByLayer
 62
  256
370
   -1
100
AcDbLine
 10
100.0000000000045
 20
100.0000000000078
 11
699.9999999999914
 21
99.99999999998921
  0
LINE
  5
B5
100
AcDbEntity
  8
helper2
  6
ByLayer
 62
  256
370
   -1
100
AcDbLine
 10
250.0000000000066
 20
-159.8076211353431
 11
549.9999999999807
 21
359.8076211353275
  0
LINE
  5
B6
100
AcDbEntity
  8
helper2
  6
ByLayer
 62
  256
370
   -1
100
AcDbLine
 10
549.9999999999974
 20
-159.8076211353315
 11
250.0000000000057
 21
359.8076211353275
  0
LINE
  5
B7
100
AcDbEntity
  8
helper2
  6
ByLayer
 62
  256
370
   -1
100
AcDbLine
 10
300.0000000000001
 20
273.2050807568916
 11
266.6666666666673
 21
273.2050807568793
  0
LINE
  5
B8
100
AcDbEntity
  8
helper2
  6
ByLayer
 62
  256
370
   -1
100
AcDbLine
 10
183.3333333333356
 20
128.8675134594812
 11
200.0000000000146
 21
100.0000000000047
  0
LINE
  5
B9
100
AcDbEntity
  8
helper2
  6
ByLayer
 62
  256
370
   -1
100
AcDbLine
 10
191.6666666666751
 20
114.433756729743
 11
283.3333333333337
 21
273.2050807568854
  0
LINE
  5
BA
100
AcDbEntity
  8
helper2
  6
ByLayer
 62
  256
370
   -1
100
AcDbLine
 10
316.6666666666699
 20
244.3375672974043
 11
300.000000000008
 21
273.205080756878
  0
LINE
  5
BB
100
AcDbEntity
  8
helper2
  6
ByLayer
 62
  256
370
   -1
100
AcDbLine
 10
233.3333333333371
 20
100.0000000000045
 11
200.0000000000146
 21
100.0000000000047
  0
LINE
  5
BC
100
AcDbEntity
  8
helper2
  6
ByLayer
 62
  256
370
   -1
100
AcDbLine
 10
216.6666666666758
 20
100.0000000000046
 11
308.3333333333389
 21
258.7713240271412
  0
LINE
  5
BD
100
AcDbEntity
  8
helper2
  6
ByLayer
 62
  256
370
   -1
100
AcDbLine
 10
316.6666666666604
 20
302.0725942163659
 11
300.0000000000001
 21
273.2050807568916
  0
LINE
  5
BE
100
AcDbEntity
  8
helper2
  6
ByLayer
 62
  256
370
   -1
100
AcDbLine
 10
300.0000000000001
 20
273.2050807568916
 11
316.6666666666698
 21
244.3375672974043
  0
LINE
  5
BF
100
AcDbEntity
  8
helper2
  6
ByLayer
 62
  256
370
   -1
100
AcDbLine
 10
483.3333333333362
 20
302.0725942163659
 11
499.9999999999947
 21
273.2050807568992
  0
LINE
  5
C0
100
AcDbEntity
  8
helper2
  6
ByLayer
 62
  256
370
   -1
100
AcDbLine
 10
499.9999999999947
 20
273.2050807568992
 11
483.3333333333219
 21
244.3375672974044
  0
LINE
  5
C1
100
AcDbEntity
  8
helper2
  6
ByLayer
 62
  256
370
   -1
100
AcDbLine
 10
533.3333333333273
 20
273.2050807568698
 11
499.9999999999947
 21
273.2050807568992
  0
LINE
  5
C2
100
AcDbEntity
  8
helper2
  6
ByLayer
 62
  256
370
   -1
100
AcDbLine
 10
616.6666666666541
 20
128.8675134594812
 11
599.9999999999957
 21
100.0000000000116
  0
LINE
  5
C3
100
AcDbEntity
  8
helper2
  6
ByLayer
 62
  256
370
   -1
100
AcDbLine
 10
599.9999999999957
 20
100.0000000000116
 11
616.6666666666667
 21
71.13248654052336
  0
LINE
  5
C4
100
AcDbEntity
  8
helper2
  6
ByLayer
 62
  256
370
   -1
100
AcDbLine
 10
599.9999999999957
 20
100.0000000000118
 11
566.6666666666616
 21
99.99999999999338
  0
LINE
  5
C5
100
AcDbEntity
  8
helper2
  6
ByLayer
 62
  256
370
   -1
100
AcDbLine
 10
483.3333333333302
 20
-44.33756729740315
 11
499.9999999999936
 21
-73.2050807568795
  0
LINE
  5
C6
100
AcDbEntity
  8
helper2
  6
ByLayer
 62
  256
370
   -1
100
AcDbLine
 10
499.9999999999936
 20
-73.2050807568795
 11
533.333333333331
 21
-73.20508075688055
  0
LINE
  5
C7
100
AcDbEntity
  8
helper2
  6
ByLayer
 62
  256
370
   -1
100
AcDbLine
 10
499.9999999999936
 20
-73.2050807568795
 11
483.3333333333359
 21
-102.0725942163639
  0
LINE
  5
C8
100
AcDbEntity
  8
helper2
  6
ByLayer
 62
  256
370
   -1
100
AcDbLine
 10
316.666666666662
 20
-102.072594216367
 11
300.0000000000165
 21
-73.20508075687337
  0
LINE
  5
C9
100
AcDbEntity
  8
helper2
  6
ByLayer
 62
  256
370
   -1
100
AcDbLine
 10
300.0000000000165
 20
-73.20508075687337
 11
316.6666666666762
 21
-44.33756729740544
  0
LINE
  5
CA
100
AcDbEntity
  8
helper2
  6
ByLayer
 62
  256
370
   -1
100
AcDbLine
 10
266.6666666666717
 20
-73.20508075687232
 11
299.9999999999888
 21
-73.20508075687334
  0
LINE
  5
CB
100
AcDbEntity
  8
helper2
  6
ByLayer
 62
  256
370
   -1
100
AcDbLine
 10
183.3333333333455
 20
71.13248654051523
 11
200.0000000000067
 21
99.99999999999098
  0
LINE
  5
CC
100
AcDbEntity
  8
helper2
  6
ByLayer
 62
  256
370
   -1
100
AcDbLine
 10
191.6666666666761
 20
85.5662432702531
 11
283.3333333333303
 21
-73.20508075687283
  0
LINE
  5
CD
100
AcDbEntity
  8
helper2
  6
ByLayer
 62
  256
370
   -1
100
AcDbLine
 10
216.6666666666756
 20
100.0000000000042
 11
308.3333333333463
 21
-58.7713240271394
  0
LINE
  5
CE
100
AcDbEntity
  8
helper2
  6
ByLayer
 62
  256
370
   -1
100
AcDbLine
 10
308.3333333333463
 20
-58.7713240271394
 11
491.6666666666619
 21
-58.77132402714133
  0
LINE
  5
CF
100
AcDbEntity
  8
helper2
  6
ByLayer
 62
  256
370
   -1
100
AcDbLine
 10
308.3333333333392
 20
-87.63883748662019
 11
491.6666666666648
 21
-87.63883748662168
  0
LINE
  5
D0
100
AcDbEntity
  8
helper2
  6
ByLayer
 62
  256
370
   -1
100
AcDbLine
 10
491.6666666666619
 20
-58.77132402714133
 11
583.3333333333287
 21
100.0000000000026
  0
LINE
  5
D1
100
AcDbEntity
  8
helper2
  6
ByLayer
 62
  256
370
   -1
100
AcDbLine
 10
583.3333333333287
 20
100.0000000000026
 11
491.6666666666583
 21
258.7713240271518
  0
LINE
  5
D2
100
AcDbEntity
  8
helper2
  6
ByLayer
 62
  256
370
   -1
100
AcDbLine
 10
491.6666666666583
 20
258.7713240271518
 11
308.333333333335
 21
258.771324027148
  0
LINE
  5
D3
100
AcDbEntity
  8
helper2
  6
ByLayer
 62
  256
370
   -1
100
AcDbLine
 10
308.3333333333302
 20
287.6388374866287
 11
491.6666666666654
 21
287.6388374866325
  0
LINE
  5
D4
100
AcDbEntity
  8
helper2
  6
ByLayer
 62
  256
370
   -1
100
AcDbLine
 10
516.6666666666611
 20
273.2050807568845
 11
608.3333333333248
 21
114.4337567297464
  0
LINE
  5
D5
100
AcDbEntity
  8
helper2
  6
ByLayer
 62
  256
370
   -1
100
AcDbLine
 10
608.3333333333312
 20
85.56624327026748
 11
516.6666666666623
 21
-73.20508075688002
  0
LINE
  5
D6
100
AcDbEntity
  8
helper2
  6
ByLayer
 62
  256
370
   -1
100
AcDbLine
 10
250.0000000000066
 20
-159.8076211353431
 11
283.3333333333259
 21
-159.8076211353316
  0
LINE
  5
D7
100
AcDbEntity
  8
helper2
  6
ByLayer
 62
  256
370
   -1
100
AcDbLine
 10
233.3333333333307
 20
-130.9401076758459
 11
250.0000000000066
 21
-159.8076211353432
  0
LINE
  5
D8
100
AcDbEntity
  8
helper2
  6
ByLayer
 62
  256
370
   -1
100
AcDbLine
 10
116.6666666666694
 20
71.13248654051398
 11
100.0000000000045
 21
100.0000000000078
  0
LINE
  5
D9
100
AcDbEntity
  8
helper2
  6
ByLayer
 62
  256
370
   -1
100
AcDbLine
 10
100.0000000000045
 20
100.0000000000078
 11
116.6666666666666
 21
128.8675134594812
  0
LINE
  5
DA
100
AcDbEntity
  8
helper2
  6
ByLayer
 62
  256
370
   -1
100
AcDbLine
 10
250.0000000000057
 20
359.8076211353275
 11
233.3333333333305
 21
330.9401076758454
  0
LINE
  5
DB
100
AcDbEntity
  8
helper2
  6
ByLayer
 62
  256
370
   -1
100
AcDbLine
 10
250.0000000000057
 20
359.8076211353275
 11
283.3333333333237
 21
359.8076211353317
  0
LINE
  5
DC
100
AcDbEntity
  8
helper2
  6
ByLayer
 62
  256
370
   -1
100
AcDbLine
 10
516.6666666666704
 20
359.8076211353275
 11
549.9999999999807
 21
359.8076211353275
  0
LINE
  5
DD
100
AcDbEntity
  8
helper2
  6
ByLayer
 62
  256
370
   -1
100
AcDbLine
 10
549.9999999999807
 20
359.8076211353275
 11
566.6666666666697
 21
330.9401076758451
  0
LINE
  5
DE
100
AcDbEntity
  8
helper2
  6
ByLayer
 62
  256
370
   -1
100
AcDbLine
 10
683.3333333333335
 20
128.8675134594812
 11
699.9999999999914
 21
99.99999999998921
  0
LINE
  5
DF
100
AcDbEntity
  8
helper2
  6
ByLayer
 62
  256
370
   -1
100
AcDbLine
 10
699.9999999999914
 20
99.99999999998921
 11
683.3333333333368
 21
71.13248654052461
  0
LINE
  5
E0
100
AcDbEntity
  8
helper2
  6
ByLayer
 62
  256
370
   -1
100
AcDbLine
 10
566.666666666664
 20
-130.94010767584
 11
549.9999999999974
 21
-159.8076211353315
  0
LINE
  5
E1
100
AcDbEntity
  8
helper2
  6
ByLayer
 62
  256
370
   -1
100
AcDbLine
 10
549.9999999999974
 20
-159.8076211353315
 11
516.6666666666737
 21
-159.8076211353315
  0
LINE
  5
E2
100
AcDbEntity
  8
helper2
  6
ByLayer
 62
  256
370
   -1
100
AcDbLine
 10
108.3333333333356
 20
114.4337567297445
 11
191.6666666666751
 21
114.433756729743
  0
LINE
  5
E3
100
AcDbEntity
  8
helper2
  6
ByLayer
 62
  256
370
   -1
100
AcDbLine
 10
108.333333333337
 20
85.5662432702609
 11
191.6666666666761
 21
85.56624327025311
  0
LINE
  5
E4
100
AcDbEntity
  8
helper2
  6
ByLayer
 62
  256
370
   -1
100
AcDbLine
 10
241.666666666668
 20
345.3738644055865
 11
283.3333333333338
 21
273.2050807568855
  0
LINE
  5
E5
100
AcDbEntity
  8
helper2
  6
ByLayer
 62
  256
370
   -1
100
AcDbLine
 10
266.6666666666647
 20
359.8076211353296
 11
308.3333333333302
 21
287.6388374866287
  0
LINE
  5
E6
100
AcDbEntity
  8
helper2
  6
ByLayer
 62
  256
370
   -1
100
AcDbLine
 10
533.3333333333255
 20
359.8076211353275
 11
491.6666666666655
 21
287.6388374866325
  0
LINE
  5
E7
100
AcDbEntity
  8
helper2
  6
ByLayer
 62
  256
370
   -1
100
AcDbLine
 10
558.3333333333252
 20
345.3738644055863
 11
516.6666666666612
 21
273.2050807568845
  0
LINE
  5
E8
100
AcDbEntity
  8
helper2
  6
ByLayer
 62
  256
370
   -1
100
AcDbLine
 10
691.6666666666624
 20
114.4337567297352
 11
608.3333333333248
 21
114.4337567297464
  0
LINE
  5
E9
100
AcDbEntity
  8
helper2
  6
ByLayer
 62
  256
370
   -1
100
AcDbLine
 10
691.666666666664
 20
85.5662432702569
 11
608.3333333333312
 21
85.56624327026748
  0
LINE
  5
EA
100
AcDbEntity
  8
helper2
  6
ByLayer
 62
  256
370
   -1
100
AcDbLine
 10
516.6666666666623
 20
-73.20508075688004
 11
558.3333333333308
 21
-145.3738644055858
  0
LINE
  5
EB
100
AcDbEntity
  8
helper2
  6
ByLayer
 62
  256
370
   -1
100
AcDbLine
 10
491.6666666666694
 20
-87.6388374866217
 11
533.3333333333355
 21
-159.8076211353315
  0
LINE
  5
EC
100
AcDbEntity
  8
helper2
  6
ByLayer
 62
  256
370
   -1
100
AcDbLine
 10
308.3333333333254
 20
-87.63883748662019
 11
266.6666666666663
 21
-159.8076211353374
  0
LINE
  5
ED
100
AcDbEntity
  8
helper2
  6
ByLayer
 62
  256
370
   -1
100
AcDbLine
 10
283.3333333333303
 20
-73.20508075687283
 11
241.6666666666686
 21
-145.3738644055945
  0
LINE
  5
EE
100
AcDbEntity
  8
helper2
  6
ByLayer
 62
  256
370
   -1
100
AcDbLine
 10
116.6666666666666
 20
128.8675134594812
 11
116.6666666666694
 21
71.13248654051398
  0
LINE
  5
EF
100
AcDbEntity
  8
helper2
  6
ByLayer
 62
  256
370
   -1
100
AcDbLine
 10
183.3333333333356
 20
128.8675134594812
 11
183.3333333333455
 21
71.13248654051523
  0
LINE
  5
F0
100
AcDbEntity
  8
helper2
  6
ByLayer
 62
  256
370
   -1
100
AcDbLine
 10
183.3333333333356
 20
128.8675134594812
 11
233.3333333333371
 21
100.0000000000045
  0
LINE
  5
F1
100
AcDbEntity
  8
helper2
  6
ByLayer
 62
  256
370
   -1
100
AcDbLine
 10
233.3333333333375
 20
100.0000000000037
 11
183.3333333333455
 21
71.13248654051523
  0
LINE
  5
F2
100
AcDbEntity
  8
helper2
  6
ByLayer
 62
  256
370
   -1
100
AcDbLine
 10
316.666666666675
 20
-44.33756729740334
 11
266.6666666666717
 21
-73.20508075687232
  0
LINE
  5
F3
100
AcDbEntity
  8
helper2
  6
ByLayer
 62
  256
370
   -1
100
AcDbLine
 10
266.6666666666717
 20
-73.20508075687232
 11
316.666666666662
 21
-102.072594216367
  0
LINE
  5
F4
100
AcDbEntity
  8
helper2
  6
ByLayer
 62
  256
370
   -1
100
AcDbLine
 10
316.666666666662
 20
-102.072594216367
 11
316.666666666675
 21
-44.33756729740333
  0
LINE
  5
F5
100
AcDbEntity
  8
helper2
  6
ByLayer
 62
  256
370
   -1
100
AcDbLine
 10
483.3333333333302
 20
-44.33756729740315
 11
483.3333333333359
 21
-102.0725942163639
  0
LINE
  5
F6
100
AcDbEntity
  8
helper2
  6
ByLayer
 62
  256
370
   -1
100
AcDbLine
 10
483.3333333333359
 20
-102.0725942163639
 11
533.333333333331
 21
-73.20508075688059
  0
LINE
  5
F7
100
AcDbEntity
  8
helper2
  6
ByLayer
 62
  256
370
   -1
100
AcDbLine
 10
533.333333333331
 20
-73.20508075688059
 11
483.3333333333306
 21
-44.3375672974023
  0
LINE
  5
F8
100
AcDbEntity
  8
helper2
  6
ByLayer
 62
  256
370
   -1
100
AcDbLine
 10
566.6666666666616
 20
99.99999999999338
 11
616.165807537297
 21
128
  0
LINE
  5
F9
100
AcDbEntity
  8
helper2
  6
ByLayer
 62
  256
370
   -1
100
AcDbLine
 10
616.165807537297
 20
128
 11
616.6666666666667
 21
71.13248654052336
  0
LINE
  5
FA
100
AcDbEntity
  8
helper2
  6
ByLayer
 62
  256
370
   -1
100
AcDbLine
 10
616.6666666666667
 20
71.13248654052336
 11
566.6666666666616
 21
99.99999999999328
  0
LINE
  5
FB
100
AcDbEntity
  8
helper2
  6
ByLayer
 62
  256
370
   -1
100
AcDbLine
 10
533.3333333333273
 20
273.2050807568698
 11
483.3333333333219
 21
244.3375672974044
  0
LINE
  5
FC
100
AcDbEntity
  8
helper2
  6
ByLayer
 62
  256
370
   -1
100
AcDbLine
 10
483.3333333333219
 20
244.3375672974044
 11
483.3333333333362
 21
302.0725942163659
  0
LINE
  5
FD
100
AcDbEntity
  8
helper2
  6
ByLayer
 62
  256
370
   -1
100
AcDbLine
 10
483.3333333333362
 20
302.0725942163659
 11
533.3333333333273
 21
273.2050807568698
  0
LINE
  5
FE
100
AcDbEntity
  8
helper2
  6
ByLayer
 62
  256
370
   -1
100
AcDbLine
 10
316.6666666666604
 20
302.0725942163659
 11
316.6666666666699
 21
244.3375672974043
  0
LINE
  5
FF
100
AcDbEntity
  8
helper2
  6
ByLayer
 62
  256
370
   -1
100
AcDbLine
 10
316.6666666666699
 20
244.3375672974043
 11
266.6666666666673
 21
273.2050807568792
  0
LINE
  5
100
100
AcDbEntity
  8
helper2
  6
ByLayer
 62
  256
370
   -1
100
AcDbLine
 10
266.6666666666673
 20
273.2050807568792
 11
316.6666666666604
 21
302.0725942163659
  0
LINE
  5
101
100
AcDbEntity
  8
helper2
  6
ByLayer
 62
  256
370
   -1
100
AcDbLine
 10
233.3333333333305
 20
330.9401076758454
 11
283.3333333333261
 21
359.8076211353275
  0
LINE
  5
102
100
AcDbEntity
  8
helper2
  6
ByLayer
 62
  256
370
   -1
100
AcDbLine
 10
516.6666666666727
 20
359.8076211353316
 11
566.6666666666697
 21
330.9401076758451
  0
LINE
  5
103
100
AcDbEntity
  8
helper2
  6
ByLayer
 62
  256
370
   -1
100
AcDbLine
 10
683.3333333333335
 20
128.8675134594812
 11
683.3333333333368
 21
71.13248654052461
  0
LINE
  5
104
100
AcDbEntity
  8
helper2
  6
ByLayer
 62
  256
370
   -1
100
AcDbLine
 10
566.6666666666682
 20
-130.9401076758473
 11
516.6666666666737
 21
-159.8076211353315
  0
LINE
  5
105
100
AcDbEntity
  8
helper2
  6
ByLayer
 62
  256
370
   -1
100
AcDbLine
 10
283.3333333333273
 20
-159.8076211353292
 11
233.3333333333308
 21
-130.9401076758459
  0
LINE
  5
106
100
AcDbEntity
  8
tile
  6
ByLayer
 62
  256
370
   -1
100
AcDbLine
 10
245.8333333333336
 20
338.1569860407182
 11
279.1666666666688
 21
280.4219591217528
  0
LINE
  5
107
100
AcDbEntity
  8
tile
  6
ByLayer
 62
  256
370
   -1
100
AcDbLine
 10
291.6666666666704
 20
287.6388374866263
 11
258.3333333333364
 21
345.3738644055911
  0
LINE
  5
108
100
AcDbEntity
  8
tile
  6
ByLayer
 62
  256
370
   -1
100
AcDbLine
 10
270.8333333333313
 20
352.5907427704593
 11
304.1666666666653
 21
294.855715851496
  0
LINE
  5
109
100
AcDbEntity
  8
tile
  6
ByLayer
 62
  256
370
   -1
100
AcDbLine
 10
495.8333333333277
 20
294.8557158514955
 11
529.1666666666636
 21
352.5907427704649
  0
LINE
  5
10A
100
AcDbEntity
  8
tile
  6
ByLayer
 62
  256
370
   -1
100
AcDbLine
 10
541.6666666666546
 20
345.3738644055981
 11
508.3333333333188
 21
287.6388374866253
  0
LINE
  5
10B
100
AcDbEntity
  8
tile
  6
ByLayer
 62
  256
370
   -1
100
AcDbLine
 10
520.8333333333234
 20
280.4219591217474
 11
554.166666666662
 21
338.1569860407217
  0
LINE
  5
10C
100
AcDbEntity
  8
tile
  6
ByLayer
 62
  256
370
   -1
100
AcDbLine
 10
616.2852918681531
 20
114.4337567297453
 11
683.3333333333344
 21
114.4337567297363
  0
LINE
  5
10D
100
AcDbEntity
  8
tile
  6
ByLayer
 62
  256
370
   -1
100
AcDbLine
 10
683.3333333333352
 20
99.99999999998973
 11
616.4124168009911
 21
99.9999999999918
  0
LINE
  5
10E
100
AcDbEntity
  8
tile
  6
ByLayer
 62
  256
370
   -1
100
AcDbLine
 10
683.333333333336
 20
85.56624327025796
 11
616.5395417338287
 21
85.56624327026644
  0
LINE
  5
10F
100
AcDbEntity
  8
tile
  6
ByLayer
 62
  256
370
   -1
100
AcDbLine
 10
520.8333333333303
 20
-80.42195912175254
 11
554.1666666666667
 21
-138.1569860407201
  0
LINE
  5
110
100
AcDbEntity
  8
tile
  6
ByLayer
 62
  256
370
   -1
100
AcDbLine
 10
541.6666666666653
 20
-145.3738644055927
 11
508.3333333333294
 21
-87.6388374866246
  0
LINE
  5
111
100
AcDbEntity
  8
tile
  6
ByLayer
 62
  256
370
   -1
100
AcDbLine
 10
495.8333333333358
 20
-94.85571585149241
 11
529.1666666666697
 21
-152.590742770462
  0
LINE
  5
112
100
AcDbEntity
  8
tile
  6
ByLayer
 62
  256
370
   -1
100
AcDbLine
 10
183.3333333333381
 20
114.4337567297431
 11
116.6666666666673
 21
114.4337567297444
  0
LINE
  5
113
100
AcDbEntity
  8
tile
  6
ByLayer
 62
  256
370
   -1
100
AcDbLine
 10
116.666666666668
 20
100.0000000000073
 11
183.3333333333406
 21
100.0000000000052
  0
LINE
  5
114
100
AcDbEntity
  8
tile
  6
ByLayer
 62
  256
370
   -1
100
AcDbLine
 10
183.333333333343
 20
85.56624327025389
 11
116.6666666666687
 21
85.56624327026012
  0
LINE
  5
115
100
AcDbEntity
  8
tile
  6
ByLayer
 62
  256
370
   -1
100
AcDbLine
 10
279.166666666665
 20
-80.42195912174351
 11
245.833333333336
 21
-138.1569860407203
  0
LINE
  5
116
100
AcDbEntity
  8
tile
  6
ByLayer
 62
  256
370
   -1
100
AcDbLine
 10
258.333333333343
 20
-145.3738644055956
 11
291.6666666666773
 21
-87.63883748662566
  0
LINE
  5
117
100
AcDbEntity
  8
tile
  6
ByLayer
 62
  256
370
   -1
100
AcDbLine
 10
304.1666666666601
 20
-94.85571585149087
 11
270.8333333333344
 21
-152.590742770462
  0
LINE
  5
118
100
AcDbEntity
  8
tile
  6
ByLayer
 62
  256
370
   -1
100
AcDbLine
 10
316.6666666666718
 20
-58.77132402713949
 11
483.3333333333316
 21
-58.77132402714125
  0
LINE
  5
119
100
AcDbEntity
  8
tile
  6
ByLayer
 62
  256
370
   -1
100
AcDbLine
 10
483.333333333333
 20
-73.205080756879
 11
316.6666666666686
 21
-73.20508075687387
  0
LINE
  5
11A
100
AcDbEntity
  8
tile
  6
ByLayer
 62
  256
370
   -1
100
AcDbLine
 10
316.6666666666653
 20
-87.63883748662026
 11
483.3333333333345
 21
-87.63883748662161
  0
LINE
  5
11B
100
AcDbEntity
  8
tile
  6
ByLayer
 62
  256
370
   -1
100
AcDbLine
 10
495.8333333333288
 20
-51.55444566227074
 11
579.1666666666594
 21
92.78312163512784
  0
LINE
  5
11C
100
AcDbEntity
  8
tile
  6
ByLayer
 62
  256
370
   -1
100
AcDbLine
 10
591.666666666658
 20
85.56624327026192
 11
508.3333333333331
 21
-58.77132402714281
  0
LINE
  5
11D
100
AcDbEntity
  8
tile
  6
ByLayer
 62
  256
370
   -1
100
AcDbLine
 10
604.166666666662
 20
78.34936490539289
 11
520.8333333333289
 21
-65.98820239200988
  0
LINE
  5
11E
100
AcDbEntity
  8
tile
  6
ByLayer
 62
  256
370
   -1
100
AcDbLine
 10
604.3573540659128
 20
121.3203548307445
 11
520.8333333333321
 21
265.988202392007
  0
LINE
  5
11F
100
AcDbEntity
  8
tile
  6
ByLayer
 62
  256
370
   -1
100
AcDbLine
 10
508.3333333333364
 20
258.771324027144
 11
591.7937915995024
 21
114.2135698871645
  0
LINE
  5
120
100
AcDbEntity
  8
tile
  6
ByLayer
 62
  256
370
   -1
100
AcDbLine
 10
579.2302291330819
 20
107.1067849435789
 11
495.8333333333291
 21
251.5544456622742
  0
LINE
  5
121
100
AcDbEntity
  8
tile
  6
ByLayer
 62
  256
370
   -1
100
AcDbLine
 10
483.3333333333325
 20
287.6388374866323
 11
316.6666666666628
 21
287.6388374866289
  0
LINE
  5
122
100
AcDbEntity
  8
tile
  6
ByLayer
 62
  256
370
   -1
100
AcDbLine
 10
483.333333333329
 20
273.2050807568716
 11
316.6666666666652
 21
273.2050807568775
  0
LINE
  5
123
100
AcDbEntity
  8
tile
  6
ByLayer
 62
  256
370
   -1
100
AcDbLine
 10
316.6666666666675
 20
258.7713240271482
 11
483.3333333333254
 21
258.7713240271516
  0
LINE
  5
124
100
AcDbEntity
  8
tile
  6
ByLayer
 62
  256
370
   -1
100
AcDbLine
 10
304.1666666666724
 20
251.5544456622713
 11
220.8333333333406
 21
107.2168783648714
  0
LINE
  5
125
100
AcDbEntity
  8
tile
  6
ByLayer
 62
  256
370
   -1
100
AcDbLine
 10
208.3333333333431
 20
114.433756729739
 11
291.6666666666641
 21
258.7713240271444
  0
LINE
  5
126
100
AcDbEntity
  8
tile
  6
ByLayer
 62
  256
370
   -1
100
AcDbLine
 10
279.1666666666654
 20
265.9882023920119
 11
195.8333333333396
 21
121.6506350946099
  0
LINE
  5
127
100
AcDbEntity
  8
tile
  6
ByLayer
 62
  256
370
   -1
100
AcDbLine
 10
220.8333333333428
 20
92.78312163513348
 11
304.1666666666787
 21
-51.55444566226793
  0
LINE
  5
128
100
AcDbEntity
  8
tile
  6
ByLayer
 62
  256
370
   -1
100
AcDbLine
 10
208.3333333333362
 20
85.56624327025638
 11
291.6666666666624
 21
-58.77132402714413
  0
LINE
  5
129
100
AcDbEntity
  8
tile
  6
ByLayer
 62
  256
370
   -1
100
AcDbLine
 10
279.166666666667
 20
-65.98820239200828
 11
195.833333333341
 21
78.34936490538588
  0
LINE
  5
12A
100
AcDbEntity
  8
helper2
  6
ByLayer
 62
  256
370
   -1
100
AcDbLine
 10
225.0000000000051
 20
201.0362971081865
 11
275.0000000000037
 21
172.1687836487048
  0
LINE
  5
12B
100
AcDbEntity
  8
helper2
  6
ByLayer
 62
  256
370
   -1
100
AcDbLine
 10
275.0000000000037
 20
172.1687836487048
 11
316.6666666666698
 21
244.3375672974043
  0
LINE
  5
12C
100
AcDbEntity
  8
helper2
  6
ByLayer
 62
  256
370
   -1
100
AcDbLine
 10
266.6666666666673
 20
273.2050807568792
 11
225.0000000000051
 21
201.0362971081866
  0
LINE
  5
12D
100
AcDbEntity
  8
helper2
  6
ByLayer
 62
  256
370
   -1
100
AcDbLine
 10
245.8333333333362
 20
237.1206889325329
 11
295.8333333333368
 21
208.2531754730546
  0
LINE
  5
12E
100
AcDbEntity
  8
helper2
  6
ByLayer
 62
  256
370
   -1
100
AcDbLine
 10
225.0000000000014
 20
201.0362971081802
 11
183.3333333333356
 21
128.8675134594812
  0
LINE
  5
12F
100
AcDbEntity
  8
helper2
  6
ByLayer
 62
  256
370
   -1
100
AcDbLine
 10
275.0000000000035
 20
172.1687836487044
 11
233.3333333333371
 21
100.0000000000045
  0
LINE
  5
130
100
AcDbEntity
  8
helper2
  6
ByLayer
 62
  256
370
   -1
100
AcDbLine
 10
204.1666666666685
 20
164.9519052838307
 11
254.1666666666703
 21
136.0843918243545
  0
LINE
  5
131
100
AcDbEntity
  8
helper2
  6
ByLayer
 62
  256
370
   -1
100
AcDbLine
 10
299.9999999999932
 20
330.9401076758467
 11
249.9999999999989
 21
302.0725942163623
  0
LINE
  5
132
100
AcDbEntity
  8
helper2
  6
ByLayer
 62
  256
370
   -1
100
AcDbLine
 10
400.0000000000001
 20
302.0725942163659
 11
400.0000000000011
 21
244.3375672974043
  0
LINE
  5
133
100
AcDbEntity
  8
helper2
  6
ByLayer
 62
  256
370
   -1
100
AcDbLine
 10
483.3333333333362
 20
302.0725942163659
 11
399.9999999999983
 21
302.0725942163659
  0
LINE
  5
134
100
AcDbEntity
  8
helper2
  6
ByLayer
 62
  256
370
   -1
100
AcDbLine
 10
399.9999999999983
 20
302.0725942163659
 11
316.6666666666604
 21
302.0725942163659
  0
LINE
  5
135
100
AcDbEntity
  8
helper2
  6
ByLayer
 62
  256
370
   -1
100
AcDbLine
 10
316.6666666666699
 20
244.3375672974043
 11
400.0000000000012
 21
244.3375672974043
  0
LINE
  5
136
100
AcDbEntity
  8
helper2
  6
ByLayer
 62
  256
370
   -1
100
AcDbLine
 10
400.0000000000012
 20
244.3375672974043
 11
483.3333333333219
 21
244.3375672974043
  0
LINE
  5
137
100
AcDbEntity
  8
helper2
  6
ByLayer
 62
  256
370
   -1
100
AcDbLine
 10
441.6666666666673
 20
302.0725942163659
 11
441.6666666666615
 21
244.3375672974043
  0
LINE
  5
138
100
AcDbEntity
  8
helper2
  6
ByLayer
 62
  256
370
   -1
100
AcDbLine
 10
358.3333333333293
 20
302.0725942163659
 11
358.3333333333355
 21
244.3375672974043
  0
LINE
  5
139
100
AcDbEntity
  8
helper2
  6
ByLayer
 62
  256
370
   -1
100
AcDbLine
 10
500.0000000000033
 20
330.9401076758467
 11
549.9999999999932
 21
302.0725942163484
  0
LINE
  5
13A
100
AcDbEntity
  8
helper2
  6
ByLayer
 62
  256
370
   -1
100
AcDbLine
 10
574.9999999999867
 20
201.0362971081823
 11
524.9999999999901
 21
172.1687836487017
  0
LINE
  5
13B
100
AcDbEntity
  8
helper2
  6
ByLayer
 62
  256
370
   -1
100
AcDbLine
 10
533.3333333333273
 20
273.2050807568697
 11
574.9999999999867
 21
201.0362971081824
  0
LINE
  5
13C
100
AcDbEntity
  8
helper2
  6
ByLayer
 62
  256
370
   -1
100
AcDbLine
 10
574.9999999999867
 20
201.0362971081824
 11
616.6666666666541
 21
128.8675134594812
  0
LINE
  5
13D
100
AcDbEntity
  8
helper2
  6
ByLayer
 62
  256
370
   -1
100
AcDbLine
 10
566.6666666666615
 20
99.99999999999334
 11
524.9999999999901
 21
172.1687836487017
  0
LINE
  5
13E
100
AcDbEntity
  8
helper2
  6
ByLayer
 62
  256
370
   -1
100
AcDbLine
 10
524.9999999999901
 20
172.1687836487017
 11
483.3333333333219
 21
244.3375672974043
  0
LINE
  5
13F
100
AcDbEntity
  8
helper2
  6
ByLayer
 62
  256
370
   -1
100
AcDbLine
 10
554.166666666657
 20
237.1206889325261
 11
504.166666666656
 21
208.253175473053
  0
LINE
  5
140
100
AcDbEntity
  8
helper2
  6
ByLayer
 62
  256
370
   -1
100
AcDbLine
 10
595.8333333333204
 20
164.9519052838318
 11
545.8333333333258
 21
136.0843918243475
  0
LINE
  5
141
100
AcDbEntity
  8
helper2
  6
ByLayer
 62
  256
370
   -1
100
AcDbLine
 10
649.9999999999859
 20
128.8675134594812
 11
650.0000000000002
 21
71.13248654052398
  0
LINE
  5
142
100
AcDbEntity
  8
helper2
  6
ByLayer
 62
  256
370
   -1
100
AcDbLine
 10
524.9999999999959
 20
27.83121635129522
 11
574.9999999999943
 21
-1.036297108186481
  0
LINE
  5
143
100
AcDbEntity
  8
helper2
  6
ByLayer
 62
  256
370
   -1
100
AcDbLine
 10
616.6666666666667
 20
71.13248654052335
 11
574.9999999999989
 21
-1.036297108178601
  0
LINE
  5
144
100
AcDbEntity
  8
helper2
  6
ByLayer
 62
  256
370
   -1
100
AcDbLine
 10
574.9999999999989
 20
-1.036297108178601
 11
533.333333333331
 21
-73.20508075688059
  0
LINE
  5
145
100
AcDbEntity
  8
helper2
  6
ByLayer
 62
  256
370
   -1
100
AcDbLine
 10
483.3333333333292
 20
-44.33756729740143
 11
524.9999999999959
 21
27.83121635129523
  0
LINE
  5
146
100
AcDbEntity
  8
helper2
  6
ByLayer
 62
  256
370
   -1
100
AcDbLine
 10
524.9999999999959
 20
27.83121635129523
 11
566.6666666666615
 21
99.99999999999334
  0
LINE
  5
147
100
AcDbEntity
  8
helper2
  6
ByLayer
 62
  256
370
   -1
100
AcDbLine
 10
549.9999999999975
 20
-102.0725942163603
 11
500.0000000000048
 21
-130.9401076758477
  0
LINE
  5
148
100
AcDbEntity
  8
helper2
  6
ByLayer
 62
  256
370
   -1
100
AcDbLine
 10
400.0000000000034
 20
-44.33756729740387
 11
400.0000000000028
 21
-102.0725942163654
  0
LINE
  5
149
100
AcDbEntity
  8
helper2
  6
ByLayer
 62
  256
370
   -1
100
AcDbLine
 10
483.3333333333291
 20
-44.33756729740137
 11
400.0000000000015
 21
-44.33756729740387
  0
LINE
  5
14A
100
AcDbEntity
  8
helper2
  6
ByLayer
 62
  256
370
   -1
100
AcDbLine
 10
400.0000000000015
 20
-44.33756729740387
 11
316.666666666675
 21
-44.33756729740333
  0
LINE
  5
14B
100
AcDbEntity
  8
helper2
  6
ByLayer
 62
  256
370
   -1
100
AcDbLine
 10
316.666666666662
 20
-102.072594216367
 11
400.0000000000028
 21
-102.0725942163654
  0
LINE
  5
14C
100
AcDbEntity
  8
helper2
  6
ByLayer
 62
  256
370
   -1
100
AcDbLine
 10
400.0000000000028
 20
-102.0725942163654
 11
483.3333333333359
 21
-102.0725942163639
  0
LINE
  5
14D
100
AcDbEntity
  8
helper2
  6
ByLayer
 62
  256
370
   -1
100
AcDbLine
 10
299.9999999999947
 20
-130.9401076758481
 11
250.0000000000013
 21
-102.0725942163591
  0
LINE
  5
14E
100
AcDbEntity
  8
helper2
  6
ByLayer
 62
  256
370
   -1
100
AcDbLine
 10
275.0000000000067
 20
27.83121635129955
 11
225.0000000000107
 21
-1.03629710818204
  0
LINE
  5
14F
100
AcDbEntity
  8
helper2
  6
ByLayer
 62
  256
370
   -1
100
AcDbLine
 10
233.3333333333375
 20
100.0000000000037
 11
275.0000000000072
 21
27.83121635129859
  0
LINE
  5
150
100
AcDbEntity
  8
helper2
  6
ByLayer
 62
  256
370
   -1
100
AcDbLine
 10
275.0000000000072
 20
27.83121635129859
 11
316.666666666675
 21
-44.33756729740323
  0
LINE
  5
151
100
AcDbEntity
  8
helper2
  6
ByLayer
 62
  256
370
   -1
100
AcDbLine
 10
266.6666666666717
 20
-73.20508075687232
 11
224.4016935856413
 21
-0
  0
LINE
  5
152
100
AcDbEntity
  8
helper2
  6
ByLayer
 62
  256
370
   -1
100
AcDbLine
 10
224.4016935856413
 20
-0
 11
183.3333333333455
 21
71.13248654051523
  0
LINE
  5
153
100
AcDbEntity
  8
helper2
  6
ByLayer
 62
  256
370
   -1
100
AcDbLine
 10
203.8675134594934
 20
35.56624327025762
 11
254.1666666666724
 21
63.91560817565114
  0
LINE
  5
154
100
AcDbEntity
  8
helper2
  6
ByLayer
 62
  256
370
   -1
100
AcDbLine
 10
295.8333333333411
 20
-8.253175473052323
 11
245.5341801261565
 21
-36.60254037843616
  0
LINE
  5
155
100
AcDbEntity
  8
helper2
  6
ByLayer
 62
  256
370
   -1
100
AcDbLine
 10
150.0000000000011
 20
128.8675134594812
 11
150.0000000000141
 21
71.13248654051461
  0
LINE
  5
156
100
AcDbEntity
  8
tile
  6
ByLayer
 62
  256
370
   -1
100
AcDbLine
 10
316.6666666666699
 20
244.3375672974043
 11
383.3333333333345
 21
128.8675134594818
  0
LINE
  5
157
100
AcDbEntity
  8
tile
  6
ByLayer
 62
  256
370
   -1
100
AcDbLine
 10
483.3333333333219
 20
244.3375672974043
 11
416
 21
128.8675134594812
  0
LINE
  5
158
100
AcDbEntity
  8
tile
  6
ByLayer
 62
  256
370
   -1
100
AcDbLine
 10
566.6666666666615
 20
99.99999999999334
 11
433.3333333333346
 21
99.99999999999748
  0
LINE
  5
159
100
AcDbEntity
  8
tile
  6
ByLayer
 62
  256
370
   -1
100
AcDbLine
 10
483.3333333333291
 20
-44.33756729740137
 11
416.6666666666662
 21
71.13248654051961
  0
LINE
  5
15A
100
AcDbEntity
  8
tile
  6
ByLayer
 62
  256
370
   -1
100
AcDbLine
 10
316.666666666675
 20
-44.33756729740319
 11
383.3333333333333
 21
71.132486540519
  0
LINE
  5
15B
100
AcDbEntity
  8
tile
  6
ByLayer
 62
  256
370
   -1
100
AcDbLine
 10
233.3333333333386
 20
100.0000000000037
 11
366.6666666666665
 21
99.99999999999956
  0
LINE
  5
15C
100
AcDbEntity
  8
tile
  6
ByLayer
 62
  256
370
   -1
100
AcDbLine
 10
350.000000000002
 20
186.6025403784428
 11
383.333333333336
 21
244.3375672974043
  0
LINE
  5
15D
100
AcDbEntity
  8
tile
  6
ByLayer
 62
  256
370
   -1
100
AcDbLine
 10
350.0000000000034
 20
186.6025403784404
 11
283.3333333333371
 21
186.6025403784451
  0
LINE
  5
15E
100
AcDbEntity
  8
tile
  6
ByLayer
 62
  256
370
   -1
100
AcDbLine
 10
416.6666666666663
 20
244.3375672974043
 11
449.9999999999885
 21
186.6025403784359
  0
LINE
  5
15F
100
AcDbEntity
  8
tile
  6
ByLayer
 62
  256
370
   -1
100
AcDbLine
 10
449.9999999999924
 20
186.6025403784428
 11
350.000000000002
 21
186.6025403784428
  0
LINE
  5
160
100
AcDbEntity
  8
tile
  6
ByLayer
 62
  256
370
   -1
100
AcDbLine
 10
449.999999999993
 20
186.6025403784436
 11
516.6666666666566
 21
186.602540378442
  0
LINE
  5
161
100
AcDbEntity
  8
helper2
  6
ByLayer
 62
  256
370
   -1
100
AcDbLine
 10
499.9999999999969
 20
99.99999999999541
 11
466.66666666666
 21
157.7350269189614
  0
LINE
  5
162
100
AcDbEntity
  8
tile
  6
ByLayer
 62
  256
370
   -1
100
AcDbLine
 10
533.3333333333236
 20
157.7350269189615
 11
500.000000000006
 21
99.99999999999542
  0
LINE
  5
163
100
AcDbEntity
  8
tile
  6
ByLayer
 62
  256
370
   -1
100
AcDbLine
 10
533.3333333333294
 20
42.26497308103545
 11
499.9999999999977
 21
99.99999999999541
  0
LINE
  5
164
100
AcDbEntity
  8
tile
  6
ByLayer
 62
  256
370
   -1
100
AcDbLine
 10
283.333333333336
 20
128.8675134594812
 11
383.333333333331
 21
128.8675134594865
  0
LINE
  5
165
100
AcDbEntity
  8
tile
  6
ByLayer
 62
  256
370
   -1
100
AcDbLine
 10
433.3333333333303
 20
215.4700538379151
 11
383.3333333333313
 21
128.867513459486
  0
LINE
  5
166
100
AcDbEntity
  8
tile
  6
ByLayer
 62
  256
370
   -1
100
AcDbLine
 10
416.3349917081317
 20
129.4419913392817
 11
366.6666666666654
 21
215.4700538379173
  0
LINE
  5
167
100
AcDbEntity
  8
tile
  6
ByLayer
 62
  256
370
   -1
100
AcDbLine
 10
516.6666666666664
 20
128.8675134594812
 11
416
 21
128.8675134594812
  0
LINE
  5
168
100
AcDbEntity
  8
tile
  6
ByLayer
 62
  256
370
   -1
100
AcDbLine
 10
433.3333333333316
 20
99.9999999999975
 11
483.3333333333347
 21
186.6025403784428
  0
LINE
  5
169
100
AcDbEntity
  8
tile
  6
ByLayer
 62
  256
370
   -1
100
AcDbLine
 10
433.3333333333321
 20
99.99999999999748
 11
483.333333333331
 21
13.39745962155928
  0
LINE
  5
16A
100
AcDbEntity
  8
helper2
  6
ByLayer
 62
  256
370
   -1
100
AcDbLine
 10
449.9999999999982
 20
13.39745962155822
 11
483.3333333333308
 21
71.13248654051716
  0
LINE
  5
16B
100
AcDbEntity
  8
tile
  6
ByLayer
 62
  256
370
   -1
100
AcDbLine
 10
499.9999999999965
 20
99.99999999999542
 11
449.9999999999982
 21
13.39745962155825
  0
LINE
  5
16C
100
AcDbEntity
  8
tile
  6
ByLayer
 62
  256
370
   -1
100
AcDbLine
 10
449.999999999998
 20
13.39745962155865
 11
516.6666666666654
 21
13.39745962155991
  0
LINE
  5
16D
100
AcDbEntity
  8
tile
  6
ByLayer
 62
  256
370
   -1
100
AcDbLine
 10
516.66666666666
 20
71.13248654052148
 11
416.6666666666726
 21
71.13248654050851
  0
LINE
  5
16E
100
AcDbEntity
  8
tile
  6
ByLayer
 62
  256
370
   -1
100
AcDbLine
 10
416.6666666666638
 20
-44.33756729740356
 11
449.9999999999982
 21
13.39745962155821
  0
LINE
  5
16F
100
AcDbEntity
  8
tile
  6
ByLayer
 62
  256
370
   -1
100
AcDbLine
 10
416.666666666673
 20
71.13248654050786
 11
366.6666666666682
 21
-15.47005383791662
  0
LINE
  5
170
100
AcDbEntity
  8
tile
  6
ByLayer
 62
  256
370
   -1
100
AcDbLine
 10
449.999999999998
 20
13.39745962155865
 11
350.0000000000035
 21
13.39745962155678
  0
LINE
  5
171
100
AcDbEntity
  8
tile
  6
ByLayer
 62
  256
370
   -1
100
AcDbLine
 10
433.3333333333331
 20
-15.47005383791905
 11
383.3333333333297
 21
71.13248654051272
  0
LINE
  5
172
100
AcDbEntity
  8
tile
  6
ByLayer
 62
  256
370
   -1
100
AcDbLine
 10
350.0000000000045
 20
13.39745962155837
 11
383.3333333333392
 21
-44.33756729740418
  0
LINE
  5
173
100
AcDbEntity
  8
tile
  6
ByLayer
 62
  256
370
   -1
100
AcDbLine
 10
283.3333333333407
 20
13.39745962155834
 11
350.0000000000019
 21
13.39745962155397
  0
LINE
  5
174
100
AcDbEntity
  8
tile
  6
ByLayer
 62
  256
370
   -1
100
AcDbLine
 10
383.3333333333333
 20
71.13248654051898
 11
283.3333333333325
 21
71.13248654051711
  0
LINE
  5
175
100
AcDbEntity
  8
tile
  6
ByLayer
 62
  256
370
   -1
100
AcDbLine
 10
299.9999999999948
 20
100.0000000000016
 11
266.6666666666737
 21
42.26497308103885
  0
LINE
  5
176
100
AcDbEntity
  8
tile
  6
ByLayer
 62
  256
370
   -1
100
AcDbLine
 10
350.0000000000044
 20
13.39745962155827
 11
300.0000000000024
 21
100.0000000000016
  0
LINE
  5
177
100
AcDbEntity
  8
tile
  6
ByLayer
 62
  256
370
   -1
100
AcDbLine
 10
316.6666666666648
 20
13.39745962155615
 11
366.6666666666666
 21
99.99999999999955
  0
LINE
  5
178
100
AcDbEntity
  8
tile
  6
ByLayer
 62
  256
370
   -1
100
AcDbLine
 10
266.6666666666703
 20
157.7350269189646
 11
299.9999999999995
 21
100.0000000000016
  0
LINE
  5
179
100
AcDbEntity
  8
tile
  6
ByLayer
 62
  256
370
   -1
100
AcDbLine
 10
300.0000000000016
 20
100.0000000000016
 11
350.000000000002
 21
186.6025403784427
  0
LINE
  5
17A
100
AcDbEntity
  8
tile
  6
ByLayer
 62
  256
370
   -1
100
AcDbLine
 10
366.6666666666799
 20
99.99999999999956
 11
316.6666666666653
 21
186.6025403784428
  0
LINE
  5
17B
100
AcDbEntity
  8
tile
  6
ByLayer
 62
  256
370
   -1
100
AcDbLine
 10
499.999999999997
 20
99.99999999999541
 11
449.9999999999925
 21
186.6025403784429
  0
LINE
  5
17C
100
AcDbEntity
  8
helper
  6
ByLayer
 62
  256
370
   -1
100
AcDbLine
 10
316.6666666666699
 20
244.3375672974043
 11
350.0000000000022
 21
186.602540378443
  0
LINE
  5
17D
100
AcDbEntity
  8
helper
  6
ByLayer
 62
  256
370
   -1
100
AcDbLine
 10
350.0000000000022
 20
186.602540378443
 11
283.3333333333371
 21
186.6025403784451
  0
LINE
  5
17E
100
AcDbEntity
  8
helper
  6
ByLayer
 62
  256
370
   -1
100
AcDbLine
 10
283.3333333333371
 20
186.6025403784451
 11
316.6666666666699
 21
244.3375672974043
  0
LINE
  5
17F
100
AcDbEntity
  8
helper
  6
ByLayer
 62
  256
370
   -1
100
AcDbLine
 10
416.6666666666664
 20
244.3375672974043
 11
449.8341625207191
 21
186.8897793183299
  0
LINE
  5
180
100
AcDbEntity
  8
helper
  6
ByLayer
 62
  256
370
   -1
100
AcDbLine
 10
449.8341625207191
 20
186.8897793183299
 11
483.3333333333219
 21
244.3375672974043
  0
LINE
  5
181
100
AcDbEntity
  8
helper
  6
ByLayer
 62
  256
370
   -1
100
AcDbLine
 10
483.3333333333219
 20
244.3375672974043
 11
416.6666666666664
 21
244.3375672974043
  0
LINE
  5
182
100
AcDbEntity
  8
helper
  6
ByLayer
 62
  256
370
   -1
100
AcDbLine
 10
449.8341625207191
 20
186.8897793183299
 11
483.3333333333219
 21
244.3375672974043
  0
LINE
  5
183
100
AcDbEntity
  8
helper
  6
ByLayer
 62
  256
370
   -1
100
AcDbLine
 10
483.3333333333219
 20
244.3375672974043
 11
516.6666666666566
 21
186.602540378442
  0
LINE
  5
184
100
AcDbEntity
  8
helper
  6
ByLayer
 62
  256
370
   -1
100
AcDbLine
 10
516.6666666666566
 20
186.602540378442
 11
449.8341625207191
 21
186.8897793183299
  0
LINE
  5
185
100
AcDbEntity
  8
helper
  6
ByLayer
 62
  256
370
   -1
100
AcDbLine
 10
533.3333333333236
 20
157.7350269189614
 11
566.6666666666616
 21
99.99999999999338
  0
LINE
  5
186
100
AcDbEntity
  8
helper
  6
ByLayer
 62
  256
370
   -1
100
AcDbLine
 10
566.6666666666616
 20
99.99999999999338
 11
533.3333333333294
 21
42.26497308103545
  0
LINE
  5
187
100
AcDbEntity
  8
helper
  6
ByLayer
 62
  256
370
   -1
100
AcDbLine
 10
566.6666666666615
 20
99.99999999999334
 11
500.000000000006
 21
99.99999999999542
  0
LINE
  5
188
100
AcDbEntity
  8
helper
  6
ByLayer
 62
  256
370
   -1
100
AcDbLine
 10
516.6666666666654
 20
13.39745962155991
 11
483.3333333333291
 21
-44.33756729740137
  0
LINE
  5
189
100
AcDbEntity
  8
helper
  6
ByLayer
 62
  256
370
   -1
100
AcDbLine
 10
483.3333333333291
 20
-44.33756729740137
 11
416.6666666666638
 21
-44.33756729740355
  0
LINE
  5
18A
100
AcDbEntity
  8
helper
  6
ByLayer
 62
  256
370
   -1
100
AcDbLine
 10
449.9999999999985
 20
13.39745962155865
 11
483.3333333333291
 21
-44.33756729740137
  0
LINE
  5
18B
100
AcDbEntity
  8
helper
  6
ByLayer
 62
  256
370
   -1
100
AcDbLine
 10
383.3333333333392
 20
-44.33756729740418
 11
316.6666666666749
 21
-44.33756729740333
  0
LINE
  5
18C
100
AcDbEntity
  8
helper
  6
ByLayer
 62
  256
370
   -1
100
AcDbLine
 10
316.6666666666749
 20
-44.33756729740333
 11
283.3333333333407
 21
13.39745962155834
  0
LINE
  5
18D
100
AcDbEntity
  8
helper
  6
ByLayer
 62
  256
370
   -1
100
AcDbLine
 10
350.0000000000019
 20
13.39745962155397
 11
316.666666666675
 21
-44.33756729740319
  0
LINE
  5
18E
100
AcDbEntity
  8
helper
  6
ByLayer
 62
  256
370
   -1
100
AcDbLine
 10
266.6666666666737
 20
42.26497308103885
 11
233.3333333333386
 21
100.0000000000037
  0
LINE
  5
18F
100
AcDbEntity
  8
helper
  6
ByLayer
 62
  256
370
   -1
100
AcDbLine
 10
233.3333333333386
 20
100.0000000000037
 11
266.6666666666703
 21
157.7350269189646
  0
LINE
  5
190
100
AcDbEntity
  8
helper
  6
ByLayer
 62
  256
370
   -1
100
AcDbLine
 10
299.9999999999972
 20
100.0000000000057
 11
233.3333333333371
 21
100.0000000000045
  0
LINE
  5
191
100
AcDbEntity
  8
helper
  6
ByLayer
 62
  256
370
   -1
100
AcDbLine
 10
316.6666666666699
 20
244.3375672974043
 11
283.3333333333371
 21
186.6025403784451
  0
LINE
  5
192
100
AcDbEntity
  8
helper
  6
ByLayer
 62
  256
370
   -1
100
AcDbLine
 10
316.6666666666699
 20
244.3375672974043
 11
350.0000000000022
 21
186.602540378443
  0
LINE
  5
193
100
AcDbEntity
  8
helper
  6
ByLayer
 62
  256
370
   -1
100
AcDbLine
 10
316.6666666666699
 20
244.3375672974043
 11
383.3333333333361
 21
244.3375672974043
  0
LINE
  5
194
100
AcDbEntity
  8
tile
  6
ByLayer
 62
  256
370
   -1
100
AcDbLine
 10
300.0000000000035
 20
215.4700538379247
 11
333.333333333336
 21
215.4700538379237
  0
LINE
  5
195
100
AcDbEntity
  8
tile
  6
ByLayer
 62
  256
370
   -1
100
AcDbLine
 10
333.333333333336
 20
215.4700538379237
 11
316.6666666666696
 21
186.6025403784441
  0
LINE
  5
196
100
AcDbEntity
  8
tile
  6
ByLayer
 62
  256
370
   -1
100
AcDbLine
 10
316.6666666666696
 20
186.6025403784441
 11
300.0000000000035
 21
215.4700538379247
  0
LINE
  5
197
100
AcDbEntity
  8
tile
  6
ByLayer
 62
  256
370
   -1
100
AcDbLine
 10
333.3333333333361
 20
215.4700538379236
 11
350.000000000003
 21
244.3375672974043
  0
LINE
  5
198
100
AcDbEntity
  8
tile
  6
ByLayer
 62
  256
370
   -1
100
AcDbLine
 10
350.000000000003
 20
244.3375672974043
 11
366.666666666669
 21
215.4700538379236
  0
LINE
  5
199
100
AcDbEntity
  8
tile
  6
ByLayer
 62
  256
370
   -1
100
AcDbLine
 10
366.666666666669
 20
215.4700538379236
 11
333.3333333333362
 21
215.4700538379237
  0
LINE
  5
19A
100
AcDbEntity
  8
tile
  6
ByLayer
 62
  256
370
   -1
100
AcDbLine
 10
433.2504145936928
 20
215.6136733078671
 11
448
 21
244.3375672974043
  0
LINE
  5
19B
100
AcDbEntity
  8
tile
  6
ByLayer
 62
  256
370
   -1
100
AcDbLine
 10
448
 20
244.3375672974043
 11
466.5837479270205
 21
215.6136733078671
  0
LINE
  5
19C
100
AcDbEntity
  8
tile
  6
ByLayer
 62
  256
370
   -1
100
AcDbLine
 10
466.5837479270205
 20
215.6136733078671
 11
433.3333333333303
 21
215.4700538379151
  0
LINE
  5
19D
100
AcDbEntity
  8
tile
  6
ByLayer
 62
  256
370
   -1
100
AcDbLine
 10
466.5837479270205
 20
215.6136733078671
 11
499.9999999999893
 21
215.4700538379232
  0
LINE
  5
19E
100
AcDbEntity
  8
tile
  6
ByLayer
 62
  256
370
   -1
100
AcDbLine
 10
499.9999999999893
 20
215.4700538379232
 11
483.2504145936879
 21
186.746159848386
  0
LINE
  5
19F
100
AcDbEntity
  8
tile
  6
ByLayer
 62
  256
370
   -1
100
AcDbLine
 10
483.2504145936879
 20
186.746159848386
 11
466.7491749174885
 21
215.6129623203921
  0
LINE
  5
1A0
100
AcDbEntity
  8
tile
  6
ByLayer
 62
  256
370
   -1
100
AcDbLine
 10
533.3333333333337
 20
99.99999999999437
 11
549.9999999999955
 21
71.13248654051441
  0
LINE
  5
1A1
100
AcDbEntity
  8
tile
  6
ByLayer
 62
  256
370
   -1
100
AcDbLine
 10
549.9999999999955
 20
71.13248654051441
 11
516.66666666666
 21
71.13248654052148
  0
LINE
  5
1A2
100
AcDbEntity
  8
tile
  6
ByLayer
 62
  256
370
   -1
100
AcDbLine
 10
516.66666666666
 20
71.13248654052148
 11
533.3333333333337
 21
99.99999999999437
  0
LINE
  5
1A3
100
AcDbEntity
  8
tile
  6
ByLayer
 62
  256
370
   -1
100
AcDbLine
 10
550
 20
128.8675134594644
 11
533.3333333333338
 21
99.99999999999437
  0
LINE
  5
1A4
100
AcDbEntity
  8
tile
  6
ByLayer
 62
  256
370
   -1
100
AcDbLine
 10
533.3333333333338
 20
99.99999999999437
 11
516.6666666666648
 21
128.8675134594785
  0
LINE
  5
1A5
100
AcDbEntity
  8
tile
  6
ByLayer
 62
  256
370
   -1
100
AcDbLine
 10
516.6666666666648
 20
128.8675134594785
 11
549.9999999999905
 21
128.8675134594812
  0
LINE
  5
1A6
100
AcDbEntity
  8
tile
  6
ByLayer
 62
  256
370
   -1
100
AcDbLine
 10
466.6666666666638
 20
-15.47005383792136
 11
449.9999999999965
 21
-44.33756729740246
  0
LINE
  5
1A7
100
AcDbEntity
  8
tile
  6
ByLayer
 62
  256
370
   -1
100
AcDbLine
 10
449.9999999999965
 20
-44.33756729740246
 11
433.333333333331
 21
-15.47005383792267
  0
LINE
  5
1A8
100
AcDbEntity
  8
tile
  6
ByLayer
 62
  256
370
   -1
100
AcDbLine
 10
433.333333333331
 20
-15.47005383792267
 11
466.6666666666642
 21
-15.47005383792068
  0
LINE
  5
1A9
100
AcDbEntity
  8
tile
  6
ByLayer
 62
  256
370
   -1
100
AcDbLine
 10
466.6666666666642
 20
-15.47005383792068
 11
483.3333333333329
 21
13.39745962155594
  0
LINE
  5
1AA
100
AcDbEntity
  8
tile
  6
ByLayer
 62
  256
370
   -1
100
AcDbLine
 10
483.3333333333329
 20
13.39745962155594
 11
499.9999999999973
 21
-15.47005383792073
  0
LINE
  5
1AB
100
AcDbEntity
  8
tile
  6
ByLayer
 62
  256
370
   -1
100
AcDbLine
 10
499.9999999999973
 20
-15.47005383792073
 11
466.6666666666642
 21
-15.47005383792068
  0
LINE
  5
1AC
100
AcDbEntity
  8
tile
  6
ByLayer
 62
  256
370
   -1
100
AcDbLine
 10
366.6666666666719
 20
-15.4700538379229
 11
333.3333333333385
 21
-15.47005383792461
  0
LINE
  5
1AD
100
AcDbEntity
  8
tile
  6
ByLayer
 62
  256
370
   -1
100
AcDbLine
 10
333.3333333333385
 20
-15.47005383792461
 11
350.000000000007
 21
-44.33756729740375
  0
LINE
  5
1AE
100
AcDbEntity
  8
tile
  6
ByLayer
 62
  256
370
   -1
100
AcDbLine
 10
350.000000000007
 20
-44.33756729740375
 11
366.6666666666719
 21
-15.4700538379229
  0
LINE
  5
1AF
100
AcDbEntity
  8
tile
  6
ByLayer
 62
  256
370
   -1
100
AcDbLine
 10
300.0000000000078
 20
-15.47005383792249
 11
333.333333333336
 21
-15.47005383792041
  0
LINE
  5
1B0
100
AcDbEntity
  8
tile
  6
ByLayer
 62
  256
370
   -1
100
AcDbLine
 10
266.6666666666671
 20
100.0000000000051
 11
283.3333333333343
 21
71.13248654052023
  0
LINE
  5
1B1
100
AcDbEntity
  8
tile
  6
ByLayer
 62
  256
370
   -1
100
AcDbLine
 10
283.3333333333343
 20
71.13248654052023
 11
250.0000000000077
 21
71.13248654051858
  0
LINE
  5
1B2
100
AcDbEntity
  8
tile
  6
ByLayer
 62
  256
370
   -1
100
AcDbLine
 10
250.0000000000077
 20
71.13248654051858
 11
266.6666666666686
 21
100.0000000000027
  0
LINE
  5
1B3
100
AcDbEntity
  8
tile
  6
ByLayer
 62
  256
370
   -1
100
AcDbLine
 10
283.333333333336
 20
128.8675134594812
 11
266.6666666666672
 21
100.0000000000051
  0
LINE
  5
1B4
100
AcDbEntity
  8
tile
  6
ByLayer
 62
  256
370
   -1
100
AcDbLine
 10
266.6666666666672
 20
100.0000000000051
 11
250.0000000000027
 21
128.8675134594812
  0
LINE
  5
1B5
100
AcDbEntity
  8
tile
  6
ByLayer
 62
  256
370
   -1
100
AcDbLine
 10
250.0000000000027
 20
128.8675134594812
 11
283.333333333336
 21
128.8675134594812
  0
LINE
  5
1B6
100
AcDbEntity
  8
helper
  6
ByLayer
 62
  256
370
   -1
100
AcDbLine
 10
316.6666666666713
 20
13.39745962155615
 11
333.3333333333409
 21
-15.47005383792041
  0
LINE
  5
1B7
100
AcDbEntity
  8
tile
  6
ByLayer
 62
  256
370
   -1
100
AcDbLine
 10
316.6666666666713
 20
13.39745962155615
 11
333.333333333336
 21
-15.47005383792041
  0
LINE
  5
1B8
100
AcDbEntity
  8
tile
  6
ByLayer
 62
  256
370
   -1
100
AcDbLine
 10
316.6666666666648
 20
13.39745962155615
 11
300.0000000000078
 21
-15.47005383792249
  0
LINE
  5
1B9
100
AcDbEntity
  8
tile
  6
ByLayer
 62
  256
370
   -1
100
AcDbLine
 10
350.000000000006
 20
128.8675134594847
 11
316.6666666666713
 21
71.13248654051773
  0
LINE
  5
1BA
100
AcDbEntity
  8
tile
  6
ByLayer
 62
  256
370
   -1
100
AcDbLine
 10
316.666666666669
 20
128.867513459483
 11
349.9999999999993
 21
71.13248654051836
  0
LINE
  5
1BB
100
AcDbEntity
  8
tile
  6
ByLayer
 62
  256
370
   -1
100
AcDbLine
 10
383.3333333333339
 20
186.6025403784428
 11
350.000000000006
 21
128.8675134594847
  0
LINE
  5
1BC
100
AcDbEntity
  8
tile
  6
ByLayer
 62
  256
370
   -1
100
AcDbLine
 10
333.3333333333359
 20
157.7350269189635
 11
400.0000000000017
 21
157.7350269189695
  0
LINE
  5
1BD
100
AcDbEntity
  8
tile
  6
ByLayer
 62
  256
370
   -1
100
AcDbLine
 10
466.6666666666637
 20
157.7350269189553
 11
400.0000000000017
 21
157.7350269189695
  0
LINE
  5
1BE
100
AcDbEntity
  8
tile
  6
ByLayer
 62
  256
370
   -1
100
AcDbLine
 10
416.6666666666663
 20
186.6025403784428
 11
450.0000000000004
 21
128.8675134594812
  0
LINE
  5
1BF
100
AcDbEntity
  8
tile
  6
ByLayer
 62
  256
370
   -1
100
AcDbLine
 10
483.333333333327
 20
128.8675134594812
 11
450.0000000000014
 21
71.13248654051283
  0
LINE
  5
1C0
100
AcDbEntity
  8
tile
  6
ByLayer
 62
  256
370
   -1
100
AcDbLine
 10
450.0000000000004
 20
128.8675134594812
 11
483.3333333333309
 21
71.13248654051716
  0
LINE
  5
1C1
100
AcDbEntity
  8
tile
  6
ByLayer
 62
  256
370
   -1
100
AcDbLine
 10
450.0000000000014
 20
71.13248654051283
 11
416.6666666666654
 21
13.39745962155803
  0
LINE
  5
1C2
100
AcDbEntity
  8
tile
  6
ByLayer
 62
  256
370
   -1
100
AcDbLine
 10
400.0000000000018
 20
42.26497308102803
 11
466.6666666666649
 21
42.26497308103833
  0
LINE
  5
1C3
100
AcDbEntity
  8
tile
  6
ByLayer
 62
  256
370
   -1
100
AcDbLine
 10
400.0000000000018
 20
42.26497308102803
 11
333.3333333333352
 21
42.26497308104266
  0
LINE
  5
1C4
100
AcDbEntity
  8
tile
  6
ByLayer
 62
  256
370
   -1
100
AcDbLine
 10
349.9999999999993
 20
71.13248654051836
 11
383.3333333333359
 21
13.3974596215574
  0
LINE
  5
1C5
100
AcDbEntity
  8
tile
  6
ByLayer
 62
  256
370
   -1
100
AcDbLine
 10
350.0000000000103
 20
-102.0725942163664
 11
383.3333333333788
 21
-159.8076211353315
  0
LINE
  5
1C6
100
AcDbEntity
  8
tile
  6
ByLayer
 62
  256
370
   -1
100
AcDbLine
 10
383.3333333333381
 20
-102.0725942163658
 11
349.9999999999398
 21
-159.8076211353315
  0
LINE
  5
1C7
100
AcDbEntity
  8
tile
  6
ByLayer
 62
  256
370
   -1
100
AcDbLine
 10
416.6666666666675
 20
-102.0725942163651
 11
450.0000000001179
 21
-159.8076211352739
  0
LINE
  5
1C8
100
AcDbEntity
  8
tile
  6
ByLayer
 62
  256
370
   -1
100
AcDbLine
 10
450.0000000001179
 20
-159.8076211352739
 11
483.3333333332362
 21
-102.0725942163639
  0
LINE
  5
1C9
100
AcDbEntity
  8
tile
  6
ByLayer
 62
  256
370
   -1
100
AcDbLine
 10
416.6666666666674
 20
-102.0725942163651
 11
383.3333333333392
 21
-159.8076211353273
  0
LINE
  5
1CA
100
AcDbEntity
  8
tile
  6
ByLayer
 62
  256
370
   -1
100
AcDbLine
 10
316.666666666662
 20
-102.072594216367
 11
349.9999999999398
 21
-159.8076211353315
  0
LINE
  5
1CB
100
AcDbEntity
  8
tile
  6
ByLayer
 62
  256
370
   -1
100
AcDbLine
 10
350.0000000000103
 20
-102.0725942163664
 11
316.6666666665918
 21
-159.8076211353316
  0
LINE
  5
1CC
100
AcDbEntity
  8
tile
  6
ByLayer
 62
  256
370
   -1
100
AcDbLine
 10
383.3333333333381
 20
-102.0725942163657
 11
416.6666666666712
 21
-159.8076211353315
  0
LINE
  5
1CD
100
AcDbEntity
  8
tile
  6
ByLayer
 62
  256
370
   -1
100
AcDbLine
 10
416.6666666666686
 20
-159.8076211353267
 11
450.0000000000867
 21
-102.0725942163645
  0
LINE
  5
1CE
100
AcDbEntity
  8
tile
  6
ByLayer
 62
  256
370
   -1
100
AcDbLine
 10
299.9999999999947
 20
-130.9401076758481
 11
316.6666666665918
 21
-159.8076211353316
  0
LINE
  5
1CF
100
AcDbEntity
  8
tile
  6
ByLayer
 62
  256
370
   -1
100
AcDbLine
 10
450.0000000000868
 20
-102.0725942163645
 11
483.333333333301
 21
-159.8076211353315
  0
LINE
  5
1D0
100
AcDbEntity
  8
tile
  6
ByLayer
 62
  256
370
   -1
100
AcDbLine
 10
500.0000000000048
 20
-130.9401076758477
 11
483.333333333301
 21
-159.8076211353315
  0
LINE
  5
1D1
100
AcDbEntity
  8
tile
  6
ByLayer
 62
  256
370
   -1
100
AcDbLine
 10
299.9999999999947
 20
-130.9401076758481
 11
500.0000000000047
 21
-130.9401076758477
  0
LINE
  5
1D2
100
AcDbEntity
  8
tile
  6
ByLayer
 62
  256
370
   -1
100
AcDbLine
 10
650.0000000000002
 20
71.13248654052398
 11
549.9999999999975
 21
-102.0725942163603
  0
LINE
  5
1D3
100
AcDbEntity
  8
tile
  6
ByLayer
 62
  256
370
   -1
100
AcDbLine
 10
150.0000000000141
 20
71.13248654051461
 11
250.0000000000013
 21
-102.0725942163591
  0
LINE
  5
1D4
100
AcDbEntity
  8
tile
  6
ByLayer
 62
  256
370
   -1
100
AcDbLine
 10
150.0000000000011
 20
128.8675134594812
 11
249.9999999999989
 21
302.0725942163623
  0
LINE
  5
1D5
100
AcDbEntity
  8
tile
  6
ByLayer
 62
  256
370
   -1
100
AcDbLine
 10
299.9999999999933
 20
330.9401076758467
 11
500.0000000000033
 21
330.9401076758467
  0
LINE
  5
1D6
100
AcDbEntity
  8
tile
  6
ByLayer
 62
  256
370
   -1
100
AcDbLine
 10
549.9999999999932
 20
302.0725942163483
 11
649.9999999999859
 21
128.8675134594812
  0
LINE
  5
1D7
100
AcDbEntity
  8
tile
  6
ByLayer
 62
  256
370
   -1
100
AcDbLine
 10
549.999999999993
 20
-44.33756729739463
 11
616.6666666666794
 21
-44.33756729736538
  0
LINE
  5
1D8
100
AcDbEntity
  8
tile
  6
ByLayer
 62
  256
370
   -1
100
AcDbLine
 10
566.6666666666563
 20
-15.47005383791782
 11
599.99999999996
 21
-73.20508075693823
  0
LINE
  5
1D9
100
AcDbEntity
  8
tile
  6
ByLayer
 62
  256
370
   -1
100
AcDbLine
 10
583.3333333333204
 20
13.39745962156037
 11
649.9999999999991
 21
13.39745962168867
  0
LINE
  5
1DA
100
AcDbEntity
  8
tile
  6
ByLayer
 62
  256
370
   -1
100
AcDbLine
 10
649.9999999999991
 20
13.39745962168867
 11
616.6666666666038
 21
71.13248654043876
  0
LINE
  5
1DB
100
AcDbEntity
  8
tile
  6
ByLayer
 62
  256
370
   -1
100
AcDbLine
 10
583.3333333333204
 20
13.39745962156033
 11
616.6666666666559
 21
-44.33756729739767
  0
LINE
  5
1DC
100
AcDbEntity
  8
tile
  6
ByLayer
 62
  256
370
   -1
100
AcDbLine
 10
533.3333333333194
 20
-73.20508075688915
 11
599.99999999996
 21
-73.20508075693823
  0
LINE
  5
1DD
100
AcDbEntity
  8
tile
  6
ByLayer
 62
  256
370
   -1
100
AcDbLine
 10
549.999999999993
 20
-44.33756729739457
 11
583.333333333286
 21
-102.0725942164322
  0
LINE
  5
1DE
100
AcDbEntity
  8
tile
  6
ByLayer
 62
  256
370
   -1
100
AcDbLine
 10
566.6666666666563
 20
-15.47005383791776
 11
633.3333333333256
 21
-15.47005383791958
  0
LINE
  5
1DF
100
AcDbEntity
  8
tile
  6
ByLayer
 62
  256
370
   -1
100
AcDbLine
 10
633.3333333333201
 20
-15.47005383791948
 11
600.0000000000296
 21
42.26497308111639
  0
LINE
  5
1E0
100
AcDbEntity
  8
tile
  6
ByLayer
 62
  256
370
   -1
100
AcDbLine
 10
549.9999999999854
 20
-102.0725942163709
 11
583.333333333286
 21
-102.0725942164322
  0
LINE
  5
1E1
100
AcDbEntity
  8
tile
  6
ByLayer
 62
  256
370
   -1
100
AcDbLine
 10
600.0000000000296
 20
42.26497308111644
 11
666.6666666666405
 21
42.26497308101104
  0
LINE
  5
1E2
100
AcDbEntity
  8
tile
  6
ByLayer
 62
  256
370
   -1
100
AcDbLine
 10
649.9999999999902
 20
71.13248654052575
 11
666.6666666666405
 21
42.26497308101104
  0
LINE
  5
1E3
100
AcDbEntity
  8
tile
  6
ByLayer
 62
  256
370
   -1
100
AcDbLine
 10
549.9999999999854
 20
-102.0725942163709
 11
649.9999999999902
 21
71.13248654052568
  0
LINE
  5
1E4
100
AcDbEntity
  8
tile
  6
ByLayer
 62
  256
370
   -1
100
AcDbLine
 10
599.9999999999764
 20
157.735026918964
 11
633.3333333332941
 21
215.4700538379583
  0
LINE
  5
1E5
100
AcDbEntity
  8
tile
  6
ByLayer
 62
  256
370
   -1
100
AcDbLine
 10
583.3333333333119
 20
186.6025403784402
 11
650.0000000000138
 21
186.6025403783855
  0
LINE
  5
1E6
100
AcDbEntity
  8
tile
  6
ByLayer
 62
  256
370
   -1
100
AcDbLine
 10
566.6666666666466
 20
215.4700538379177
 11
599.9999999998748
 21
273.2050807569548
  0
LINE
  5
1E7
100
AcDbEntity
  8
tile
  6
ByLayer
 62
  256
370
   -1
100
AcDbLine
 10
599.9999999998748
 20
273.2050807569548
 11
533.3333333333612
 21
273.2050807567949
  0
LINE
  5
1E8
100
AcDbEntity
  8
tile
  6
ByLayer
 62
  256
370
   -1
100
AcDbLine
 10
566.6666666666466
 20
215.4700538379176
 11
633.3333333333105
 21
215.4700538379219
  0
LINE
  5
1E9
100
AcDbEntity
  8
tile
  6
ByLayer
 62
  256
370
   -1
100
AcDbLine
 10
616.6666666666509
 20
128.86751345947
 11
650.0000000000138
 21
186.6025403783855
  0
LINE
  5
1EA
100
AcDbEntity
  8
tile
  6
ByLayer
 62
  256
370
   -1
100
AcDbLine
 10
599.9999999999764
 20
157.735026918964
 11
666.6666666666878
 21
157.7350269188915
  0
LINE
  5
1EB
100
AcDbEntity
  8
tile
  6
ByLayer
 62
  256
370
   -1
100
AcDbLine
 10
583.3333333333119
 20
186.6025403784402
 11
616.6666666666481
 21
244.3375672974041
  0
LINE
  5
1EC
100
AcDbEntity
  8
tile
  6
ByLayer
 62
  256
370
   -1
100
AcDbLine
 10
616.6666666666453
 20
244.3375672973994
 11
549.9999999999364
 21
244.3375672974731
  0
LINE
  5
1ED
100
AcDbEntity
  8
tile
  6
ByLayer
 62
  256
370
   -1
100
AcDbLine
 10
649.9999999999844
 20
128.8675134594693
 11
666.6666666666878
 21
157.7350269188915
  0
LINE
  5
1EE
100
AcDbEntity
  8
tile
  6
ByLayer
 62
  256
370
   -1
100
AcDbLine
 10
549.9999999999364
 20
244.3375672974732
 11
583.3333333333331
 21
302.0725942163347
  0
LINE
  5
1EF
100
AcDbEntity
  8
tile
  6
ByLayer
 62
  256
370
   -1
100
AcDbLine
 10
549.9999999999791
 20
302.0725942163656
 11
583.3333333333331
 21
302.0725942163347
  0
LINE
  5
1F0
100
AcDbEntity
  8
tile
  6
ByLayer
 62
  256
370
   -1
100
AcDbLine
 10
649.9999999999844
 20
128.8675134594693
 11
549.9999999999791
 21
302.0725942163656
  0
LINE
  5
1F1
100
AcDbEntity
  8
tile
  6
ByLayer
 62
  256
370
   -1
100
AcDbLine
 10
449.999999999977
 20
302.0725942163508
 11
416.6666666666085
 21
359.8076211353159
  0
LINE
  5
1F2
100
AcDbEntity
  8
tile
  6
ByLayer
 62
  256
370
   -1
100
AcDbLine
 10
416.6666666666492
 20
302.0725942163502
 11
450.0000000000475
 21
359.807621135316
  0
LINE
  5
1F3
100
AcDbEntity
  8
tile
  6
ByLayer
 62
  256
370
   -1
100
AcDbLine
 10
383.3333333333198
 20
302.0725942163496
 11
349.9999999998694
 21
359.8076211352583
  0
LINE
  5
1F4
100
AcDbEntity
  8
tile
  6
ByLayer
 62
  256
370
   -1
100
AcDbLine
 10
349.9999999998694
 20
359.8076211352583
 11
316.6666666667511
 21
302.0725942163483
  0
LINE
  5
1F5
100
AcDbEntity
  8
tile
  6
ByLayer
 62
  256
370
   -1
100
AcDbLine
 10
383.3333333333198
 20
302.0725942163496
 11
416.6666666666482
 21
359.8076211353118
  0
LINE
  5
1F6
100
AcDbEntity
  8
tile
  6
ByLayer
 62
  256
370
   -1
100
AcDbLine
 10
483.3333333333253
 20
302.0725942163514
 11
450.0000000000475
 21
359.807621135316
  0
LINE
  5
1F7
100
AcDbEntity
  8
tile
  6
ByLayer
 62
  256
370
   -1
100
AcDbLine
 10
449.9999999999769
 20
302.0725942163508
 11
483.3333333333954
 21
359.807621135316
  0
LINE
  5
1F8
100
AcDbEntity
  8
tile
  6
ByLayer
 62
  256
370
   -1
100
AcDbLine
 10
416.6666666666491
 20
302.0725942163502
 11
383.3333333333161
 21
359.807621135316
  0
LINE
  5
1F9
100
AcDbEntity
  8
tile
  6
ByLayer
 62
  256
370
   -1
100
AcDbLine
 10
383.3333333333188
 20
359.8076211353111
 11
349.9999999999005
 21
302.0725942163489
  0
LINE
  5
1FA
100
AcDbEntity
  8
tile
  6
ByLayer
 62
  256
370
   -1
100
AcDbLine
 10
499.9999999999926
 20
330.9401076758326
 11
483.3333333333954
 21
359.807621135316
  0
LINE
  5
1FB
100
AcDbEntity
  8
tile
  6
ByLayer
 62
  256
370
   -1
100
AcDbLine
 10
349.9999999999005
 20
302.0725942163489
 11
316.6666666666863
 21
359.8076211353159
  0
LINE
  5
1FC
100
AcDbEntity
  8
tile
  6
ByLayer
 62
  256
370
   -1
100
AcDbLine
 10
299.9999999999825
 20
330.9401076758321
 11
316.6666666666863
 21
359.8076211353159
  0
LINE
  5
1FD
100
AcDbEntity
  8
tile
  6
ByLayer
 62
  256
370
   -1
100
AcDbLine
 10
499.9999999999926
 20
330.9401076758325
 11
299.9999999999826
 21
330.9401076758321
  0
LINE
  5
1FE
100
AcDbEntity
  8
tile
  6
ByLayer
 62
  256
370
   -1
100
AcDbLine
 10
249.9999999999944
 20
244.3375672973791
 11
183.3333333333079
 21
244.3375672973499
  0
LINE
  5
1FF
100
AcDbEntity
  8
tile
  6
ByLayer
 62
  256
370
   -1
100
AcDbLine
 10
233.333333333331
 20
215.4700538379023
 11
200.0000000000274
 21
273.2050807569227
  0
LINE
  5
200
100
AcDbEntity
  8
tile
  6
ByLayer
 62
  256
370
   -1
100
AcDbLine
 10
216.6666666666669
 20
186.6025403784241
 11
149.9999999999883
 21
186.6025403782959
  0
LINE
  5
201
100
AcDbEntity
  8
tile
  6
ByLayer
 62
  256
370
   -1
100
AcDbLine
 10
149.9999999999883
 20
186.6025403782959
 11
183.3333333333836
 21
128.8675134595457
  0
LINE
  5
202
100
AcDbEntity
  8
tile
  6
ByLayer
 62
  256
370
   -1
100
AcDbLine
 10
216.6666666666669
 20
186.6025403784242
 11
183.3333333333314
 21
244.3375672973822
  0
LINE
  5
203
100
AcDbEntity
  8
tile
  6
ByLayer
 62
  256
370
   -1
100
AcDbLine
 10
266.666666666668
 20
273.2050807568736
 11
200.0000000000274
 21
273.2050807569227
  0
LINE
  5
204
100
AcDbEntity
  8
tile
  6
ByLayer
 62
  256
370
   -1
100
AcDbLine
 10
249.9999999999944
 20
244.3375672973791
 11
216.6666666667014
 21
302.0725942164167
  0
LINE
  5
205
100
AcDbEntity
  8
tile
  6
ByLayer
 62
  256
370
   -1
100
AcDbLine
 10
233.333333333331
 20
215.4700538379022
 11
166.6666666666617
 21
215.4700538379041
  0
LINE
  5
206
100
AcDbEntity
  8
tile
  6
ByLayer
 62
  256
370
   -1
100
AcDbLine
 10
166.6666666666672
 20
215.470053837904
 11
199.9999999999578
 21
157.7350269188681
  0
LINE
  5
207
100
AcDbEntity
  8
tile
  6
ByLayer
 62
  256
370
   -1
100
AcDbLine
 10
250.0000000000019
 20
302.0725942163554
 11
216.6666666667014
 21
302.0725942164167
  0
LINE
  5
208
100
AcDbEntity
  8
tile
  6
ByLayer
 62
  256
370
   -1
100
AcDbLine
 10
199.9999999999577
 20
157.735026918868
 11
133.3333333333468
 21
157.7350269189735
  0
LINE
  5
209
100
AcDbEntity
  8
tile
  6
ByLayer
 62
  256
370
   -1
100
AcDbLine
 10
149.9999999999971
 20
128.8675134594588
 11
133.3333333333468
 21
157.7350269189735
  0
LINE
  5
20A
100
AcDbEntity
  8
tile
  6
ByLayer
 62
  256
370
   -1
100
AcDbLine
 10
250.0000000000019
 20
302.0725942163554
 11
149.9999999999971
 21
128.8675134594588
  0
LINE
  5
20B
100
AcDbEntity
  8
tile
  6
ByLayer
 62
  256
370
   -1
100
AcDbLine
 10
200.0000000000109
 20
42.26497308102057
 11
166.666666666693
 21
-15.47005383797375
  0
LINE
  5
20C
100
AcDbEntity
  8
tile
  6
ByLayer
 62
  256
370
   -1
100
AcDbLine
 10
216.6666666666754
 20
13.39745962154437
 11
149.9999999999734
 21
13.39745962159907
  0
LINE
  5
20D
100
AcDbEntity
  8
tile
  6
ByLayer
 62
  256
370
   -1
100
AcDbLine
 10
233.3333333333406
 20
-15.47005383793321
 11
200.0000000001124
 21
-73.20508075697023
  0
LINE
  5
20E
100
AcDbEntity
  8
tile
  6
ByLayer
 62
  256
370
   -1
100
AcDbLine
 10
200.0000000001124
 20
-73.20508075697023
 11
266.666666666626
 21
-73.20508075681039
  0
LINE
  5
20F
100
AcDbEntity
  8
tile
  6
ByLayer
 62
  256
370
   -1
100
AcDbLine
 10
233.3333333333406
 20
-15.47005383793315
 11
166.6666666666767
 21
-15.47005383793731
  0
LINE
  5
210
100
AcDbEntity
  8
tile
  6
ByLayer
 62
  256
370
   -1
100
AcDbLine
 10
183.3333333333363
 20
71.13248654051449
 11
149.9999999999734
 21
13.39745962159907
  0
LINE
  5
211
100
AcDbEntity
  8
tile
  6
ByLayer
 62
  256
370
   -1
100
AcDbLine
 10
200.0000000000109
 20
42.26497308102051
 11
133.3333333332995
 21
42.26497308109306
  0
LINE
  5
212
100
AcDbEntity
  8
tile
  6
ByLayer
 62
  256
370
   -1
100
AcDbLine
 10
216.6666666666754
 20
13.39745962154433
 11
183.3333333333391
 21
-44.33756729741961
  0
LINE
  5
213
100
AcDbEntity
  8
tile
  6
ByLayer
 62
  256
370
   -1
100
AcDbLine
 10
183.333333333342
 20
-44.33756729741489
 11
250.0000000000507
 21
-44.33756729748859
  0
LINE
  5
214
100
AcDbEntity
  8
tile
  6
ByLayer
 62
  256
370
   -1
100
AcDbLine
 10
150.0000000000028
 20
71.13248654051523
 11
133.3333333332995
 21
42.26497308109306
  0
LINE
  5
215
100
AcDbEntity
  8
tile
  6
ByLayer
 62
  256
370
   -1
100
AcDbLine
 10
250.0000000000508
 20
-44.33756729748865
 11
216.666666666654
 21
-102.0725942163502
  0
LINE
  5
216
100
AcDbEntity
  8
tile
  6
ByLayer
 62
  256
370
   -1
100
AcDbLine
 10
250.0000000000081
 20
-102.0725942163811
 11
216.666666666654
 21
-102.0725942163502
  0
LINE
  5
217
100
AcDbEntity
  8
tile
  6
ByLayer
 62
  256
370
   -1
100
AcDbLine
 10
150.0000000000028
 20
71.13248654051525
 11
250.000000000008
 21
-102.0725942163811
  0
LINE
  5
218
100
AcDbEntity
  8
helper2
  6
ByLayer
 62
  256
370
   -1
100
AcDbLine
 10
283.3333333333261
 20
359.8076211353275
 11
279.1666666666688
 21
280.4219591217528
  0
LINE
  5
219
100
AcDbEntity
  8
helper2
  6
ByLayer
 62
  256
370
   -1
100
AcDbLine
 10
244.4444444444408
 20
311.6950987028615
 11
294.4444444444364
 21
340.5626121623437
  0
LINE
  5
21A
100
AcDbEntity
  8
helper2
  6
ByLayer
 62
  256
370
   -1
100
AcDbLine
 10
255.5555555555511
 20
292.4500897298777
 11
305.5555555555467
 21
321.3176031893598
  0
LINE
  5
21B
100
AcDbEntity
  8
helper2
  6
ByLayer
 62
  256
370
   -1
100
AcDbLine
 10
266.6666666666613
 20
273.2050807568938
 11
316.666666666657
 21
302.072594216376
  0
LINE
  5
21C
100
AcDbEntity
  8
helper2
  6
ByLayer
 62
  256
370
   -1
100
AcDbLine
 10
283.3333333333261
 20
359.8076211353274
 11
270.8333333333313
 21
352.5907427704593
  0
LINE
  5
21D
100
AcDbEntity
  8
helper2
  6
ByLayer
 62
  256
370
   -1
100
AcDbLine
 10
281.9444444444406
 20
333.345733797475
 11
269.4444444444385
 21
326.1288554326026
  0
LINE
  5
21E
100
AcDbEntity
  8
helper2
  6
ByLayer
 62
  256
370
   -1
100
AcDbLine
 10
258.3333333333283
 20
345.3738644055865
 11
245.8333333333336
 21
338.1569860407182
  0
LINE
  5
21F
100
AcDbEntity
  8
helper2
  6
ByLayer
 62
  256
370
   -1
100
AcDbLine
 10
256.9444444444428
 20
318.911977067734
 11
244.4444444444401
 21
311.6950987028612
  0
LINE
  5
220
100
AcDbEntity
  8
helper2
  6
ByLayer
 62
  256
370
   -1
100
AcDbLine
 10
305.5555555555454
 20
321.3176031893591
 11
293.05555555555
 21
314.1007248244906
  0
LINE
  5
221
100
AcDbEntity
  8
helper2
  6
ByLayer
 62
  256
370
   -1
100
AcDbLine
 10
304.1666666666594
 20
294.8557158515061
 11
291.6666666666639
 21
287.6388374866376
  0
LINE
  5
222
100
AcDbEntity
  8
helper2
  6
ByLayer
 62
  256
370
   -1
100
AcDbLine
 10
280.5555555555488
 20
306.8838464596188
 11
268.0555555555522
 21
299.6669680947496
  0
LINE
  5
223
100
AcDbEntity
  8
helper2
  6
ByLayer
 62
  256
370
   -1
100
AcDbLine
 10
279.1666666666688
 20
280.4219591217528
 11
266.6666666666613
 21
273.2050807568938
  0
LINE
  5
224
100
AcDbEntity
  8
tile
  6
ByLayer
 62
  256
370
   -1
100
AcDbLine
 10
283.3333333333336
 20
359.8076211353317
 11
270.8333333333313
 21
352.5907427704593
  0
LINE
  5
225
100
AcDbEntity
  8
tile
  6
ByLayer
 62
  256
370
   -1
100
AcDbLine
 10
281.9444444444406
 20
333.345733797475
 11
269.4444444444385
 21
326.1288554326026
  0
LINE
  5
226
100
AcDbEntity
  8
tile
  6
ByLayer
 62
  256
370
   -1
100
AcDbLine
 10
258.3333333333283
 20
345.3738644055865
 11
245.8333333333335
 21
338.1569860407182
  0
LINE
  5
227
100
AcDbEntity
  8
tile
  6
ByLayer
 62
  256
370
   -1
100
AcDbLine
 10
256.9444444444428
 20
318.911977067734
 11
244.4444444444401
 21
311.6950987028612
  0
LINE
  5
228
100
AcDbEntity
  8
tile
  6
ByLayer
 62
  256
370
   -1
100
AcDbLine
 10
305.5555555555454
 20
321.3176031893591
 11
293.05555555555
 21
314.1007248244906
  0
LINE
  5
229
100
AcDbEntity
  8
tile
  6
ByLayer
 62
  256
370
   -1
100
AcDbLine
 10
304.1666666666653
 20
294.855715851496
 11
291.6666666666591
 21
287.6388374866349
  0
LINE
  5
22A
100
AcDbEntity
  8
tile
  6
ByLayer
 62
  256
370
   -1
100
AcDbLine
 10
280.5555555555551
 20
306.8838464596215
 11
268.0555555555522
 21
299.6669680947496
  0
LINE
  5
22B
100
AcDbEntity
  8
tile
  6
ByLayer
 62
  256
370
   -1
100
AcDbLine
 10
279.1666666666697
 20
280.4219591217699
 11
266.6666666666613
 21
273.2050807568938
  0
LINE
  5
22C
100
AcDbEntity
  8
tile
  6
ByLayer
 62
  256
370
   -1
100
AcDbLine
 10
566.6666666666648
 20
330.9401076758505
 11
554.1666666666619
 21
338.1569860407217
  0
LINE
  5
22D
100
AcDbEntity
  8
tile
  6
ByLayer
 62
  256
370
   -1
100
AcDbLine
 10
543.0555555555527
 20
318.9119770677374
 11
530.5555555555497
 21
326.1288554326084
  0
LINE
  5
22E
100
AcDbEntity
  8
tile
  6
ByLayer
 62
  256
370
   -1
100
AcDbLine
 10
541.6666666666581
 20
345.3738644055935
 11
529.1666666666626
 21
352.5907427704602
  0
LINE
  5
22F
100
AcDbEntity
  8
tile
  6
ByLayer
 62
  256
370
   -1
100
AcDbLine
 10
518.0555555555534
 20
333.3457337974759
 11
505.5555555555499
 21
340.5626121623473
  0
LINE
  5
230
100
AcDbEntity
  8
tile
  6
ByLayer
 62
  256
370
   -1
100
AcDbLine
 10
544.4444444444396
 20
292.4500897298857
 11
531.9444444444434
 21
299.666968094753
  0
LINE
  5
231
100
AcDbEntity
  8
tile
  6
ByLayer
 62
  256
370
   -1
100
AcDbLine
 10
520.8333333333283
 20
280.4219591217583
 11
508.3333333333331
 21
287.6388374866385
  0
LINE
  5
232
100
AcDbEntity
  8
tile
  6
ByLayer
 62
  256
370
   -1
100
AcDbLine
 10
519.444444444447
 20
306.8838464596194
 11
506.9444444444442
 21
314.1007248244914
  0
LINE
  5
233
100
AcDbEntity
  8
tile
  6
ByLayer
 62
  256
370
   -1
100
AcDbLine
 10
495.833333333343
 20
294.8557158515023
 11
483.3333333333339
 21
302.072594216377
  0
LINE
  5
234
100
AcDbEntity
  8
tile
  6
ByLayer
 62
  256
370
   -1
100
AcDbLine
 10
683.3333333333305
 20
71.13248654052076
 11
683.3333333333298
 21
85.56624327026439
  0
LINE
  5
235
100
AcDbEntity
  8
tile
  6
ByLayer
 62
  256
370
   -1
100
AcDbLine
 10
661.1111111111113
 20
85.56624327026435
 11
661.1111111111105
 21
100.0000000000078
  0
LINE
  5
236
100
AcDbEntity
  8
tile
  6
ByLayer
 62
  256
370
   -1
100
AcDbLine
 10
683.3333333333292
 20
100.0000000000089
 11
683.3333333333283
 21
114.433756729744
  0
LINE
  5
237
100
AcDbEntity
  8
tile
  6
ByLayer
 62
  256
370
   -1
100
AcDbLine
 10
661.1111111111099
 20
114.4337567297439
 11
661.111111111109
 21
128.8675134594881
  0
LINE
  5
238
100
AcDbEntity
  8
tile
  6
ByLayer
 62
  256
370
   -1
100
AcDbLine
 10
638.8888888888935
 20
71.13248654052848
 11
638.8888888888927
 21
85.56624327026429
  0
LINE
  5
239
100
AcDbEntity
  8
tile
  6
ByLayer
 62
  256
370
   -1
100
AcDbLine
 10
616.6666666666622
 20
85.56624327026418
 11
616.6666666666733
 21
100.0000000000056
  0
LINE
  5
23A
100
AcDbEntity
  8
tile
  6
ByLayer
 62
  256
370
   -1
100
AcDbLine
 10
638.8888888888912
 20
99.99999999999991
 11
638.8888888888912
 21
114.4337567297438
  0
LINE
  5
23B
100
AcDbEntity
  8
tile
  6
ByLayer
 62
  256
370
   -1
100
AcDbLine
 10
616.6666666666727
 20
114.4337567297344
 11
616.6666666666719
 21
128.8675134594851
  0
LINE
  5
23C
100
AcDbEntity
  8
tile
  6
ByLayer
 62
  256
370
   -1
100
AcDbLine
 10
516.6666666666648
 20
-159.8076211353278
 11
529.1666666666671
 21
-152.5907427704555
  0
LINE
  5
23D
100
AcDbEntity
  8
tile
  6
ByLayer
 62
  256
370
   -1
100
AcDbLine
 10
518.0555555555578
 20
-133.3457337974713
 11
530.5555555555599
 21
-126.1288554325988
  0
LINE
  5
23E
100
AcDbEntity
  8
tile
  6
ByLayer
 62
  256
370
   -1
100
AcDbLine
 10
541.6666666666702
 20
-145.3738644055827
 11
554.1666666666648
 21
-138.1569860407145
  0
LINE
  5
23F
100
AcDbEntity
  8
tile
  6
ByLayer
 62
  256
370
   -1
100
AcDbLine
 10
543.0555555555555
 20
-118.9119770677302
 11
555.5555555555583
 21
-111.6950987028574
  0
LINE
  5
240
100
AcDbEntity
  8
tile
  6
ByLayer
 62
  256
370
   -1
100
AcDbLine
 10
494.444444444453
 20
-121.3176031893554
 11
506.9444444444484
 21
-114.1007248244868
  0
LINE
  5
241
100
AcDbEntity
  8
tile
  6
ByLayer
 62
  256
370
   -1
100
AcDbLine
 10
495.8333333333331
 20
-94.85571585149223
 11
508.3333333333393
 21
-87.63883748663109
  0
LINE
  5
242
100
AcDbEntity
  8
tile
  6
ByLayer
 62
  256
370
   -1
100
AcDbLine
 10
519.4444444444433
 20
-106.8838464596177
 11
531.9444444444462
 21
-99.6669680947458
  0
LINE
  5
243
100
AcDbEntity
  8
tile
  6
ByLayer
 62
  256
370
   -1
100
AcDbLine
 10
520.8333333333287
 20
-80.42195912176611
 11
533.3333333333371
 21
-73.20508075689007
  0
LINE
  5
244
100
AcDbEntity
  8
tile
  6
ByLayer
 62
  256
370
   -1
100
AcDbLine
 10
233.3333333333338
 20
-130.9401076758467
 11
245.8333333333367
 21
-138.1569860407179
  0
LINE
  5
245
100
AcDbEntity
  8
tile
  6
ByLayer
 62
  256
370
   -1
100
AcDbLine
 10
256.9444444444459
 20
-118.9119770677336
 11
269.4444444444488
 21
-126.1288554326046
  0
LINE
  5
246
100
AcDbEntity
  8
tile
  6
ByLayer
 62
  256
370
   -1
100
AcDbLine
 10
258.3333333333404
 20
-145.3738644055896
 11
270.833333333336
 21
-152.5907427704564
  0
LINE
  5
247
100
AcDbEntity
  8
tile
  6
ByLayer
 62
  256
370
   -1
100
AcDbLine
 10
281.9444444444451
 20
-133.3457337974721
 11
294.4444444444487
 21
-140.5626121623435
  0
LINE
  5
248
100
AcDbEntity
  8
tile
  6
ByLayer
 62
  256
370
   -1
100
AcDbLine
 10
255.555555555559
 20
-92.45008972988187
 11
268.0555555555552
 21
-99.66696809474912
  0
LINE
  5
249
100
AcDbEntity
  8
tile
  6
ByLayer
 62
  256
370
   -1
100
AcDbLine
 10
279.1666666666703
 20
-80.42195912175448
 11
291.6666666666654
 21
-87.63883748663467
  0
LINE
  5
24A
100
AcDbEntity
  8
tile
  6
ByLayer
 62
  256
370
   -1
100
AcDbLine
 10
280.5555555555516
 20
-106.8838464596156
 11
293.0555555555544
 21
-114.1007248244876
  0
LINE
  5
24B
100
AcDbEntity
  8
tile
  6
ByLayer
 62
  256
370
   -1
100
AcDbLine
 10
304.1666666666555
 20
-94.85571585149849
 11
316.6666666666647
 21
-102.0725942163732
  0
LINE
  5
24C
100
AcDbEntity
  8
tile
  6
ByLayer
 62
  256
370
   -1
100
AcDbLine
 10
116.666666666668
 20
128.8675134594828
 11
116.6666666666687
 21
114.4337567297391
  0
LINE
  5
24D
100
AcDbEntity
  8
tile
  6
ByLayer
 62
  256
370
   -1
100
AcDbLine
 10
138.8888888888871
 20
114.4337567297392
 11
138.888888888888
 21
99.99999999999569
  0
LINE
  5
24E
100
AcDbEntity
  8
tile
  6
ByLayer
 62
  256
370
   -1
100
AcDbLine
 10
116.6666666666693
 20
99.99999999999456
 11
116.6666666666702
 21
85.56624327025953
  0
LINE
  5
24F
100
AcDbEntity
  8
tile
  6
ByLayer
 62
  256
370
   -1
100
AcDbLine
 10
138.8888888888886
 20
85.5662432702596
 11
138.8888888888895
 21
71.1324865405154
  0
LINE
  5
250
100
AcDbEntity
  8
tile
  6
ByLayer
 62
  256
370
   -1
100
AcDbLine
 10
161.1111111111051
 20
128.8675134594751
 11
161.1111111111058
 21
114.4337567297393
  0
LINE
  5
251
100
AcDbEntity
  8
tile
  6
ByLayer
 62
  256
370
   -1
100
AcDbLine
 10
183.3333333333362
 20
114.4337567297394
 11
183.3333333333252
 21
99.99999999999802
  0
LINE
  5
252
100
AcDbEntity
  8
tile
  6
ByLayer
 62
  256
370
   -1
100
AcDbLine
 10
161.1111111111074
 20
100.0000000000036
 11
161.1111111111073
 21
85.56624327025975
  0
LINE
  5
253
100
AcDbEntity
  8
tile
  6
ByLayer
 62
  256
370
   -1
100
AcDbLine
 10
183.3333333333259
 20
85.56624327026918
 11
183.3333333333267
 21
71.13248654051846
  0
LINE
  5
254
100
AcDbEntity
  8
tile
  6
ByLayer
 62
  256
370
   -1
100
AcDbLine
 10
316.6666666667613
 20
302.0725942163659
 11
316.6666666666628
 21
287.6388374866289
  0
LINE
  5
255
100
AcDbEntity
  8
tile
  6
ByLayer
 62
  256
370
   -1
100
AcDbLine
 10
358.3333333333309
 20
287.6388374866298
 11
358.3333333333324
 21
273.205080756876
  0
LINE
  5
256
100
AcDbEntity
  8
tile
  6
ByLayer
 62
  256
370
   -1
100
AcDbLine
 10
316.6666666666652
 20
273.2050807568775
 11
316.6666666666675
 21
258.7713240271482
  0
LINE
  5
257
100
AcDbEntity
  8
tile
  6
ByLayer
 62
  256
370
   -1
100
AcDbLine
 10
358.3333333333339
 20
258.771324027149
 11
358.3333333333355
 21
244.3375672974043
  0
LINE
  5
258
100
AcDbEntity
  8
tile
  6
ByLayer
 62
  256
370
   -1
100
AcDbLine
 10
400.0000000000002
 20
302.0725942163659
 11
400.0000000000004
 21
287.6388374866307
  0
LINE
  5
259
100
AcDbEntity
  8
tile
  6
ByLayer
 62
  256
370
   -1
100
AcDbLine
 10
400.0000000000006
 20
273.2050807568851
 11
400.0000000000009
 21
258.7713240271499
  0
LINE
  5
25A
100
AcDbEntity
  8
tile
  6
ByLayer
 62
  256
370
   -1
100
AcDbLine
 10
441.6666666666658
 20
287.6388374866315
 11
441.6666666666644
 21
273.2050807568851
  0
LINE
  5
25B
100
AcDbEntity
  8
tile
  6
ByLayer
 62
  256
370
   -1
100
AcDbLine
 10
441.6666666666629
 20
258.7713240271507
 11
441.6666666666615
 21
244.3375672974044
  0
LINE
  5
25C
100
AcDbEntity
  8
tile
  6
ByLayer
 62
  256
370
   -1
100
AcDbLine
 10
483.333333333336
 20
302.0725942163328
 11
483.3333333333325
 21
287.6388374866323
  0
LINE
  5
25D
100
AcDbEntity
  8
tile
  6
ByLayer
 62
  256
370
   -1
100
AcDbLine
 10
483.3333333333291
 20
273.2050807568852
 11
483.3333333333254
 21
258.7713240271516
  0
LINE
  5
25E
100
AcDbEntity
  8
tile
  6
ByLayer
 62
  256
370
   -1
100
AcDbLine
 10
533.3333333333759
 20
273.2050807568046
 11
520.8333333333298
 21
265.9882023920214
  0
LINE
  5
25F
100
AcDbEntity
  8
tile
  6
ByLayer
 62
  256
370
   -1
100
AcDbLine
 10
541.6666666666646
 20
229.9038105676689
 11
529.166666666654
 21
222.6869322027907
  0
LINE
  5
260
100
AcDbEntity
  8
tile
  6
ByLayer
 62
  256
370
   -1
100
AcDbLine
 10
508.3333333333217
 20
258.7713240271436
 11
495.8333333333327
 21
251.5544456622769
  0
LINE
  5
261
100
AcDbEntity
  8
tile
  6
ByLayer
 62
  256
370
   -1
100
AcDbLine
 10
516.6666666666666
 20
215.4700538379259
 11
504.1666666666639
 21
208.2531754730522
  0
LINE
  5
262
100
AcDbEntity
  8
tile
  6
ByLayer
 62
  256
370
   -1
100
AcDbLine
 10
574.9999999999953
 20
201.0362971081832
 11
562.5000000000001
 21
193.8194187433153
  0
LINE
  5
263
100
AcDbEntity
  8
tile
  6
ByLayer
 62
  256
370
   -1
100
AcDbLine
 10
549.999999999996
 20
186.6025403784424
 11
537.5000000000008
 21
179.3856620135745
  0
LINE
  5
264
100
AcDbEntity
  8
tile
  6
ByLayer
 62
  256
370
   -1
100
AcDbLine
 10
583.3333333333335
 20
157.7350269189652
 11
570.8333333333279
 21
150.5181485540933
  0
LINE
  5
265
100
AcDbEntity
  8
tile
  6
ByLayer
 62
  256
370
   -1
100
AcDbLine
 10
558.3333333333326
 20
143.3012701892273
 11
545.8333333333269
 21
136.0843918243554
  0
LINE
  5
266
100
AcDbEntity
  8
tile
  6
ByLayer
 62
  256
370
   -1
100
AcDbLine
 10
616.6666666666346
 20
128.8675134594612
 11
604.1666666666677
 21
121.650635094614
  0
LINE
  5
267
100
AcDbEntity
  8
tile
  6
ByLayer
 62
  256
370
   -1
100
AcDbLine
 10
591.6666666666603
 20
114.4337567297434
 11
579.1666666666646
 21
107.2168783648798
  0
LINE
  5
268
100
AcDbEntity
  8
tile
  6
ByLayer
 62
  256
370
   -1
100
AcDbLine
 10
616.6666666666139
 20
71.13248654044061
 11
604.1666666666663
 21
78.34936490539442
  0
LINE
  5
269
100
AcDbEntity
  8
tile
  6
ByLayer
 62
  256
370
   -1
100
AcDbLine
 10
583.333333333333
 20
42.26497308104113
 11
570.8333333333209
 21
49.4818514459167
  0
LINE
  5
26A
100
AcDbEntity
  8
tile
  6
ByLayer
 62
  256
370
   -1
100
AcDbLine
 10
591.6666666666558
 20
85.56624327026807
 11
579.1666666666645
 21
92.78312163513066
  0
LINE
  5
26B
100
AcDbEntity
  8
tile
  6
ByLayer
 62
  256
370
   -1
100
AcDbLine
 10
558.3333333333319
 20
56.69872981077884
 11
545.8333333333276
 21
63.91560817564981
  0
LINE
  5
26C
100
AcDbEntity
  8
tile
  6
ByLayer
 62
  256
370
   -1
100
AcDbLine
 10
574.9999999999944
 20
-1.036297108180833
 11
562.4999999999991
 21
6.180581256686594
  0
LINE
  5
26D
100
AcDbEntity
  8
tile
  6
ByLayer
 62
  256
370
   -1
100
AcDbLine
 10
549.9999999999947
 20
13.39745962155916
 11
537.4999999999992
 21
20.61433798642655
  0
LINE
  5
26E
100
AcDbEntity
  8
tile
  6
ByLayer
 62
  256
370
   -1
100
AcDbLine
 10
541.666666666667
 20
-29.90381056766431
 11
529.1666666666629
 21
-22.6869322027899
  0
LINE
  5
26F
100
AcDbEntity
  8
tile
  6
ByLayer
 62
  256
370
   -1
100
AcDbLine
 10
516.6666666666689
 20
-15.47005383792147
 11
504.1666666666648
 21
-8.253175473047023
  0
LINE
  5
270
100
AcDbEntity
  8
tile
  6
ByLayer
 62
  256
370
   -1
100
AcDbLine
 10
533.3333333332978
 20
-73.20508075686969
 11
520.8333333333344
 21
-65.98820239201639
  0
LINE
  5
271
100
AcDbEntity
  8
tile
  6
ByLayer
 62
  256
370
   -1
100
AcDbLine
 10
508.3333333333305
 20
-58.77132402713984
 11
495.8333333333384
 21
-51.55444566226988
  0
LINE
  5
272
100
AcDbEntity
  8
tile
  6
ByLayer
 62
  256
370
   -1
100
AcDbLine
 10
483.3333333332371
 20
-102.0725942163621
 11
483.3333333333356
 21
-87.63883748662512
  0
LINE
  5
273
100
AcDbEntity
  8
tile
  6
ByLayer
 62
  256
370
   -1
100
AcDbLine
 10
441.6666666666675
 20
-87.63883748662595
 11
441.666666666666
 21
-73.20508075687216
  0
LINE
  5
274
100
AcDbEntity
  8
tile
  6
ByLayer
 62
  256
370
   -1
100
AcDbLine
 10
483.3333333333333
 20
-73.20508075687367
 11
483.3333333333309
 21
-58.77132402714439
  0
LINE
  5
275
100
AcDbEntity
  8
tile
  6
ByLayer
 62
  256
370
   -1
100
AcDbLine
 10
441.6666666666645
 20
-58.77132402714521
 11
441.6666666666629
 21
-44.33756729740053
  0
LINE
  5
276
100
AcDbEntity
  8
tile
  6
ByLayer
 62
  256
370
   -1
100
AcDbLine
 10
399.9999999999982
 20
-102.0725942163621
 11
399.999999999998
 21
-87.63883748662683
  0
LINE
  5
277
100
AcDbEntity
  8
tile
  6
ByLayer
 62
  256
370
   -1
100
AcDbLine
 10
399.9999999999978
 20
-73.20508075688129
 11
399.9999999999975
 21
-58.77132402714604
  0
LINE
  5
278
100
AcDbEntity
  8
tile
  6
ByLayer
 62
  256
370
   -1
100
AcDbLine
 10
358.3333333333326
 20
-87.63883748662759
 11
358.3333333333341
 21
-73.20508075688126
  0
LINE
  5
279
100
AcDbEntity
  8
tile
  6
ByLayer
 62
  256
370
   -1
100
AcDbLine
 10
358.3333333333355
 20
-58.77132402714686
 11
358.333333333337
 21
-44.33756729740053
  0
LINE
  5
27A
100
AcDbEntity
  8
tile
  6
ByLayer
 62
  256
370
   -1
100
AcDbLine
 10
316.6666666666624
 20
-102.0725942163289
 11
316.6666666666659
 21
-87.63883748662842
  0
LINE
  5
27B
100
AcDbEntity
  8
tile
  6
ByLayer
 62
  256
370
   -1
100
AcDbLine
 10
316.6666666666694
 20
-73.20508075688129
 11
316.666666666673
 21
-58.77132402714768
  0
LINE
  5
27C
100
AcDbEntity
  8
tile
  6
ByLayer
 62
  256
370
   -1
100
AcDbLine
 10
266.6666666666226
 20
-73.2050807568008
 11
279.1666666666688
 21
-65.98820239201758
  0
LINE
  5
27D
100
AcDbEntity
  8
tile
  6
ByLayer
 62
  256
370
   -1
100
AcDbLine
 10
258.3333333333339
 20
-29.90381056766516
 11
270.8333333333446
 21
-22.68693220278693
  0
LINE
  5
27E
100
AcDbEntity
  8
tile
  6
ByLayer
 62
  256
370
   -1
100
AcDbLine
 10
291.666666666677
 20
-58.77132402713978
 11
304.1666666666659
 21
-51.55444566227307
  0
LINE
  5
27F
100
AcDbEntity
  8
tile
  6
ByLayer
 62
  256
370
   -1
100
AcDbLine
 10
283.333333333332
 20
-15.47005383792212
 11
295.8333333333346
 21
-8.253175473048387
  0
LINE
  5
280
100
AcDbEntity
  8
tile
  6
ByLayer
 62
  256
370
   -1
100
AcDbLine
 10
225.0000000000032
 20
-1.036297108179369
 11
237.4999999999984
 21
6.18058125668847
  0
LINE
  5
281
100
AcDbEntity
  8
tile
  6
ByLayer
 62
  256
370
   -1
100
AcDbLine
 10
250.0000000000025
 20
13.39745962156144
 11
262.4999999999977
 21
20.61433798642931
  0
LINE
  5
282
100
AcDbEntity
  8
tile
  6
ByLayer
 62
  256
370
   -1
100
AcDbLine
 10
216.666666666665
 20
42.26497308103856
 11
229.1666666666707
 21
49.4818514459105
  0
LINE
  5
283
100
AcDbEntity
  8
tile
  6
ByLayer
 62
  256
370
   -1
100
AcDbLine
 10
241.6666666666659
 20
56.69872981077647
 11
254.1666666666716
 21
63.91560817564837
  0
LINE
  5
284
100
AcDbEntity
  8
tile
  6
ByLayer
 62
  256
370
   -1
100
AcDbLine
 10
183.3333333333639
 20
71.13248654054262
 11
195.8333333333309
 21
78.34936490538981
  0
LINE
  5
285
100
AcDbEntity
  8
tile
  6
ByLayer
 62
  256
370
   -1
100
AcDbLine
 10
208.3333333333382
 20
85.56624327026037
 11
220.8333333333339
 21
92.78312163512402
  0
LINE
  5
286
100
AcDbEntity
  8
tile
  6
ByLayer
 62
  256
370
   -1
100
AcDbLine
 10
183.3333333333846
 20
128.867513459563
 11
195.8333333333322
 21
121.6506350946092
  0
LINE
  5
287
100
AcDbEntity
  8
tile
  6
ByLayer
 62
  256
370
   -1
100
AcDbLine
 10
216.6666666666655
 20
157.7350269189625
 11
229.1666666666776
 21
150.5181485540869
  0
LINE
  5
288
100
AcDbEntity
  8
tile
  6
ByLayer
 62
  256
370
   -1
100
AcDbLine
 10
208.3333333333428
 20
114.4337567297355
 11
220.8333333333341
 21
107.216878364873
  0
LINE
  5
289
100
AcDbEntity
  8
tile
  6
ByLayer
 62
  256
370
   -1
100
AcDbLine
 10
241.6666666666665
 20
143.3012701892248
 11
254.1666666666708
 21
136.0843918243539
  0
LINE
  5
28A
100
AcDbEntity
  8
tile
  6
ByLayer
 62
  256
370
   -1
100
AcDbLine
 10
225.0000000000039
 20
201.0362971081844
 11
237.4999999999994
 21
193.819418743317
  0
LINE
  5
28B
100
AcDbEntity
  8
tile
  6
ByLayer
 62
  256
370
   -1
100
AcDbLine
 10
250.0000000000037
 20
186.6025403784445
 11
262.4999999999992
 21
179.3856620135771
  0
LINE
  5
28C
100
AcDbEntity
  8
tile
  6
ByLayer
 62
  256
370
   -1
100
AcDbLine
 10
258.3333333333313
 20
229.903810567668
 11
270.8333333333355
 21
222.6869322027936
  0
LINE
  5
28D
100
AcDbEntity
  8
tile
  6
ByLayer
 62
  256
370
   -1
100
AcDbLine
 10
283.3333333333294
 20
215.4700538379252
 11
295.8333333333336
 21
208.2531754730508
  0
LINE
  5
28E
100
AcDbEntity
  8
tile
  6
ByLayer
 62
  256
370
   -1
100
AcDbLine
 10
266.6666666667005
 20
273.2050807568734
 11
279.1666666666639
 21
265.9882023920201
  0
LINE
  5
28F
100
AcDbEntity
  8
tile
  6
ByLayer
 62
  256
370
   -1
100
AcDbLine
 10
291.6666666666678
 20
258.7713240271436
 11
304.1666666666599
 21
251.5544456622736
  0
LINE
  5
290
100
AcDbEntity
  8
helper2
  6
ByLayer
 62
  256
370
   -1
100
AcDbLine
 10
216.6666666666978
 20
302.0725942164229
 11
266.6666666666558
 21
273.2050807568992
  0
LINE
  5
291
100
AcDbEntity
  8
helper2
  6
ByLayer
 62
  256
370
   -1
100
AcDbLine
 10
222.2222222222511
 20
311.6950987028904
 11
272.222222222209
 21
282.8275852433667
  0
LINE
  5
292
100
AcDbEntity
  8
helper2
  6
ByLayer
 62
  256
370
   -1
100
AcDbLine
 10
227.7777777778043
 20
321.3176031893579
 11
277.7777777777623
 21
292.4500897298341
  0
LINE
  5
293
100
AcDbEntity
  8
helper2
  6
ByLayer
 62
  256
370
   -1
100
AcDbLine
 10
233.3333333333305
 20
330.9401076758453
 11
249.9999999999989
 21
302.0725942163623
  0
LINE
  5
294
100
AcDbEntity
  8
helper2
  6
ByLayer
 62
  256
370
   -1
100
AcDbLine
 10
249.9999999999989
 20
302.0725942163623
 11
216.6666666667088
 21
302.0725942164167
  0
LINE
  5
295
100
AcDbEntity
  8
helper2
  6
ByLayer
 62
  256
370
   -1
100
AcDbLine
 10
250.0000000000196
 20
311.6950987028394
 11
216.6666666667191
 21
311.6950987029007
  0
LINE
  5
296
100
AcDbEntity
  8
helper2
  6
ByLayer
 62
  256
370
   -1
100
AcDbLine
 10
250.0000000000373
 20
321.3176031893233
 11
216.6666666667368
 21
321.3176031893846
  0
LINE
  5
297
100
AcDbEntity
  8
helper2
  6
ByLayer
 62
  256
370
   -1
100
AcDbLine
 10
225.0000000000219
 20
326.1288554326125
 11
241.6666666666903
 21
297.2613419731296
  0
LINE
  5
298
100
AcDbEntity
  8
helper2
  6
ByLayer
 62
  256
370
   -1
100
AcDbLine
 10
216.6666666667134
 20
321.3176031893797
 11
233.3333333333818
 21
292.4500897298968
  0
LINE
  5
299
100
AcDbEntity
  8
tile
  6
ByLayer
 62
  256
370
   -1
100
AcDbLine
 10
227.7777777778043
 20
321.3176031893579
 11
238.8888888888908
 21
321.3176031893437
  0
LINE
  5
29A
100
AcDbEntity
  8
tile
  6
ByLayer
 62
  256
370
   -1
100
AcDbLine
 10
238.8888888888908
 20
321.3176031893437
 11
227.7777777778213
 21
302.0725942163986
  0
LINE
  5
29B
100
AcDbEntity
  8
tile
  6
ByLayer
 62
  256
370
   -1
100
AcDbLine
 10
227.7777777778213
 20
302.0725942163986
 11
222.2222222222744
 21
311.695098702877
  0
LINE
  5
29C
100
AcDbEntity
  8
tile
  6
ByLayer
 62
  256
370
   -1
100
AcDbLine
 10
233.3333333333304
 20
330.9401076758453
 11
227.7777777778007
 21
321.3176031893641
  0
LINE
  5
29D
100
AcDbEntity
  8
tile
  6
ByLayer
 62
  256
370
   -1
100
AcDbLine
 10
222.2222222222745
 20
311.695098702877
 11
216.6666666666978
 21
302.072594216423
  0
LINE
  5
29E
100
AcDbEntity
  8
tile
  6
ByLayer
 62
  256
370
   -1
100
AcDbLine
 10
211.1111111111681
 20
292.4500897299292
 11
222.2222222222545
 21
292.4500897299151
  0
LINE
  5
29F
100
AcDbEntity
  8
tile
  6
ByLayer
 62
  256
370
   -1
100
AcDbLine
 10
222.2222222222545
 20
292.4500897299151
 11
211.1111111111851
 21
273.2050807569699
  0
LINE
  5
2A0
100
AcDbEntity
  8
tile
  6
ByLayer
 62
  256
370
   -1
100
AcDbLine
 10
211.1111111111851
 20
273.2050807569699
 11
205.5555555556381
 21
282.8275852434484
  0
LINE
  5
2A1
100
AcDbEntity
  8
tile
  6
ByLayer
 62
  256
370
   -1
100
AcDbLine
 10
216.6666666666942
 20
302.0725942164166
 11
211.1111111111644
 21
292.4500897299355
  0
LINE
  5
2A2
100
AcDbEntity
  8
tile
  6
ByLayer
 62
  256
370
   -1
100
AcDbLine
 10
205.5555555556382
 20
282.8275852434483
 11
200.0000000000616
 21
273.2050807569943
  0
LINE
  5
2A3
100
AcDbEntity
  8
tile
  6
ByLayer
 62
  256
370
   -1
100
AcDbLine
 10
194.4444444445318
 20
263.5825762705006
 11
205.5555555556183
 21
263.5825762704864
  0
LINE
  5
2A4
100
AcDbEntity
  8
tile
  6
ByLayer
 62
  256
370
   -1
100
AcDbLine
 10
205.5555555556183
 20
263.5825762704864
 11
194.4444444445489
 21
244.3375672975413
  0
LINE
  5
2A5
100
AcDbEntity
  8
tile
  6
ByLayer
 62
  256
370
   -1
100
AcDbLine
 10
194.4444444445489
 20
244.3375672975413
 11
188.8888888890019
 21
253.9600717840197
  0
LINE
  5
2A6
100
AcDbEntity
  8
tile
  6
ByLayer
 62
  256
370
   -1
100
AcDbLine
 10
200.000000000058
 20
273.205080756988
 11
194.4444444445282
 21
263.5825762705068
  0
LINE
  5
2A7
100
AcDbEntity
  8
tile
  6
ByLayer
 62
  256
370
   -1
100
AcDbLine
 10
188.888888889002
 20
253.9600717840196
 11
183.3333333334253
 21
244.3375672975657
  0
LINE
  5
2A8
100
AcDbEntity
  8
tile
  6
ByLayer
 62
  256
370
   -1
100
AcDbLine
 10
177.7777777778956
 20
234.7150628110719
 11
188.888888888982
 21
234.7150628110577
  0
LINE
  5
2A9
100
AcDbEntity
  8
tile
  6
ByLayer
 62
  256
370
   -1
100
AcDbLine
 10
188.888888888982
 20
234.7150628110577
 11
177.7777777779126
 21
215.4700538381126
  0
LINE
  5
2AA
100
AcDbEntity
  8
tile
  6
ByLayer
 62
  256
370
   -1
100
AcDbLine
 10
177.7777777779126
 20
215.4700538381126
 11
172.2222222223656
 21
225.092558324591
  0
LINE
  5
2AB
100
AcDbEntity
  8
tile
  6
ByLayer
 62
  256
370
   -1
100
AcDbLine
 10
183.3333333334217
 20
244.3375672975593
 11
177.7777777778919
 21
234.7150628110782
  0
LINE
  5
2AC
100
AcDbEntity
  8
tile
  6
ByLayer
 62
  256
370
   -1
100
AcDbLine
 10
172.2222222223657
 20
225.092558324591
 11
166.6666666667891
 21
215.470053838137
  0
LINE
  5
2AD
100
AcDbEntity
  8
tile
  6
ByLayer
 62
  256
370
   -1
100
AcDbLine
 10
161.1111111112593
 20
205.8475493516432
 11
172.2222222223458
 21
205.8475493516291
  0
LINE
  5
2AE
100
AcDbEntity
  8
tile
  6
ByLayer
 62
  256
370
   -1
100
AcDbLine
 10
172.2222222223458
 20
205.8475493516291
 11
161.1111111112764
 21
186.602540378684
  0
LINE
  5
2AF
100
AcDbEntity
  8
tile
  6
ByLayer
 62
  256
370
   -1
100
AcDbLine
 10
161.1111111112764
 20
186.602540378684
 11
155.5555555557294
 21
196.2250448651624
  0
LINE
  5
2B0
100
AcDbEntity
  8
tile
  6
ByLayer
 62
  256
370
   -1
100
AcDbLine
 10
166.6666666667855
 20
215.4700538381306
 11
161.1111111112557
 21
205.8475493516495
  0
LINE
  5
2B1
100
AcDbEntity
  8
tile
  6
ByLayer
 62
  256
370
   -1
100
AcDbLine
 10
155.5555555557295
 20
196.2250448651623
 11
150.0000000001529
 21
186.6025403787083
  0
LINE
  5
2B2
100
AcDbEntity
  8
tile
  6
ByLayer
 62
  256
370
   -1
100
AcDbLine
 10
144.4444444446231
 20
176.9800358922146
 11
155.5555555557095
 21
176.9800358922004
  0
LINE
  5
2B3
100
AcDbEntity
  8
tile
  6
ByLayer
 62
  256
370
   -1
100
AcDbLine
 10
155.5555555557095
 20
176.9800358922004
 11
144.4444444446401
 21
157.7350269192553
  0
LINE
  5
2B4
100
AcDbEntity
  8
tile
  6
ByLayer
 62
  256
370
   -1
100
AcDbLine
 10
144.4444444446401
 20
157.7350269192553
 11
138.8888888890931
 21
167.3575314057337
  0
LINE
  5
2B5
100
AcDbEntity
  8
tile
  6
ByLayer
 62
  256
370
   -1
100
AcDbLine
 10
150.0000000001492
 20
186.602540378702
 11
144.4444444446194
 21
176.9800358922208
  0
LINE
  5
2B6
100
AcDbEntity
  8
tile
  6
ByLayer
 62
  256
370
   -1
100
AcDbLine
 10
138.8888888890932
 20
167.3575314057337
 11
133.3333333335166
 21
157.7350269192797
  0
LINE
  5
2B7
100
AcDbEntity
  8
tile
  6
ByLayer
 62
  256
370
   -1
100
AcDbLine
 10
127.7777777779868
 20
148.1125224327859
 11
138.8888888890733
 21
148.1125224327718
  0
LINE
  5
2B8
100
AcDbEntity
  8
tile
  6
ByLayer
 62
  256
370
   -1
100
AcDbLine
 10
138.8888888890733
 20
148.1125224327718
 11
127.7777777780039
 21
128.8675134598266
  0
LINE
  5
2B9
100
AcDbEntity
  8
tile
  6
ByLayer
 62
  256
370
   -1
100
AcDbLine
 10
127.7777777780039
 20
128.8675134598266
 11
122.2222222224569
 21
138.490017946305
  0
LINE
  5
2BA
100
AcDbEntity
  8
tile
  6
ByLayer
 62
  256
370
   -1
100
AcDbLine
 10
133.333333333513
 20
157.7350269192733
 11
127.7777777779832
 21
148.1125224327922
  0
LINE
  5
2BB
100
AcDbEntity
  8
tile
  6
ByLayer
 62
  256
370
   -1
100
AcDbLine
 10
122.222222222457
 20
138.490017946305
 11
116.6666666668804
 21
128.867513459851
  0
LINE
  5
2BC
100
AcDbEntity
  8
tile
  6
ByLayer
 62
  256
370
   -1
100
AcDbLine
 10
505.5555555555725
 20
359.8076211353096
 11
511.1111111111035
 21
350.1851166488302
  0
LINE
  5
2BD
100
AcDbEntity
  8
tile
  6
ByLayer
 62
  256
370
   -1
100
AcDbLine
 10
511.1111111111035
 20
350.1851166488302
 11
488.8888888889388
 21
350.1851166488153
  0
LINE
  5
2BE
100
AcDbEntity
  8
tile
  6
ByLayer
 62
  256
370
   -1
100
AcDbLine
 10
488.8888888889388
 20
350.1851166488153
 11
494.4444444444853
 21
359.8076211352939
  0
LINE
  5
2BF
100
AcDbEntity
  8
tile
  6
ByLayer
 62
  256
370
   -1
100
AcDbLine
 10
516.6666666666633
 20
359.8076211353319
 11
505.555555555576
 21
359.807621135316
  0
LINE
  5
2C0
100
AcDbEntity
  8
tile
  6
ByLayer
 62
  256
370
   -1
100
AcDbLine
 10
494.4444444444853
 20
359.8076211352938
 11
483.3333333333981
 21
359.8076211353319
  0
LINE
  5
2C1
100
AcDbEntity
  8
tile
  6
ByLayer
 62
  256
370
   -1
100
AcDbLine
 10
472.2222222222999
 20
359.8076211353096
 11
477.7777777778309
 21
350.1851166488301
  0
LINE
  5
2C2
100
AcDbEntity
  8
tile
  6
ByLayer
 62
  256
370
   -1
100
AcDbLine
 10
477.7777777778309
 20
350.1851166488301
 11
455.5555555556662
 21
350.1851166488152
  0
LINE
  5
2C3
100
AcDbEntity
  8
tile
  6
ByLayer
 62
  256
370
   -1
100
AcDbLine
 10
455.5555555556662
 20
350.1851166488152
 11
461.1111111112128
 21
359.8076211352939
  0
LINE
  5
2C4
100
AcDbEntity
  8
tile
  6
ByLayer
 62
  256
370
   -1
100
AcDbLine
 10
483.3333333333908
 20
359.8076211353319
 11
472.2222222223035
 21
359.8076211353159
  0
LINE
  5
2C5
100
AcDbEntity
  8
tile
  6
ByLayer
 62
  256
370
   -1
100
AcDbLine
 10
461.1111111112128
 20
359.8076211352937
 11
450.0000000001256
 21
359.8076211353319
  0
LINE
  5
2C6
100
AcDbEntity
  8
tile
  6
ByLayer
 62
  256
370
   -1
100
AcDbLine
 10
438.8888888890274
 20
359.8076211353095
 11
444.4444444445583
 21
350.1851166488301
  0
LINE
  5
2C7
100
AcDbEntity
  8
tile
  6
ByLayer
 62
  256
370
   -1
100
AcDbLine
 10
444.4444444445583
 20
350.1851166488301
 11
422.2222222223937
 21
350.1851166488152
  0
LINE
  5
2C8
100
AcDbEntity
  8
tile
  6
ByLayer
 62
  256
370
   -1
100
AcDbLine
 10
422.2222222223937
 20
350.1851166488152
 11
427.7777777779402
 21
359.8076211352939
  0
LINE
  5
2C9
100
AcDbEntity
  8
tile
  6
ByLayer
 62
  256
370
   -1
100
AcDbLine
 10
450.0000000001182
 20
359.8076211353319
 11
438.8888888890309
 21
359.8076211353159
  0
LINE
  5
2CA
100
AcDbEntity
  8
tile
  6
ByLayer
 62
  256
370
   -1
100
AcDbLine
 10
427.7777777779402
 20
359.8076211352937
 11
416.666666666853
 21
359.8076211353319
  0
LINE
  5
2CB
100
AcDbEntity
  8
tile
  6
ByLayer
 62
  256
370
   -1
100
AcDbLine
 10
405.5555555557548
 20
359.8076211353095
 11
411.1111111112858
 21
350.18511664883
  0
LINE
  5
2CC
100
AcDbEntity
  8
tile
  6
ByLayer
 62
  256
370
   -1
100
AcDbLine
 10
411.1111111112858
 20
350.18511664883
 11
388.8888888891211
 21
350.1851166488152
  0
LINE
  5
2CD
100
AcDbEntity
  8
tile
  6
ByLayer
 62
  256
370
   -1
100
AcDbLine
 10
388.8888888891211
 20
350.1851166488152
 11
394.4444444446677
 21
359.8076211352938
  0
LINE
  5
2CE
100
AcDbEntity
  8
tile
  6
ByLayer
 62
  256
370
   -1
100
AcDbLine
 10
416.6666666668457
 20
359.8076211353318
 11
405.5555555557584
 21
359.8076211353158
  0
LINE
  5
2CF
100
AcDbEntity
  8
tile
  6
ByLayer
 62
  256
370
   -1
100
AcDbLine
 10
394.4444444446677
 20
359.8076211352937
 11
383.3333333335805
 21
359.8076211353318
  0
LINE
  5
2D0
100
AcDbEntity
  8
tile
  6
ByLayer
 62
  256
370
   -1
100
AcDbLine
 10
372.2222222224823
 20
359.8076211353095
 11
377.7777777780132
 21
350.18511664883
  0
LINE
  5
2D1
100
AcDbEntity
  8
tile
  6
ByLayer
 62
  256
370
   -1
100
AcDbLine
 10
377.7777777780132
 20
350.18511664883
 11
355.5555555558486
 21
350.1851166488151
  0
LINE
  5
2D2
100
AcDbEntity
  8
tile
  6
ByLayer
 62
  256
370
   -1
100
AcDbLine
 10
355.5555555558486
 20
350.1851166488151
 11
361.1111111113951
 21
359.8076211352938
  0
LINE
  5
2D3
100
AcDbEntity
  8
tile
  6
ByLayer
 62
  256
370
   -1
100
AcDbLine
 10
383.3333333335731
 20
359.8076211353318
 11
372.2222222224858
 21
359.8076211353158
  0
LINE
  5
2D4
100
AcDbEntity
  8
tile
  6
ByLayer
 62
  256
370
   -1
100
AcDbLine
 10
361.1111111113951
 20
359.8076211352936
 11
350.0000000003079
 21
359.8076211353318
  0
LINE
  5
2D5
100
AcDbEntity
  8
tile
  6
ByLayer
 62
  256
370
   -1
100
AcDbLine
 10
338.8888888892097
 20
359.8076211353094
 11
344.4444444447407
 21
350.18511664883
  0
LINE
  5
2D6
100
AcDbEntity
  8
tile
  6
ByLayer
 62
  256
370
   -1
100
AcDbLine
 10
344.4444444447407
 20
350.18511664883
 11
322.222222222576
 21
350.1851166488151
  0
LINE
  5
2D7
100
AcDbEntity
  8
tile
  6
ByLayer
 62
  256
370
   -1
100
AcDbLine
 10
322.222222222576
 20
350.1851166488151
 11
327.7777777781226
 21
359.8076211352937
  0
LINE
  5
2D8
100
AcDbEntity
  8
tile
  6
ByLayer
 62
  256
370
   -1
100
AcDbLine
 10
350.0000000003006
 20
359.8076211353318
 11
338.8888888892133
 21
359.8076211353157
  0
LINE
  5
2D9
100
AcDbEntity
  8
tile
  6
ByLayer
 62
  256
370
   -1
100
AcDbLine
 10
327.7777777781226
 20
359.8076211352936
 11
316.6666666670354
 21
359.8076211353318
  0
LINE
  5
2DA
100
AcDbEntity
  8
tile
  6
ByLayer
 62
  256
370
   -1
100
AcDbLine
 10
305.5555555559372
 20
359.8076211353094
 11
311.1111111114681
 21
350.18511664883
  0
LINE
  5
2DB
100
AcDbEntity
  8
tile
  6
ByLayer
 62
  256
370
   -1
100
AcDbLine
 10
311.1111111114681
 20
350.18511664883
 11
288.8888888893035
 21
350.185116648815
  0
LINE
  5
2DC
100
AcDbEntity
  8
tile
  6
ByLayer
 62
  256
370
   -1
100
AcDbLine
 10
288.8888888893035
 20
350.185116648815
 11
294.44444444485
 21
359.8076211352937
  0
LINE
  5
2DD
100
AcDbEntity
  8
tile
  6
ByLayer
 62
  256
370
   -1
100
AcDbLine
 10
316.666666667028
 20
359.8076211353318
 11
305.5555555559408
 21
359.8076211353157
  0
LINE
  5
2DE
100
AcDbEntity
  8
tile
  6
ByLayer
 62
  256
370
   -1
100
AcDbLine
 10
294.44444444485
 20
359.8076211352936
 11
283.3333333337628
 21
359.8076211353317
  0
LINE
  5
2DF
100
AcDbEntity
  8
tile
  6
ByLayer
 62
  256
370
   -1
100
AcDbLine
 10
677.7777777777696
 20
138.4900179459498
 11
672.2222222222142
 21
128.8675134594845
  0
LINE
  5
2E0
100
AcDbEntity
  8
tile
  6
ByLayer
 62
  256
370
   -1
100
AcDbLine
 10
672.2222222222142
 20
128.8675134594845
 11
661.111111111119
 21
148.1125224324147
  0
LINE
  5
2E1
100
AcDbEntity
  8
tile
  6
ByLayer
 62
  256
370
   -1
100
AcDbLine
 10
661.111111111119
 20
148.1125224324147
 11
672.2222222222125
 21
148.1125224324149
  0
LINE
  5
2E2
100
AcDbEntity
  8
tile
  6
ByLayer
 62
  256
370
   -1
100
AcDbLine
 10
683.3333333333344
 20
128.8675134594847
 11
677.7777777777769
 21
138.4900179459498
  0
LINE
  5
2E3
100
AcDbEntity
  8
tile
  6
ByLayer
 62
  256
370
   -1
100
AcDbLine
 10
672.2222222222124
 20
148.1125224324149
 11
666.6666666667018
 21
157.735026918907
  0
LINE
  5
2E4
100
AcDbEntity
  8
tile
  6
ByLayer
 62
  256
370
   -1
100
AcDbLine
 10
661.1111111111334
 20
167.3575314053784
 11
655.5555555555779
 21
157.7350269189131
  0
LINE
  5
2E5
100
AcDbEntity
  8
tile
  6
ByLayer
 62
  256
370
   -1
100
AcDbLine
 10
655.5555555555779
 20
157.7350269189131
 11
644.4444444444827
 21
176.9800358918433
  0
LINE
  5
2E6
100
AcDbEntity
  8
tile
  6
ByLayer
 62
  256
370
   -1
100
AcDbLine
 10
644.4444444444827
 20
176.9800358918433
 11
655.5555555555761
 21
176.9800358918436
  0
LINE
  5
2E7
100
AcDbEntity
  8
tile
  6
ByLayer
 62
  256
370
   -1
100
AcDbLine
 10
666.6666666666981
 20
157.7350269189133
 11
661.1111111111406
 21
167.3575314053785
  0
LINE
  5
2E8
100
AcDbEntity
  8
tile
  6
ByLayer
 62
  256
370
   -1
100
AcDbLine
 10
655.5555555555761
 20
176.9800358918435
 11
650.0000000000655
 21
186.6025403783356
  0
LINE
  5
2E9
100
AcDbEntity
  8
tile
  6
ByLayer
 62
  256
370
   -1
100
AcDbLine
 10
644.4444444444971
 20
196.225044864807
 11
638.8888888889417
 21
186.6025403783417
  0
LINE
  5
2EA
100
AcDbEntity
  8
tile
  6
ByLayer
 62
  256
370
   -1
100
AcDbLine
 10
638.8888888889417
 20
186.6025403783417
 11
627.7777777778464
 21
205.8475493512719
  0
LINE
  5
2EB
100
AcDbEntity
  8
tile
  6
ByLayer
 62
  256
370
   -1
100
AcDbLine
 10
627.7777777778464
 20
205.8475493512719
 11
638.8888888889398
 21
205.8475493512722
  0
LINE
  5
2EC
100
AcDbEntity
  8
tile
  6
ByLayer
 62
  256
370
   -1
100
AcDbLine
 10
650.0000000000618
 20
186.602540378342
 11
644.4444444445044
 21
196.2250448648071
  0
LINE
  5
2ED
100
AcDbEntity
  8
tile
  6
ByLayer
 62
  256
370
   -1
100
AcDbLine
 10
638.8888888889398
 20
205.8475493512721
 11
633.3333333334292
 21
215.4700538377643
  0
LINE
  5
2EE
100
AcDbEntity
  8
tile
  6
ByLayer
 62
  256
370
   -1
100
AcDbLine
 10
627.7777777778608
 20
225.0925583242357
 11
622.2222222223053
 21
215.4700538377703
  0
LINE
  5
2EF
100
AcDbEntity
  8
tile
  6
ByLayer
 62
  256
370
   -1
100
AcDbLine
 10
622.2222222223053
 20
215.4700538377703
 11
611.11111111121
 21
234.7150628107006
  0
LINE
  5
2F0
100
AcDbEntity
  8
tile
  6
ByLayer
 62
  256
370
   -1
100
AcDbLine
 10
611.11111111121
 20
234.7150628107006
 11
622.2222222223036
 21
234.7150628107008
  0
LINE
  5
2F1
100
AcDbEntity
  8
tile
  6
ByLayer
 62
  256
370
   -1
100
AcDbLine
 10
633.3333333334256
 20
215.4700538377706
 11
627.777777777868
 21
225.0925583242357
  0
LINE
  5
2F2
100
AcDbEntity
  8
tile
  6
ByLayer
 62
  256
370
   -1
100
AcDbLine
 10
622.2222222223035
 20
234.7150628107007
 11
616.6666666667929
 21
244.3375672971929
  0
LINE
  5
2F3
100
AcDbEntity
  8
tile
  6
ByLayer
 62
  256
370
   -1
100
AcDbLine
 10
611.1111111112244
 20
253.9600717836643
 11
605.555555555669
 21
244.337567297199
  0
LINE
  5
2F4
100
AcDbEntity
  8
tile
  6
ByLayer
 62
  256
370
   -1
100
AcDbLine
 10
605.555555555669
 20
244.337567297199
 11
594.4444444445737
 21
263.5825762701292
  0
LINE
  5
2F5
100
AcDbEntity
  8
tile
  6
ByLayer
 62
  256
370
   -1
100
AcDbLine
 10
594.4444444445737
 20
263.5825762701292
 11
605.5555555556673
 21
263.5825762701294
  0
LINE
  5
2F6
100
AcDbEntity
  8
tile
  6
ByLayer
 62
  256
370
   -1
100
AcDbLine
 10
616.6666666667892
 20
244.3375672971992
 11
611.1111111112317
 21
253.9600717836643
  0
LINE
  5
2F7
100
AcDbEntity
  8
tile
  6
ByLayer
 62
  256
370
   -1
100
AcDbLine
 10
605.5555555556672
 20
263.5825762701294
 11
600.0000000001567
 21
273.2050807566215
  0
LINE
  5
2F8
100
AcDbEntity
  8
tile
  6
ByLayer
 62
  256
370
   -1
100
AcDbLine
 10
594.4444444445882
 20
282.8275852430929
 11
588.8888888890326
 21
273.2050807566276
  0
LINE
  5
2F9
100
AcDbEntity
  8
tile
  6
ByLayer
 62
  256
370
   -1
100
AcDbLine
 10
588.8888888890326
 20
273.2050807566276
 11
577.7777777779374
 21
292.4500897295578
  0
LINE
  5
2FA
100
AcDbEntity
  8
tile
  6
ByLayer
 62
  256
370
   -1
100
AcDbLine
 10
577.7777777779374
 20
292.4500897295578
 11
588.8888888890309
 21
292.450089729558
  0
LINE
  5
2FB
100
AcDbEntity
  8
tile
  6
ByLayer
 62
  256
370
   -1
100
AcDbLine
 10
600.0000000001529
 20
273.2050807566278
 11
594.4444444445953
 21
282.827585243093
  0
LINE
  5
2FC
100
AcDbEntity
  8
tile
  6
ByLayer
 62
  256
370
   -1
100
AcDbLine
 10
588.8888888890308
 20
292.450089729558
 11
583.3333333335203
 21
302.0725942160501
  0
LINE
  5
2FD
100
AcDbEntity
  8
tile
  6
ByLayer
 62
  256
370
   -1
100
AcDbLine
 10
577.7777777779518
 20
311.6950987025215
 11
572.2222222223963
 21
302.0725942160562
  0
LINE
  5
2FE
100
AcDbEntity
  8
tile
  6
ByLayer
 62
  256
370
   -1
100
AcDbLine
 10
572.2222222223963
 20
302.0725942160562
 11
561.1111111113011
 21
321.3176031889864
  0
LINE
  5
2FF
100
AcDbEntity
  8
tile
  6
ByLayer
 62
  256
370
   -1
100
AcDbLine
 10
561.1111111113011
 20
321.3176031889864
 11
572.2222222223946
 21
321.3176031889867
  0
LINE
  5
300
100
AcDbEntity
  8
tile
  6
ByLayer
 62
  256
370
   -1
100
AcDbLine
 10
583.3333333335166
 20
302.0725942160565
 11
577.777777777959
 21
311.6950987025216
  0
LINE
  5
301
100
AcDbEntity
  8
tile
  6
ByLayer
 62
  256
370
   -1
100
AcDbLine
 10
572.2222222223945
 20
321.3176031889866
 11
566.666666666884
 21
330.9401076754788
  0
LINE
  5
302
100
AcDbEntity
  8
tile
  6
ByLayer
 62
  256
370
   -1
100
AcDbLine
 10
566.6666666666724
 20
-130.9401076758494
 11
572.2222222222023
 21
-121.3176031893682
  0
LINE
  5
303
100
AcDbEntity
  8
tile
  6
ByLayer
 62
  256
370
   -1
100
AcDbLine
 10
577.7777777777285
 20
-111.6950987028811
 11
583.3333333333051
 21
-102.0725942164271
  0
LINE
  5
304
100
AcDbEntity
  8
tile
  6
ByLayer
 62
  256
370
   -1
100
AcDbLine
 10
583.3333333333087
 20
-102.0725942164207
 11
588.8888888888386
 21
-92.45008972993958
  0
LINE
  5
305
100
AcDbEntity
  8
tile
  6
ByLayer
 62
  256
370
   -1
100
AcDbLine
 10
594.4444444443648
 20
-82.8275852434524
 11
599.9999999999413
 21
-73.20508075699843
  0
LINE
  5
306
100
AcDbEntity
  8
tile
  6
ByLayer
 62
  256
370
   -1
100
AcDbLine
 10
599.999999999945
 20
-73.20508075699206
 11
605.5555555554748
 21
-63.58257627051091
  0
LINE
  5
307
100
AcDbEntity
  8
tile
  6
ByLayer
 62
  256
370
   -1
100
AcDbLine
 10
611.111111111001
 20
-53.96007178402377
 11
616.6666666665776
 21
-44.33756729756979
  0
LINE
  5
308
100
AcDbEntity
  8
tile
  6
ByLayer
 62
  256
370
   -1
100
AcDbLine
 10
616.6666666665812
 20
-44.33756729756342
 11
622.2222222221111
 21
-34.71506281108228
  0
LINE
  5
309
100
AcDbEntity
  8
tile
  6
ByLayer
 62
  256
370
   -1
100
AcDbLine
 10
627.7777777776373
 20
-25.0925583245951
 11
633.3333333332139
 21
-15.47005383814113
  0
LINE
  5
30A
100
AcDbEntity
  8
tile
  6
ByLayer
 62
  256
370
   -1
100
AcDbLine
 10
633.3333333332175
 20
-15.47005383813476
 11
638.8888888887474
 21
-5.847549351653612
  0
LINE
  5
30B
100
AcDbEntity
  8
tile
  6
ByLayer
 62
  256
370
   -1
100
AcDbLine
 10
644.4444444442736
 20
3.774955134833547
 11
649.9999999998502
 21
13.39745962128752
  0
LINE
  5
30C
100
AcDbEntity
  8
tile
  6
ByLayer
 62
  256
370
   -1
100
AcDbLine
 10
649.9999999998538
 20
13.39745962129389
 11
655.5555555553835
 21
23.01996410777504
  0
LINE
  5
30D
100
AcDbEntity
  8
tile
  6
ByLayer
 62
  256
370
   -1
100
AcDbLine
 10
661.1111111109097
 20
32.64246859426221
 11
666.6666666664864
 21
42.26497308071618
  0
LINE
  5
30E
100
AcDbEntity
  8
tile
  6
ByLayer
 62
  256
370
   -1
100
AcDbLine
 10
666.6666666664901
 20
42.26497308072255
 11
672.2222222220198
 21
51.8874775672037
  0
LINE
  5
30F
100
AcDbEntity
  8
tile
  6
ByLayer
 62
  256
370
   -1
100
AcDbLine
 10
677.7777777775461
 20
61.50998205369086
 11
683.3333333331227
 21
71.13248654014484
  0
LINE
  5
310
100
AcDbEntity
  8
tile
  6
ByLayer
 62
  256
370
   -1
100
AcDbLine
 10
572.2222222222371
 20
-121.3176031893843
 11
577.7777777777926
 21
-130.9401076758495
  0
LINE
  5
311
100
AcDbEntity
  8
tile
  6
ByLayer
 62
  256
370
   -1
100
AcDbLine
 10
577.7777777777926
 20
-130.9401076758495
 11
588.8888888888879
 21
-111.6950987029194
  0
LINE
  5
312
100
AcDbEntity
  8
tile
  6
ByLayer
 62
  256
370
   -1
100
AcDbLine
 10
588.8888888888879
 20
-111.6950987029194
 11
577.7777777777943
 21
-111.6950987029191
  0
LINE
  5
313
100
AcDbEntity
  8
tile
  6
ByLayer
 62
  256
370
   -1
100
AcDbLine
 10
588.8888888888733
 20
-92.45008972995555
 11
594.4444444444289
 21
-102.0725942164209
  0
LINE
  5
314
100
AcDbEntity
  8
tile
  6
ByLayer
 62
  256
370
   -1
100
AcDbLine
 10
594.4444444444289
 20
-102.0725942164209
 11
605.5555555555242
 21
-82.82758524349066
  0
LINE
  5
315
100
AcDbEntity
  8
tile
  6
ByLayer
 62
  256
370
   -1
100
AcDbLine
 10
605.5555555555242
 20
-82.82758524349066
 11
594.4444444444306
 21
-82.82758524349038
  0
LINE
  5
316
100
AcDbEntity
  8
tile
  6
ByLayer
 62
  256
370
   -1
100
AcDbLine
 10
605.5555555555097
 20
-63.582576270527
 11
611.1111111110653
 21
-73.20508075699234
  0
LINE
  5
317
100
AcDbEntity
  8
tile
  6
ByLayer
 62
  256
370
   -1
100
AcDbLine
 10
611.1111111110653
 20
-73.20508075699234
 11
622.2222222221604
 21
-53.96007178406202
  0
LINE
  5
318
100
AcDbEntity
  8
tile
  6
ByLayer
 62
  256
370
   -1
100
AcDbLine
 10
622.2222222221604
 20
-53.96007178406202
 11
611.1111111110669
 21
-53.96007178406177
  0
LINE
  5
319
100
AcDbEntity
  8
tile
  6
ByLayer
 62
  256
370
   -1
100
AcDbLine
 10
622.222222222146
 20
-34.71506281109839
 11
627.7777777777015
 21
-44.33756729756365
  0
LINE
  5
31A
100
AcDbEntity
  8
tile
  6
ByLayer
 62
  256
370
   -1
100
AcDbLine
 10
627.7777777777015
 20
-44.33756729756365
 11
638.8888888887967
 21
-25.09255832463339
  0
LINE
  5
31B
100
AcDbEntity
  8
tile
  6
ByLayer
 62
  256
370
   -1
100
AcDbLine
 10
638.8888888887967
 20
-25.09255832463339
 11
627.7777777777032
 21
-25.09255832463322
  0
LINE
  5
31C
100
AcDbEntity
  8
tile
  6
ByLayer
 62
  256
370
   -1
100
AcDbLine
 10
638.8888888887823
 20
-5.847549351669699
 11
644.4444444443378
 21
-15.47005383813499
  0
LINE
  5
31D
100
AcDbEntity
  8
tile
  6
ByLayer
 62
  256
370
   -1
100
AcDbLine
 10
644.4444444443378
 20
-15.47005383813499
 11
655.555555555433
 21
3.774955134795277
  0
LINE
  5
31E
100
AcDbEntity
  8
tile
  6
ByLayer
 62
  256
370
   -1
100
AcDbLine
 10
655.555555555433
 20
3.774955134795277
 11
644.4444444443395
 21
3.774955134795434
  0
LINE
  5
31F
100
AcDbEntity
  8
tile
  6
ByLayer
 62
  256
370
   -1
100
AcDbLine
 10
655.5555555554186
 20
23.01996410775894
 11
661.1111111109741
 21
13.39745962129365
  0
LINE
  5
320
100
AcDbEntity
  8
tile
  6
ByLayer
 62
  256
370
   -1
100
AcDbLine
 10
661.1111111109741
 20
13.39745962129365
 11
672.2222222220693
 21
32.64246859422391
  0
LINE
  5
321
100
AcDbEntity
  8
tile
  6
ByLayer
 62
  256
370
   -1
100
AcDbLine
 10
672.2222222220693
 20
32.64246859422391
 11
661.1111111109758
 21
32.64246859422408
  0
LINE
  5
322
100
AcDbEntity
  8
tile
  6
ByLayer
 62
  256
370
   -1
100
AcDbLine
 10
672.2222222220548
 20
51.8874775671876
 11
677.7777777776104
 21
42.26497308072231
  0
LINE
  5
323
100
AcDbEntity
  8
tile
  6
ByLayer
 62
  256
370
   -1
100
AcDbLine
 10
677.7777777776104
 20
42.26497308072231
 11
688.8888888887057
 21
61.50998205365246
  0
LINE
  5
324
100
AcDbEntity
  8
tile
  6
ByLayer
 62
  256
370
   -1
100
AcDbLine
 10
688.8888888887057
 20
61.50998205365246
 11
677.7777777776121
 21
61.50998205365273
  0
LINE
  5
325
100
AcDbEntity
  8
tile
  6
ByLayer
 62
  256
370
   -1
100
AcDbLine
 10
283.333333333335
 20
-159.8076211353358
 11
294.4444444444223
 21
-159.8076211353199
  0
LINE
  5
326
100
AcDbEntity
  8
tile
  6
ByLayer
 62
  256
370
   -1
100
AcDbLine
 10
305.5555555555131
 20
-159.8076211352977
 11
316.6666666666002
 21
-159.8076211353358
  0
LINE
  5
327
100
AcDbEntity
  8
tile
  6
ByLayer
 62
  256
370
   -1
100
AcDbLine
 10
316.6666666666076
 20
-159.8076211353358
 11
327.7777777776949
 21
-159.8076211353199
  0
LINE
  5
328
100
AcDbEntity
  8
tile
  6
ByLayer
 62
  256
370
   -1
100
AcDbLine
 10
338.8888888887856
 20
-159.8076211352977
 11
349.9999999998728
 21
-159.8076211353358
  0
LINE
  5
329
100
AcDbEntity
  8
tile
  6
ByLayer
 62
  256
370
   -1
100
AcDbLine
 10
349.9999999998801
 20
-159.8076211353358
 11
361.1111111109675
 21
-159.8076211353198
  0
LINE
  5
32A
100
AcDbEntity
  8
tile
  6
ByLayer
 62
  256
370
   -1
100
AcDbLine
 10
372.2222222220582
 20
-159.8076211352977
 11
383.3333333331453
 21
-159.8076211353358
  0
LINE
  5
32B
100
AcDbEntity
  8
tile
  6
ByLayer
 62
  256
370
   -1
100
AcDbLine
 10
383.3333333331527
 20
-159.8076211353358
 11
394.44444444424
 21
-159.8076211353198
  0
LINE
  5
32C
100
AcDbEntity
  8
tile
  6
ByLayer
 62
  256
370
   -1
100
AcDbLine
 10
405.5555555553307
 20
-159.8076211352977
 11
416.6666666664179
 21
-159.8076211353358
  0
LINE
  5
32D
100
AcDbEntity
  8
tile
  6
ByLayer
 62
  256
370
   -1
100
AcDbLine
 10
416.6666666664253
 20
-159.8076211353358
 11
427.7777777775126
 21
-159.8076211353198
  0
LINE
  5
32E
100
AcDbEntity
  8
tile
  6
ByLayer
 62
  256
370
   -1
100
AcDbLine
 10
438.8888888886033
 20
-159.8076211352977
 11
449.9999999996904
 21
-159.8076211353358
  0
LINE
  5
32F
100
AcDbEntity
  8
tile
  6
ByLayer
 62
  256
370
   -1
100
AcDbLine
 10
449.9999999996978
 20
-159.8076211353358
 11
461.111111110785
 21
-159.8076211353197
  0
LINE
  5
330
100
AcDbEntity
  8
tile
  6
ByLayer
 62
  256
370
   -1
100
AcDbLine
 10
472.2222222218758
 20
-159.8076211352976
 11
483.333333332963
 21
-159.8076211353358
  0
LINE
  5
331
100
AcDbEntity
  8
tile
  6
ByLayer
 62
  256
370
   -1
100
AcDbLine
 10
483.3333333329704
 20
-159.8076211353358
 11
494.4444444440576
 21
-159.8076211353197
  0
LINE
  5
332
100
AcDbEntity
  8
tile
  6
ByLayer
 62
  256
370
   -1
100
AcDbLine
 10
505.5555555551484
 20
-159.8076211352977
 11
516.6666666662355
 21
-159.8076211353358
  0
LINE
  5
333
100
AcDbEntity
  8
tile
  6
ByLayer
 62
  256
370
   -1
100
AcDbLine
 10
294.4444444444258
 20
-159.807621135358
 11
288.888888888895
 21
-169.4301256218375
  0
LINE
  5
334
100
AcDbEntity
  8
tile
  6
ByLayer
 62
  256
370
   -1
100
AcDbLine
 10
288.888888888895
 20
-169.4301256218375
 11
311.1111111110596
 21
-169.4301256218525
  0
LINE
  5
335
100
AcDbEntity
  8
tile
  6
ByLayer
 62
  256
370
   -1
100
AcDbLine
 10
311.1111111110596
 20
-169.4301256218525
 11
305.555555555513
 21
-159.8076211353738
  0
LINE
  5
336
100
AcDbEntity
  8
tile
  6
ByLayer
 62
  256
370
   -1
100
AcDbLine
 10
327.7777777776984
 20
-159.807621135358
 11
322.2222222221675
 21
-169.4301256218375
  0
LINE
  5
337
100
AcDbEntity
  8
tile
  6
ByLayer
 62
  256
370
   -1
100
AcDbLine
 10
322.2222222221675
 20
-169.4301256218375
 11
344.4444444443322
 21
-169.4301256218524
  0
LINE
  5
338
100
AcDbEntity
  8
tile
  6
ByLayer
 62
  256
370
   -1
100
AcDbLine
 10
344.4444444443322
 20
-169.4301256218524
 11
338.8888888887857
 21
-159.8076211353737
  0
LINE
  5
339
100
AcDbEntity
  8
tile
  6
ByLayer
 62
  256
370
   -1
100
AcDbLine
 10
361.111111110971
 20
-159.8076211353581
 11
355.55555555544
 21
-169.4301256218376
  0
LINE
  5
33A
100
AcDbEntity
  8
tile
  6
ByLayer
 62
  256
370
   -1
100
AcDbLine
 10
355.55555555544
 20
-169.4301256218376
 11
377.7777777776048
 21
-169.4301256218524
  0
LINE
  5
33B
100
AcDbEntity
  8
tile
  6
ByLayer
 62
  256
370
   -1
100
AcDbLine
 10
377.7777777776048
 20
-169.4301256218524
 11
372.2222222220582
 21
-159.8076211353737
  0
LINE
  5
33C
100
AcDbEntity
  8
tile
  6
ByLayer
 62
  256
370
   -1
100
AcDbLine
 10
394.4444444442435
 20
-159.8076211353581
 11
388.8888888887126
 21
-169.4301256218376
  0
LINE
  5
33D
100
AcDbEntity
  8
tile
  6
ByLayer
 62
  256
370
   -1
100
AcDbLine
 10
388.8888888887126
 20
-169.4301256218376
 11
411.1111111108773
 21
-169.4301256218524
  0
LINE
  5
33E
100
AcDbEntity
  8
tile
  6
ByLayer
 62
  256
370
   -1
100
AcDbLine
 10
411.1111111108773
 20
-169.4301256218524
 11
405.5555555553307
 21
-159.8076211353739
  0
LINE
  5
33F
100
AcDbEntity
  8
tile
  6
ByLayer
 62
  256
370
   -1
100
AcDbLine
 10
427.7777777775161
 20
-159.8076211353581
 11
422.2222222219852
 21
-169.4301256218376
  0
LINE
  5
340
100
AcDbEntity
  8
tile
  6
ByLayer
 62
  256
370
   -1
100
AcDbLine
 10
422.2222222219852
 20
-169.4301256218376
 11
444.4444444441498
 21
-169.4301256218524
  0
LINE
  5
341
100
AcDbEntity
  8
tile
  6
ByLayer
 62
  256
370
   -1
100
AcDbLine
 10
444.4444444441498
 20
-169.4301256218524
 11
438.8888888886033
 21
-159.8076211353739
  0
LINE
  5
342
100
AcDbEntity
  8
tile
  6
ByLayer
 62
  256
370
   -1
100
AcDbLine
 10
461.1111111107886
 20
-159.8076211353581
 11
455.5555555552577
 21
-169.4301256218376
  0
LINE
  5
343
100
AcDbEntity
  8
tile
  6
ByLayer
 62
  256
370
   -1
100
AcDbLine
 10
455.5555555552577
 20
-169.4301256218376
 11
477.7777777774224
 21
-169.4301256218524
  0
LINE
  5
344
100
AcDbEntity
  8
tile
  6
ByLayer
 62
  256
370
   -1
100
AcDbLine
 10
477.7777777774224
 20
-169.4301256218524
 11
472.2222222218758
 21
-159.8076211353738
  0
LINE
  5
345
100
AcDbEntity
  8
tile
  6
ByLayer
 62
  256
370
   -1
100
AcDbLine
 10
494.4444444440612
 20
-159.8076211353581
 11
488.8888888885303
 21
-169.4301256218376
  0
LINE
  5
346
100
AcDbEntity
  8
tile
  6
ByLayer
 62
  256
370
   -1
100
AcDbLine
 10
488.8888888885303
 20
-169.4301256218376
 11
511.1111111106949
 21
-169.4301256218526
  0
LINE
  5
347
100
AcDbEntity
  8
tile
  6
ByLayer
 62
  256
370
   -1
100
AcDbLine
 10
511.1111111106949
 20
-169.4301256218526
 11
505.5555555551483
 21
-159.8076211353738
  0
LINE
  5
348
100
AcDbEntity
  8
tile
  6
ByLayer
 62
  256
370
   -1
100
AcDbLine
 10
116.6666666666618
 20
71.13248654051546
 11
122.2222222222193
 21
61.50998205405025
  0
LINE
  5
349
100
AcDbEntity
  8
tile
  6
ByLayer
 62
  256
370
   -1
100
AcDbLine
 10
127.7777777777838
 20
51.88747756758524
 11
133.3333333332944
 21
42.26497308109315
  0
LINE
  5
34A
100
AcDbEntity
  8
tile
  6
ByLayer
 62
  256
370
   -1
100
AcDbLine
 10
133.3333333332981
 20
42.26497308108681
 11
138.8888888888555
 21
32.64246859462163
  0
LINE
  5
34B
100
AcDbEntity
  8
tile
  6
ByLayer
 62
  256
370
   -1
100
AcDbLine
 10
144.4444444444201
 20
23.01996410815657
 11
149.9999999999307
 21
13.39745962166448
  0
LINE
  5
34C
100
AcDbEntity
  8
tile
  6
ByLayer
 62
  256
370
   -1
100
AcDbLine
 10
149.9999999999344
 20
13.39745962165817
 11
155.5555555554919
 21
3.774955135192968
  0
LINE
  5
34D
100
AcDbEntity
  8
tile
  6
ByLayer
 62
  256
370
   -1
100
AcDbLine
 10
161.1111111110564
 20
-5.847549351272093
 11
166.666666666567
 21
-15.47005383776415
  0
LINE
  5
34E
100
AcDbEntity
  8
tile
  6
ByLayer
 62
  256
370
   -1
100
AcDbLine
 10
166.6666666665707
 20
-15.47005383777049
 11
172.2222222221282
 21
-25.0925583242357
  0
LINE
  5
34F
100
AcDbEntity
  8
tile
  6
ByLayer
 62
  256
370
   -1
100
AcDbLine
 10
177.7777777776927
 20
-34.71506281070073
 11
183.3333333332033
 21
-44.33756729719279
  0
LINE
  5
350
100
AcDbEntity
  8
tile
  6
ByLayer
 62
  256
370
   -1
100
AcDbLine
 10
183.333333333207
 20
-44.33756729719916
 11
188.8888888887645
 21
-53.96007178366433
  0
LINE
  5
351
100
AcDbEntity
  8
tile
  6
ByLayer
 62
  256
370
   -1
100
AcDbLine
 10
194.444444444329
 20
-63.58257627012937
 11
199.9999999998396
 21
-73.20508075662146
  0
LINE
  5
352
100
AcDbEntity
  8
tile
  6
ByLayer
 62
  256
370
   -1
100
AcDbLine
 10
199.9999999998433
 20
-73.20508075662779
 11
205.5555555554008
 21
-82.82758524309288
  0
LINE
  5
353
100
AcDbEntity
  8
tile
  6
ByLayer
 62
  256
370
   -1
100
AcDbLine
 10
211.1111111109653
 20
-92.45008972955794
 11
216.6666666664759
 21
-102.0725942160501
  0
LINE
  5
354
100
AcDbEntity
  8
tile
  6
ByLayer
 62
  256
370
   -1
100
AcDbLine
 10
216.6666666664796
 20
-102.0725942160564
 11
222.2222222220371
 21
-111.6950987025215
  0
LINE
  5
355
100
AcDbEntity
  8
tile
  6
ByLayer
 62
  256
370
   -1
100
AcDbLine
 10
227.7777777776016
 20
-121.3176031889867
 11
233.3333333331121
 21
-130.9401076754787
  0
LINE
  5
356
100
AcDbEntity
  8
tile
  6
ByLayer
 62
  256
370
   -1
100
AcDbLine
 10
122.222222222188
 20
61.50998205402814
 11
111.1111111111016
 21
61.5099820540139
  0
LINE
  5
357
100
AcDbEntity
  8
tile
  6
ByLayer
 62
  256
370
   -1
100
AcDbLine
 10
111.1111111111016
 20
61.5099820540139
 11
122.222222222171
 21
42.26497308106879
  0
LINE
  5
358
100
AcDbEntity
  8
tile
  6
ByLayer
 62
  256
370
   -1
100
AcDbLine
 10
122.222222222171
 20
42.26497308106879
 11
127.777777777718
 21
51.88747756754724
  0
LINE
  5
359
100
AcDbEntity
  8
tile
  6
ByLayer
 62
  256
370
   -1
100
AcDbLine
 10
138.8888888888244
 20
32.64246859459949
 11
127.7777777777379
 21
32.64246859458528
  0
LINE
  5
35A
100
AcDbEntity
  8
tile
  6
ByLayer
 62
  256
370
   -1
100
AcDbLine
 10
127.7777777777379
 20
32.64246859458528
 11
138.8888888888073
 21
13.3974596216401
  0
LINE
  5
35B
100
AcDbEntity
  8
tile
  6
ByLayer
 62
  256
370
   -1
100
AcDbLine
 10
138.8888888888073
 20
13.3974596216401
 11
144.4444444443543
 21
23.01996410811854
  0
LINE
  5
35C
100
AcDbEntity
  8
tile
  6
ByLayer
 62
  256
370
   -1
100
AcDbLine
 10
155.5555555554605
 20
3.774955135170771
 11
144.444444444374
 21
3.774955135156588
  0
LINE
  5
35D
100
AcDbEntity
  8
tile
  6
ByLayer
 62
  256
370
   -1
100
AcDbLine
 10
144.444444444374
 20
3.774955135156588
 11
155.5555555554436
 21
-15.47005383778854
  0
LINE
  5
35E
100
AcDbEntity
  8
tile
  6
ByLayer
 62
  256
370
   -1
100
AcDbLine
 10
155.5555555554436
 20
-15.47005383778854
 11
161.1111111109905
 21
-5.847549351310093
  0
LINE
  5
35F
100
AcDbEntity
  8
tile
  6
ByLayer
 62
  256
370
   -1
100
AcDbLine
 10
172.2222222220967
 20
-25.09255832425784
 11
161.1111111110104
 21
-25.0925583242721
  0
LINE
  5
360
100
AcDbEntity
  8
tile
  6
ByLayer
 62
  256
370
   -1
100
AcDbLine
 10
161.1111111110104
 20
-25.0925583242721
 11
172.2222222220798
 21
-44.33756729721718
  0
LINE
  5
361
100
AcDbEntity
  8
tile
  6
ByLayer
 62
  256
370
   -1
100
AcDbLine
 10
172.2222222220798
 20
-44.33756729721718
 11
177.7777777776267
 21
-34.71506281073879
  0
LINE
  5
362
100
AcDbEntity
  8
tile
  6
ByLayer
 62
  256
370
   -1
100
AcDbLine
 10
188.8888888887331
 20
-53.9600717836865
 11
177.7777777776466
 21
-53.96007178370077
  0
LINE
  5
363
100
AcDbEntity
  8
tile
  6
ByLayer
 62
  256
370
   -1
100
AcDbLine
 10
177.7777777776466
 20
-53.96007178370077
 11
188.8888888887161
 21
-73.20508075664584
  0
LINE
  5
364
100
AcDbEntity
  8
tile
  6
ByLayer
 62
  256
370
   -1
100
AcDbLine
 10
188.8888888887161
 20
-73.20508075664584
 11
194.444444444263
 21
-63.58257627016742
  0
LINE
  5
365
100
AcDbEntity
  8
tile
  6
ByLayer
 62
  256
370
   -1
100
AcDbLine
 10
205.5555555553694
 20
-82.82758524311517
 11
194.4444444442829
 21
-82.82758524312938
  0
LINE
  5
366
100
AcDbEntity
  8
tile
  6
ByLayer
 62
  256
370
   -1
100
AcDbLine
 10
194.4444444442829
 20
-82.82758524312938
 11
205.5555555553524
 21
-102.0725942160744
  0
LINE
  5
367
100
AcDbEntity
  8
tile
  6
ByLayer
 62
  256
370
   -1
100
AcDbLine
 10
205.5555555553524
 20
-102.0725942160744
 11
211.1111111108993
 21
-92.45008972959606
  0
LINE
  5
368
100
AcDbEntity
  8
tile
  6
ByLayer
 62
  256
370
   -1
100
AcDbLine
 10
222.2222222220057
 20
-111.6950987025438
 11
211.1111111109192
 21
-111.695098702558
  0
LINE
  5
369
100
AcDbEntity
  8
tile
  6
ByLayer
 62
  256
370
   -1
100
AcDbLine
 10
211.1111111109192
 20
-111.695098702558
 11
222.2222222219885
 21
-130.9401076755032
  0
LINE
  5
36A
100
AcDbEntity
  8
tile
  6
ByLayer
 62
  256
370
   -1
100
AcDbLine
 10
222.2222222219885
 20
-130.9401076755032
 11
227.7777777775356
 21
-121.3176031890247
  0
LINE
  5
36B
100
AcDbEntity
  8
tile
  6
ByLayer
 62
  256
370
   -1
100
AcDbLine
 10
122.222222222232
 20
61.50998205402814
 11
213.8888888887206
 21
-97.26134197280403
  0
LINE
  5
36C
100
AcDbEntity
  8
tile
  6
ByLayer
 62
  256
370
   -1
100
AcDbLine
 10
294.4444444444223
 20
-159.8076211353199
 11
511.111111110692
 21
-159.8076211353167
  0
LINE
  5
36D
100
AcDbEntity
  8
tile
  6
ByLayer
 62
  256
370
   -1
100
AcDbLine
 10
677.7777777775461
 20
61.50998205369086
 11
572.2222222222371
 21
-121.3176031893843
  0
ENDSEC
  0
SECTION
  2
OBJECTS
  0
DICTIONARY
  5
C
330
0
100
AcDbDictionary
281
    1
  3
ACAD_GROUP
350
D
  0
DICTIONARY
  5
D
330
C
100
AcDbDictionary
281
    1
  0
ENDSEC
  0
EOF
